%TF.GenerationSoftware,KiCad,Pcbnew,5.1.10*%
%TF.CreationDate,2021-10-29T02:28:02-05:00*%
%TF.ProjectId,evan_atmega32u4,6576616e-5f61-4746-9d65-676133327534,rev?*%
%TF.SameCoordinates,Original*%
%TF.FileFunction,Copper,L1,Top*%
%TF.FilePolarity,Positive*%
%FSLAX46Y46*%
G04 Gerber Fmt 4.6, Leading zero omitted, Abs format (unit mm)*
G04 Created by KiCad (PCBNEW 5.1.10) date 2021-10-29 02:28:02*
%MOMM*%
%LPD*%
G01*
G04 APERTURE LIST*
%TA.AperFunction,ComponentPad*%
%ADD10C,1.500000*%
%TD*%
%TA.AperFunction,ComponentPad*%
%ADD11C,1.800000*%
%TD*%
%TA.AperFunction,ComponentPad*%
%ADD12R,1.800000X1.800000*%
%TD*%
%TA.AperFunction,ComponentPad*%
%ADD13C,2.000000*%
%TD*%
%TA.AperFunction,ComponentPad*%
%ADD14O,2.190000X1.740000*%
%TD*%
%TA.AperFunction,SMDPad,CuDef*%
%ADD15R,0.500000X2.500000*%
%TD*%
%TA.AperFunction,SMDPad,CuDef*%
%ADD16R,2.000000X2.500000*%
%TD*%
%TA.AperFunction,SMDPad,CuDef*%
%ADD17R,0.550000X1.500000*%
%TD*%
%TA.AperFunction,SMDPad,CuDef*%
%ADD18R,1.500000X0.550000*%
%TD*%
%TA.AperFunction,ComponentPad*%
%ADD19O,1.740000X2.190000*%
%TD*%
%TA.AperFunction,ComponentPad*%
%ADD20C,1.700000*%
%TD*%
%TA.AperFunction,SMDPad,CuDef*%
%ADD21R,1.200000X0.900000*%
%TD*%
%TA.AperFunction,ViaPad*%
%ADD22C,0.800000*%
%TD*%
%TA.AperFunction,Conductor*%
%ADD23C,0.254000*%
%TD*%
%TA.AperFunction,Conductor*%
%ADD24C,0.250000*%
%TD*%
%TA.AperFunction,Conductor*%
%ADD25C,0.508000*%
%TD*%
%TA.AperFunction,Conductor*%
%ADD26C,0.100000*%
%TD*%
G04 APERTURE END LIST*
D10*
%TO.P,Y1,2*%
%TO.N,Net-(C2-Pad2)*%
X174825000Y-81915000D03*
%TO.P,Y1,1*%
%TO.N,Net-(C1-Pad1)*%
X179705000Y-81915000D03*
%TD*%
%TO.P,R4,2*%
%TO.N,Net-(PF0-Pad1)*%
%TA.AperFunction,SMDPad,CuDef*%
G36*
G01*
X168675000Y-62045001D02*
X168675000Y-61144999D01*
G75*
G02*
X168924999Y-60895000I249999J0D01*
G01*
X169625001Y-60895000D01*
G75*
G02*
X169875000Y-61144999I0J-249999D01*
G01*
X169875000Y-62045001D01*
G75*
G02*
X169625001Y-62295000I-249999J0D01*
G01*
X168924999Y-62295000D01*
G75*
G02*
X168675000Y-62045001I0J249999D01*
G01*
G37*
%TD.AperFunction*%
%TO.P,R4,1*%
%TO.N,Net-(D2-Pad2)*%
%TA.AperFunction,SMDPad,CuDef*%
G36*
G01*
X166675000Y-62045001D02*
X166675000Y-61144999D01*
G75*
G02*
X166924999Y-60895000I249999J0D01*
G01*
X167625001Y-60895000D01*
G75*
G02*
X167875000Y-61144999I0J-249999D01*
G01*
X167875000Y-62045001D01*
G75*
G02*
X167625001Y-62295000I-249999J0D01*
G01*
X166924999Y-62295000D01*
G75*
G02*
X166675000Y-62045001I0J249999D01*
G01*
G37*
%TD.AperFunction*%
%TD*%
D11*
%TO.P,D2,2*%
%TO.N,Net-(D2-Pad2)*%
X169545000Y-57785000D03*
D12*
%TO.P,D2,1*%
%TO.N,GND*%
X167005000Y-57785000D03*
%TD*%
D13*
%TO.P,PB1,1*%
%TO.N,GND*%
X187960000Y-59690000D03*
%TD*%
D14*
%TO.P,J5,4*%
%TO.N,GND*%
X186690000Y-88265000D03*
%TO.P,J5,3*%
%TO.N,Net-(J5-Pad3)*%
X186690000Y-90805000D03*
%TO.P,J5,2*%
%TO.N,Net-(J5-Pad2)*%
X186690000Y-93345000D03*
%TO.P,J5,1*%
%TO.N,+5V*%
%TA.AperFunction,ComponentPad*%
G36*
G01*
X187535001Y-96755000D02*
X185844999Y-96755000D01*
G75*
G02*
X185595000Y-96505001I0J249999D01*
G01*
X185595000Y-95264999D01*
G75*
G02*
X185844999Y-95015000I249999J0D01*
G01*
X187535001Y-95015000D01*
G75*
G02*
X187785000Y-95264999I0J-249999D01*
G01*
X187785000Y-96505001D01*
G75*
G02*
X187535001Y-96755000I-249999J0D01*
G01*
G37*
%TD.AperFunction*%
%TD*%
D13*
%TO.P,PF7,1*%
%TO.N,Net-(PF7-Pad1)*%
X185420000Y-59690000D03*
%TD*%
%TO.P,PF6,1*%
%TO.N,Net-(PF6-Pad1)*%
X182880000Y-59690000D03*
%TD*%
%TO.P,PF5,1*%
%TO.N,Net-(PF5-Pad1)*%
X180340000Y-59690000D03*
%TD*%
%TO.P,PF4,1*%
%TO.N,Net-(PF4-Pad1)*%
X177800000Y-59690000D03*
%TD*%
%TO.P,PF1,1*%
%TO.N,Net-(PF1-Pad1)*%
X175260000Y-59690000D03*
%TD*%
%TO.P,PF0,1*%
%TO.N,Net-(PF0-Pad1)*%
X172720000Y-59690000D03*
%TD*%
%TO.P,PE2,1*%
%TO.N,Net-(PE2-Pad1)*%
X193675000Y-59690000D03*
%TD*%
%TO.P,PD7,1*%
%TO.N,Net-(PD7-Pad1)*%
X193675000Y-74930000D03*
%TD*%
%TO.P,PD6,1*%
%TO.N,Net-(PD6-Pad1)*%
X193675000Y-77470000D03*
%TD*%
%TO.P,PD5,1*%
%TO.N,Net-(PD5-Pad1)*%
X193675000Y-82550000D03*
%TD*%
%TO.P,PD4,1*%
%TO.N,Net-(PD4-Pad1)*%
X193675000Y-80010000D03*
%TD*%
%TO.P,PC7,1*%
%TO.N,Net-(PC7-Pad1)*%
X193675000Y-62230000D03*
%TD*%
%TO.P,PC6,1*%
%TO.N,Net-(PC6-Pad1)*%
X193675000Y-64770000D03*
%TD*%
%TO.P,PB6,1*%
%TO.N,Net-(PB6-Pad1)*%
X193675000Y-67310000D03*
%TD*%
%TO.P,PB5,1*%
%TO.N,Net-(PB5-Pad1)*%
X193675000Y-69850000D03*
%TD*%
%TO.P,PB4,1*%
%TO.N,Net-(PB4-Pad1)*%
X193675000Y-72390000D03*
%TD*%
D15*
%TO.P,J1,5*%
%TO.N,GND*%
X176225000Y-92523000D03*
%TO.P,J1,4*%
%TO.N,Net-(J1-Pad4)*%
X175425000Y-92523000D03*
%TO.P,J1,3*%
%TO.N,Net-(J1-Pad3)*%
X174625000Y-92523000D03*
%TO.P,J1,2*%
%TO.N,Net-(J1-Pad2)*%
X173825000Y-92523000D03*
%TO.P,J1,1*%
%TO.N,+5V*%
X173025000Y-92523000D03*
D16*
%TO.P,J1,6*%
%TO.N,Net-(J1-Pad6)*%
X179025000Y-92523000D03*
X170225000Y-92523000D03*
X179025000Y-98023000D03*
X170225000Y-98023000D03*
%TD*%
D17*
%TO.P,U1,44*%
%TO.N,+5V*%
X174816000Y-65928000D03*
%TO.P,U1,43*%
%TO.N,GND*%
X175616000Y-65928000D03*
%TO.P,U1,42*%
%TO.N,Net-(U1-Pad42)*%
X176416000Y-65928000D03*
%TO.P,U1,41*%
%TO.N,Net-(PF0-Pad1)*%
X177216000Y-65928000D03*
%TO.P,U1,40*%
%TO.N,Net-(PF1-Pad1)*%
X178016000Y-65928000D03*
%TO.P,U1,39*%
%TO.N,Net-(PF4-Pad1)*%
X178816000Y-65928000D03*
%TO.P,U1,38*%
%TO.N,Net-(PF5-Pad1)*%
X179616000Y-65928000D03*
%TO.P,U1,37*%
%TO.N,Net-(PF6-Pad1)*%
X180416000Y-65928000D03*
%TO.P,U1,36*%
%TO.N,Net-(PF7-Pad1)*%
X181216000Y-65928000D03*
%TO.P,U1,35*%
%TO.N,GND*%
X182016000Y-65928000D03*
%TO.P,U1,34*%
%TO.N,+5V*%
X182816000Y-65928000D03*
D18*
%TO.P,U1,33*%
%TO.N,Net-(PE2-Pad1)*%
X184516000Y-67628000D03*
%TO.P,U1,32*%
%TO.N,Net-(PC7-Pad1)*%
X184516000Y-68428000D03*
%TO.P,U1,31*%
%TO.N,Net-(PC6-Pad1)*%
X184516000Y-69228000D03*
%TO.P,U1,30*%
%TO.N,Net-(PB6-Pad1)*%
X184516000Y-70028000D03*
%TO.P,U1,29*%
%TO.N,Net-(PB5-Pad1)*%
X184516000Y-70828000D03*
%TO.P,U1,28*%
%TO.N,Net-(PB4-Pad1)*%
X184516000Y-71628000D03*
%TO.P,U1,27*%
%TO.N,Net-(PD7-Pad1)*%
X184516000Y-72428000D03*
%TO.P,U1,26*%
%TO.N,Net-(PD6-Pad1)*%
X184516000Y-73228000D03*
%TO.P,U1,25*%
%TO.N,Net-(PD4-Pad1)*%
X184516000Y-74028000D03*
%TO.P,U1,24*%
%TO.N,+5V*%
X184516000Y-74828000D03*
%TO.P,U1,23*%
%TO.N,GND*%
X184516000Y-75628000D03*
D17*
%TO.P,U1,22*%
%TO.N,Net-(PD5-Pad1)*%
X182816000Y-77328000D03*
%TO.P,U1,21*%
%TO.N,/TX*%
X182016000Y-77328000D03*
%TO.P,U1,20*%
%TO.N,/RX*%
X181216000Y-77328000D03*
%TO.P,U1,19*%
%TO.N,Net-(J5-Pad3)*%
X180416000Y-77328000D03*
%TO.P,U1,18*%
%TO.N,Net-(J5-Pad2)*%
X179616000Y-77328000D03*
%TO.P,U1,17*%
%TO.N,Net-(C1-Pad1)*%
X178816000Y-77328000D03*
%TO.P,U1,16*%
%TO.N,Net-(C2-Pad2)*%
X178016000Y-77328000D03*
%TO.P,U1,15*%
%TO.N,GND*%
X177216000Y-77328000D03*
%TO.P,U1,14*%
%TO.N,+5V*%
X176416000Y-77328000D03*
%TO.P,U1,13*%
%TO.N,/RST*%
X175616000Y-77328000D03*
%TO.P,U1,12*%
%TO.N,Net-(U1-Pad12)*%
X174816000Y-77328000D03*
D18*
%TO.P,U1,11*%
%TO.N,/MISO*%
X173116000Y-75628000D03*
%TO.P,U1,10*%
%TO.N,/MOSI*%
X173116000Y-74828000D03*
%TO.P,U1,9*%
%TO.N,/SCK*%
X173116000Y-74028000D03*
%TO.P,U1,8*%
%TO.N,Net-(U1-Pad8)*%
X173116000Y-73228000D03*
%TO.P,U1,7*%
%TO.N,+5V*%
X173116000Y-72428000D03*
%TO.P,U1,6*%
%TO.N,Net-(C3-Pad1)*%
X173116000Y-71628000D03*
%TO.P,U1,5*%
%TO.N,GND*%
X173116000Y-70828000D03*
%TO.P,U1,4*%
%TO.N,Net-(R1-Pad1)*%
X173116000Y-70028000D03*
%TO.P,U1,3*%
%TO.N,Net-(R2-Pad1)*%
X173116000Y-69228000D03*
%TO.P,U1,2*%
%TO.N,+5V*%
X173116000Y-68428000D03*
%TO.P,U1,1*%
%TO.N,Net-(U1-Pad1)*%
X173116000Y-67628000D03*
%TD*%
%TO.P,R3,2*%
%TO.N,/RST*%
%TA.AperFunction,SMDPad,CuDef*%
G36*
G01*
X160470001Y-91675000D02*
X159569999Y-91675000D01*
G75*
G02*
X159320000Y-91425001I0J249999D01*
G01*
X159320000Y-90724999D01*
G75*
G02*
X159569999Y-90475000I249999J0D01*
G01*
X160470001Y-90475000D01*
G75*
G02*
X160720000Y-90724999I0J-249999D01*
G01*
X160720000Y-91425001D01*
G75*
G02*
X160470001Y-91675000I-249999J0D01*
G01*
G37*
%TD.AperFunction*%
%TO.P,R3,1*%
%TO.N,+5V*%
%TA.AperFunction,SMDPad,CuDef*%
G36*
G01*
X160470001Y-93675000D02*
X159569999Y-93675000D01*
G75*
G02*
X159320000Y-93425001I0J249999D01*
G01*
X159320000Y-92724999D01*
G75*
G02*
X159569999Y-92475000I249999J0D01*
G01*
X160470001Y-92475000D01*
G75*
G02*
X160720000Y-92724999I0J-249999D01*
G01*
X160720000Y-93425001D01*
G75*
G02*
X160470001Y-93675000I-249999J0D01*
G01*
G37*
%TD.AperFunction*%
%TD*%
%TO.P,R2,2*%
%TO.N,Net-(J1-Pad2)*%
%TA.AperFunction,SMDPad,CuDef*%
G36*
G01*
X167189999Y-87395000D02*
X168090001Y-87395000D01*
G75*
G02*
X168340000Y-87644999I0J-249999D01*
G01*
X168340000Y-88345001D01*
G75*
G02*
X168090001Y-88595000I-249999J0D01*
G01*
X167189999Y-88595000D01*
G75*
G02*
X166940000Y-88345001I0J249999D01*
G01*
X166940000Y-87644999D01*
G75*
G02*
X167189999Y-87395000I249999J0D01*
G01*
G37*
%TD.AperFunction*%
%TO.P,R2,1*%
%TO.N,Net-(R2-Pad1)*%
%TA.AperFunction,SMDPad,CuDef*%
G36*
G01*
X167189999Y-85395000D02*
X168090001Y-85395000D01*
G75*
G02*
X168340000Y-85644999I0J-249999D01*
G01*
X168340000Y-86345001D01*
G75*
G02*
X168090001Y-86595000I-249999J0D01*
G01*
X167189999Y-86595000D01*
G75*
G02*
X166940000Y-86345001I0J249999D01*
G01*
X166940000Y-85644999D01*
G75*
G02*
X167189999Y-85395000I249999J0D01*
G01*
G37*
%TD.AperFunction*%
%TD*%
%TO.P,R1,2*%
%TO.N,Net-(J1-Pad3)*%
%TA.AperFunction,SMDPad,CuDef*%
G36*
G01*
X170999999Y-87395000D02*
X171900001Y-87395000D01*
G75*
G02*
X172150000Y-87644999I0J-249999D01*
G01*
X172150000Y-88345001D01*
G75*
G02*
X171900001Y-88595000I-249999J0D01*
G01*
X170999999Y-88595000D01*
G75*
G02*
X170750000Y-88345001I0J249999D01*
G01*
X170750000Y-87644999D01*
G75*
G02*
X170999999Y-87395000I249999J0D01*
G01*
G37*
%TD.AperFunction*%
%TO.P,R1,1*%
%TO.N,Net-(R1-Pad1)*%
%TA.AperFunction,SMDPad,CuDef*%
G36*
G01*
X170999999Y-85395000D02*
X171900001Y-85395000D01*
G75*
G02*
X172150000Y-85644999I0J-249999D01*
G01*
X172150000Y-86345001D01*
G75*
G02*
X171900001Y-86595000I-249999J0D01*
G01*
X170999999Y-86595000D01*
G75*
G02*
X170750000Y-86345001I0J249999D01*
G01*
X170750000Y-85644999D01*
G75*
G02*
X170999999Y-85395000I249999J0D01*
G01*
G37*
%TD.AperFunction*%
%TD*%
D14*
%TO.P,J4,3*%
%TO.N,GND*%
X196215000Y-88265000D03*
%TO.P,J4,2*%
%TO.N,/TX*%
X196215000Y-90805000D03*
%TO.P,J4,1*%
%TO.N,/RX*%
%TA.AperFunction,ComponentPad*%
G36*
G01*
X197060001Y-94215000D02*
X195369999Y-94215000D01*
G75*
G02*
X195120000Y-93965001I0J249999D01*
G01*
X195120000Y-92724999D01*
G75*
G02*
X195369999Y-92475000I249999J0D01*
G01*
X197060001Y-92475000D01*
G75*
G02*
X197310000Y-92724999I0J-249999D01*
G01*
X197310000Y-93965001D01*
G75*
G02*
X197060001Y-94215000I-249999J0D01*
G01*
G37*
%TD.AperFunction*%
%TD*%
D19*
%TO.P,J3,2*%
%TO.N,+5V*%
X163195000Y-60960000D03*
%TO.P,J3,1*%
%TO.N,GND*%
%TA.AperFunction,ComponentPad*%
G36*
G01*
X159785000Y-61805001D02*
X159785000Y-60114999D01*
G75*
G02*
X160034999Y-59865000I249999J0D01*
G01*
X161275001Y-59865000D01*
G75*
G02*
X161525000Y-60114999I0J-249999D01*
G01*
X161525000Y-61805001D01*
G75*
G02*
X161275001Y-62055000I-249999J0D01*
G01*
X160034999Y-62055000D01*
G75*
G02*
X159785000Y-61805001I0J249999D01*
G01*
G37*
%TD.AperFunction*%
%TD*%
D20*
%TO.P,J2,6*%
%TO.N,GND*%
X160655000Y-73660000D03*
%TO.P,J2,4*%
%TO.N,/MOSI*%
X160655000Y-76200000D03*
%TO.P,J2,2*%
%TO.N,Net-(D1-Pad2)*%
X160655000Y-78740000D03*
%TO.P,J2,5*%
%TO.N,/RST*%
X163195000Y-73660000D03*
%TO.P,J2,3*%
%TO.N,/SCK*%
X163195000Y-76200000D03*
%TO.P,J2,1*%
%TO.N,/MISO*%
%TA.AperFunction,ComponentPad*%
G36*
G01*
X164045000Y-78140000D02*
X164045000Y-79340000D01*
G75*
G02*
X163795000Y-79590000I-250000J0D01*
G01*
X162595000Y-79590000D01*
G75*
G02*
X162345000Y-79340000I0J250000D01*
G01*
X162345000Y-78140000D01*
G75*
G02*
X162595000Y-77890000I250000J0D01*
G01*
X163795000Y-77890000D01*
G75*
G02*
X164045000Y-78140000I0J-250000D01*
G01*
G37*
%TD.AperFunction*%
%TD*%
D21*
%TO.P,D1,2*%
%TO.N,Net-(D1-Pad2)*%
X163195000Y-90425000D03*
%TO.P,D1,1*%
%TO.N,+5V*%
X163195000Y-93725000D03*
%TD*%
%TO.P,C4,2*%
%TO.N,+5V*%
%TA.AperFunction,SMDPad,CuDef*%
G36*
G01*
X168435000Y-65855000D02*
X169385000Y-65855000D01*
G75*
G02*
X169635000Y-66105000I0J-250000D01*
G01*
X169635000Y-66780000D01*
G75*
G02*
X169385000Y-67030000I-250000J0D01*
G01*
X168435000Y-67030000D01*
G75*
G02*
X168185000Y-66780000I0J250000D01*
G01*
X168185000Y-66105000D01*
G75*
G02*
X168435000Y-65855000I250000J0D01*
G01*
G37*
%TD.AperFunction*%
%TO.P,C4,1*%
%TO.N,GND*%
%TA.AperFunction,SMDPad,CuDef*%
G36*
G01*
X168435000Y-63780000D02*
X169385000Y-63780000D01*
G75*
G02*
X169635000Y-64030000I0J-250000D01*
G01*
X169635000Y-64705000D01*
G75*
G02*
X169385000Y-64955000I-250000J0D01*
G01*
X168435000Y-64955000D01*
G75*
G02*
X168185000Y-64705000I0J250000D01*
G01*
X168185000Y-64030000D01*
G75*
G02*
X168435000Y-63780000I250000J0D01*
G01*
G37*
%TD.AperFunction*%
%TD*%
%TO.P,C3,2*%
%TO.N,GND*%
%TA.AperFunction,SMDPad,CuDef*%
G36*
G01*
X169385000Y-70035000D02*
X168435000Y-70035000D01*
G75*
G02*
X168185000Y-69785000I0J250000D01*
G01*
X168185000Y-69110000D01*
G75*
G02*
X168435000Y-68860000I250000J0D01*
G01*
X169385000Y-68860000D01*
G75*
G02*
X169635000Y-69110000I0J-250000D01*
G01*
X169635000Y-69785000D01*
G75*
G02*
X169385000Y-70035000I-250000J0D01*
G01*
G37*
%TD.AperFunction*%
%TO.P,C3,1*%
%TO.N,Net-(C3-Pad1)*%
%TA.AperFunction,SMDPad,CuDef*%
G36*
G01*
X169385000Y-72110000D02*
X168435000Y-72110000D01*
G75*
G02*
X168185000Y-71860000I0J250000D01*
G01*
X168185000Y-71185000D01*
G75*
G02*
X168435000Y-70935000I250000J0D01*
G01*
X169385000Y-70935000D01*
G75*
G02*
X169635000Y-71185000I0J-250000D01*
G01*
X169635000Y-71860000D01*
G75*
G02*
X169385000Y-72110000I-250000J0D01*
G01*
G37*
%TD.AperFunction*%
%TD*%
%TO.P,C2,2*%
%TO.N,Net-(C2-Pad2)*%
%TA.AperFunction,SMDPad,CuDef*%
G36*
G01*
X175735000Y-86545000D02*
X174785000Y-86545000D01*
G75*
G02*
X174535000Y-86295000I0J250000D01*
G01*
X174535000Y-85620000D01*
G75*
G02*
X174785000Y-85370000I250000J0D01*
G01*
X175735000Y-85370000D01*
G75*
G02*
X175985000Y-85620000I0J-250000D01*
G01*
X175985000Y-86295000D01*
G75*
G02*
X175735000Y-86545000I-250000J0D01*
G01*
G37*
%TD.AperFunction*%
%TO.P,C2,1*%
%TO.N,GND*%
%TA.AperFunction,SMDPad,CuDef*%
G36*
G01*
X175735000Y-88620000D02*
X174785000Y-88620000D01*
G75*
G02*
X174535000Y-88370000I0J250000D01*
G01*
X174535000Y-87695000D01*
G75*
G02*
X174785000Y-87445000I250000J0D01*
G01*
X175735000Y-87445000D01*
G75*
G02*
X175985000Y-87695000I0J-250000D01*
G01*
X175985000Y-88370000D01*
G75*
G02*
X175735000Y-88620000I-250000J0D01*
G01*
G37*
%TD.AperFunction*%
%TD*%
%TO.P,C1,2*%
%TO.N,GND*%
%TA.AperFunction,SMDPad,CuDef*%
G36*
G01*
X178595000Y-87445000D02*
X179545000Y-87445000D01*
G75*
G02*
X179795000Y-87695000I0J-250000D01*
G01*
X179795000Y-88370000D01*
G75*
G02*
X179545000Y-88620000I-250000J0D01*
G01*
X178595000Y-88620000D01*
G75*
G02*
X178345000Y-88370000I0J250000D01*
G01*
X178345000Y-87695000D01*
G75*
G02*
X178595000Y-87445000I250000J0D01*
G01*
G37*
%TD.AperFunction*%
%TO.P,C1,1*%
%TO.N,Net-(C1-Pad1)*%
%TA.AperFunction,SMDPad,CuDef*%
G36*
G01*
X178595000Y-85370000D02*
X179545000Y-85370000D01*
G75*
G02*
X179795000Y-85620000I0J-250000D01*
G01*
X179795000Y-86295000D01*
G75*
G02*
X179545000Y-86545000I-250000J0D01*
G01*
X178595000Y-86545000D01*
G75*
G02*
X178345000Y-86295000I0J250000D01*
G01*
X178345000Y-85620000D01*
G75*
G02*
X178595000Y-85370000I250000J0D01*
G01*
G37*
%TD.AperFunction*%
%TD*%
D22*
%TO.N,GND*%
X178435000Y-71755000D03*
X187325000Y-78105000D03*
X182245000Y-93345000D03*
%TO.N,+5V*%
X182880000Y-74930000D03*
X174625000Y-72390000D03*
X174625000Y-68428000D03*
X175895000Y-75565000D03*
X173990000Y-95885000D03*
%TO.N,Net-(R1-Pad1)*%
X171450000Y-69850000D03*
%TO.N,Net-(R2-Pad1)*%
X170815000Y-68580000D03*
%TO.N,Net-(R1-Pad1)*%
X171450000Y-83820000D03*
%TO.N,Net-(R2-Pad1)*%
X167640000Y-83820000D03*
%TD*%
D23*
%TO.N,GND*%
X179070000Y-88032500D02*
X175260000Y-88032500D01*
X177216000Y-78689000D02*
X177216000Y-77328000D01*
X175260000Y-80645000D02*
X177216000Y-78689000D01*
X174392500Y-88032500D02*
X173355000Y-86995000D01*
X173355000Y-86995000D02*
X173355000Y-81280000D01*
X175260000Y-88032500D02*
X174392500Y-88032500D01*
X173355000Y-81280000D02*
X173990000Y-80645000D01*
X173990000Y-80645000D02*
X175260000Y-80645000D01*
%TO.N,Net-(C1-Pad1)*%
X179070000Y-82550000D02*
X179705000Y-81915000D01*
X179070000Y-85957500D02*
X179070000Y-82550000D01*
X178816000Y-81026000D02*
X178816000Y-77328000D01*
X179705000Y-81915000D02*
X178816000Y-81026000D01*
%TO.N,Net-(C2-Pad2)*%
X175260000Y-82350000D02*
X174825000Y-81915000D01*
X175260000Y-85957500D02*
X175260000Y-82350000D01*
X178016000Y-78724000D02*
X178016000Y-77328000D01*
X174825000Y-81915000D02*
X178016000Y-78724000D01*
D24*
%TO.N,Net-(C3-Pad1)*%
X172010500Y-71522500D02*
X168910000Y-71522500D01*
X172116000Y-71628000D02*
X172010500Y-71522500D01*
X173116000Y-71628000D02*
X172116000Y-71628000D01*
D25*
%TO.N,+5V*%
X182982000Y-74828000D02*
X184516000Y-74828000D01*
X182880000Y-74930000D02*
X182982000Y-74828000D01*
X173154000Y-72390000D02*
X173116000Y-72428000D01*
X174625000Y-72390000D02*
X173154000Y-72390000D01*
X173116000Y-68428000D02*
X174625000Y-68428000D01*
X174625000Y-66119000D02*
X174816000Y-65928000D01*
X174625000Y-68428000D02*
X174625000Y-66119000D01*
X182880000Y-65992000D02*
X182816000Y-65928000D01*
X182880000Y-74930000D02*
X182880000Y-65992000D01*
X176416000Y-76086000D02*
X175895000Y-75565000D01*
X176416000Y-77328000D02*
X176416000Y-76086000D01*
D23*
X162545000Y-93075000D02*
X163195000Y-93725000D01*
X160020000Y-93075000D02*
X162545000Y-93075000D01*
D25*
X163195000Y-93725000D02*
X168020000Y-93725000D01*
X168020000Y-93725000D02*
X168910000Y-94615000D01*
X173025000Y-92523000D02*
X173025000Y-93040000D01*
X170322001Y-96027001D02*
X168910000Y-94615000D01*
X186547999Y-96027001D02*
X170322001Y-96027001D01*
X186690000Y-95885000D02*
X186547999Y-96027001D01*
X173025000Y-94281000D02*
X173990000Y-95246000D01*
X173025000Y-92523000D02*
X173025000Y-94281000D01*
X173990000Y-95246000D02*
X173990000Y-96027001D01*
X163195000Y-60960000D02*
X163195000Y-61595000D01*
X168042500Y-66442500D02*
X168910000Y-66442500D01*
X163195000Y-61595000D02*
X168042500Y-66442500D01*
X170088298Y-66442500D02*
X168910000Y-66442500D01*
X172073798Y-68428000D02*
X170088298Y-66442500D01*
X173116000Y-68428000D02*
X172073798Y-68428000D01*
%TO.N,Net-(D1-Pad2)*%
X163195000Y-90425000D02*
X163195000Y-82550000D01*
X160655000Y-80010000D02*
X160655000Y-78740000D01*
X163195000Y-82550000D02*
X160655000Y-80010000D01*
D24*
%TO.N,/MOSI*%
X162019990Y-77564990D02*
X168815010Y-77564990D01*
X160655000Y-76200000D02*
X162019990Y-77564990D01*
X171552000Y-74828000D02*
X173116000Y-74828000D01*
X168815010Y-77564990D02*
X171552000Y-74828000D01*
%TO.N,/RST*%
X160020000Y-91075000D02*
X160020000Y-81915000D01*
X160020000Y-81915000D02*
X158750000Y-80645000D01*
X158750000Y-80645000D02*
X158750000Y-73025000D01*
X158750000Y-73025000D02*
X160020000Y-71755000D01*
X161290000Y-71755000D02*
X163195000Y-73660000D01*
X160020000Y-71755000D02*
X161290000Y-71755000D01*
D23*
X175616000Y-77328000D02*
X175616000Y-78384000D01*
X175616000Y-78384000D02*
X173990000Y-80010000D01*
X173990000Y-80010000D02*
X165100000Y-80010000D01*
X165100000Y-80010000D02*
X164465000Y-80645000D01*
X164465000Y-80645000D02*
X162560000Y-80645000D01*
X162560000Y-80645000D02*
X161925000Y-80010000D01*
X161925000Y-80010000D02*
X161925000Y-78109238D01*
X161925000Y-78109238D02*
X161285762Y-77470000D01*
X161285762Y-77470000D02*
X160020000Y-77470000D01*
X160020000Y-77470000D02*
X159385000Y-76835000D01*
X159385000Y-76835000D02*
X159385000Y-75565000D01*
X159385000Y-75565000D02*
X160020000Y-74930000D01*
X161925000Y-74930000D02*
X163195000Y-73660000D01*
X160020000Y-74930000D02*
X161925000Y-74930000D01*
D24*
%TO.N,/SCK*%
X173116000Y-74028000D02*
X171305089Y-74028000D01*
X169133089Y-76200000D02*
X163195000Y-76200000D01*
X171305089Y-74028000D02*
X169133089Y-76200000D01*
D23*
%TO.N,/MISO*%
X163195000Y-78740000D02*
X168910000Y-78740000D01*
X172022000Y-75628000D02*
X168910000Y-78740000D01*
X173116000Y-75628000D02*
X172022000Y-75628000D01*
%TO.N,/TX*%
X182016000Y-77876000D02*
X182213999Y-78073999D01*
X182016000Y-77328000D02*
X182016000Y-77876000D01*
X194679398Y-90805000D02*
X196215000Y-90805000D01*
X182213999Y-78339601D02*
X194679398Y-90805000D01*
X182213999Y-78073999D02*
X182213999Y-78339601D01*
%TO.N,/RX*%
X181216000Y-78346000D02*
X181216000Y-77328000D01*
X196215000Y-93345000D02*
X181216000Y-78346000D01*
%TO.N,Net-(J1-Pad3)*%
X171450000Y-87995000D02*
X171450000Y-88265000D01*
X171450000Y-88265000D02*
X172085000Y-88900000D01*
X172085000Y-88900000D02*
X173355000Y-88900000D01*
X174625000Y-90170000D02*
X174625000Y-92523000D01*
X173355000Y-88900000D02*
X174625000Y-90170000D01*
%TO.N,Net-(J1-Pad2)*%
X173825000Y-92523000D02*
X173825000Y-90640000D01*
X173825000Y-90640000D02*
X173355000Y-90170000D01*
X173355000Y-90170000D02*
X168910000Y-90170000D01*
X167640000Y-88900000D02*
X167640000Y-87995000D01*
X168910000Y-90170000D02*
X167640000Y-88900000D01*
%TO.N,Net-(J5-Pad3)*%
X180416000Y-78816000D02*
X180416000Y-77328000D01*
X184785000Y-83185000D02*
X180416000Y-78816000D01*
X184785000Y-88900000D02*
X184785000Y-83185000D01*
X186690000Y-90805000D02*
X184785000Y-88900000D01*
%TO.N,Net-(J5-Pad2)*%
X184150000Y-90805000D02*
X186690000Y-93345000D01*
X183515000Y-90170000D02*
X184150000Y-90805000D01*
X179616000Y-79286000D02*
X183515000Y-83185000D01*
X183515000Y-83185000D02*
X183515000Y-90170000D01*
X179616000Y-77328000D02*
X179616000Y-79286000D01*
%TO.N,Net-(R1-Pad1)*%
X171628000Y-70028000D02*
X171450000Y-69850000D01*
X173116000Y-70028000D02*
X171628000Y-70028000D01*
%TO.N,Net-(R2-Pad1)*%
X172112000Y-69228000D02*
X173116000Y-69228000D01*
X171863999Y-68979999D02*
X172112000Y-69228000D01*
X171214999Y-68979999D02*
X171863999Y-68979999D01*
X170815000Y-68580000D02*
X171214999Y-68979999D01*
%TO.N,Net-(PB4-Pad1)*%
X184516000Y-71628000D02*
X190373000Y-71628000D01*
X191135000Y-72390000D02*
X193675000Y-72390000D01*
X190373000Y-71628000D02*
X191135000Y-72390000D01*
%TO.N,Net-(PB5-Pad1)*%
X184516000Y-70828000D02*
X190157000Y-70828000D01*
X191135000Y-69850000D02*
X193675000Y-69850000D01*
X190157000Y-70828000D02*
X191135000Y-69850000D01*
%TO.N,Net-(PB6-Pad1)*%
X184516000Y-70028000D02*
X187782000Y-70028000D01*
X190500000Y-67310000D02*
X193675000Y-67310000D01*
X187782000Y-70028000D02*
X190500000Y-67310000D01*
%TO.N,Net-(PC6-Pad1)*%
X185520000Y-69228000D02*
X185533000Y-69215000D01*
X184516000Y-69228000D02*
X185520000Y-69228000D01*
X185533000Y-69215000D02*
X186690000Y-69215000D01*
X191135000Y-64770000D02*
X193675000Y-64770000D01*
X186690000Y-69215000D02*
X191135000Y-64770000D01*
%TO.N,Net-(PC7-Pad1)*%
X191718000Y-62230000D02*
X193675000Y-62230000D01*
X185520000Y-68428000D02*
X191718000Y-62230000D01*
X184516000Y-68428000D02*
X185520000Y-68428000D01*
%TO.N,Net-(PD4-Pad1)*%
X191502000Y-80010000D02*
X193675000Y-80010000D01*
X185520000Y-74028000D02*
X191502000Y-80010000D01*
X184516000Y-74028000D02*
X185520000Y-74028000D01*
%TO.N,Net-(PD5-Pad1)*%
X193675000Y-82550000D02*
X189230000Y-82550000D01*
X184008000Y-77328000D02*
X182816000Y-77328000D01*
X189230000Y-82550000D02*
X184008000Y-77328000D01*
%TO.N,Net-(PD6-Pad1)*%
X184516000Y-73228000D02*
X186893000Y-73228000D01*
X191135000Y-77470000D02*
X193675000Y-77470000D01*
X186893000Y-73228000D02*
X191135000Y-77470000D01*
%TO.N,Net-(PD7-Pad1)*%
X184516000Y-72428000D02*
X187998000Y-72428000D01*
X190500000Y-74930000D02*
X193675000Y-74930000D01*
X187998000Y-72428000D02*
X190500000Y-74930000D01*
%TO.N,Net-(PE2-Pad1)*%
X184516000Y-67628000D02*
X184516000Y-66944000D01*
X191770000Y-59690000D02*
X193675000Y-59690000D01*
X184516000Y-66944000D02*
X191770000Y-59690000D01*
%TO.N,Net-(PF0-Pad1)*%
X172720000Y-60618398D02*
X172720000Y-59690000D01*
X177216000Y-65114398D02*
X172720000Y-60618398D01*
X177216000Y-65928000D02*
X177216000Y-65114398D01*
X170815000Y-61595000D02*
X172720000Y-59690000D01*
X169275000Y-61595000D02*
X170815000Y-61595000D01*
%TO.N,Net-(PF1-Pad1)*%
X175260000Y-62168000D02*
X175260000Y-59690000D01*
X178016000Y-64924000D02*
X175260000Y-62168000D01*
X178016000Y-65928000D02*
X178016000Y-64924000D01*
%TO.N,Net-(PF4-Pad1)*%
X178816000Y-65928000D02*
X178816000Y-64516000D01*
X177800000Y-63500000D02*
X177800000Y-59690000D01*
X178816000Y-64516000D02*
X177800000Y-63500000D01*
%TO.N,Net-(PF5-Pad1)*%
X179616000Y-65928000D02*
X179616000Y-64224000D01*
X180340000Y-63500000D02*
X180340000Y-59690000D01*
X179616000Y-64224000D02*
X180340000Y-63500000D01*
%TO.N,Net-(PF6-Pad1)*%
X180416000Y-65928000D02*
X180416000Y-64694000D01*
X182880000Y-62230000D02*
X182880000Y-59690000D01*
X180416000Y-64694000D02*
X182880000Y-62230000D01*
%TO.N,Net-(PF7-Pad1)*%
X181216000Y-65928000D02*
X181216000Y-65164000D01*
X185420000Y-60960000D02*
X185420000Y-59690000D01*
X181216000Y-65164000D02*
X185420000Y-60960000D01*
%TO.N,Net-(D2-Pad2)*%
X167275000Y-61595000D02*
X167275000Y-60690000D01*
X169545000Y-58420000D02*
X169545000Y-57785000D01*
X167275000Y-60690000D02*
X169545000Y-58420000D01*
%TO.N,Net-(R1-Pad1)*%
X171450000Y-85995000D02*
X171450000Y-83820000D01*
%TO.N,Net-(R2-Pad1)*%
X167640000Y-85995000D02*
X167640000Y-83820000D01*
%TD*%
%TO.N,GND*%
X200635000Y-100305000D02*
X156235000Y-100305000D01*
X156235000Y-73025000D01*
X157986324Y-73025000D01*
X157990001Y-73062332D01*
X157990000Y-80607678D01*
X157986324Y-80645000D01*
X157990000Y-80682322D01*
X157990000Y-80682332D01*
X158000997Y-80793985D01*
X158034157Y-80903301D01*
X158044454Y-80937246D01*
X158115026Y-81069276D01*
X158141129Y-81101082D01*
X158209999Y-81185001D01*
X158239003Y-81208804D01*
X159260001Y-82229803D01*
X159260000Y-89895473D01*
X159230149Y-89904528D01*
X159076613Y-89986595D01*
X158942038Y-90097038D01*
X158831595Y-90231613D01*
X158749528Y-90385149D01*
X158698992Y-90551745D01*
X158681928Y-90724999D01*
X158681928Y-91425001D01*
X158698992Y-91598255D01*
X158749528Y-91764851D01*
X158831595Y-91918387D01*
X158942038Y-92052962D01*
X158968891Y-92075000D01*
X158942038Y-92097038D01*
X158831595Y-92231613D01*
X158749528Y-92385149D01*
X158698992Y-92551745D01*
X158681928Y-92724999D01*
X158681928Y-93425001D01*
X158698992Y-93598255D01*
X158749528Y-93764851D01*
X158831595Y-93918387D01*
X158942038Y-94052962D01*
X159076613Y-94163405D01*
X159230149Y-94245472D01*
X159396745Y-94296008D01*
X159569999Y-94313072D01*
X160470001Y-94313072D01*
X160643255Y-94296008D01*
X160809851Y-94245472D01*
X160963387Y-94163405D01*
X161097962Y-94052962D01*
X161208405Y-93918387D01*
X161251907Y-93837000D01*
X161956928Y-93837000D01*
X161956928Y-94175000D01*
X161969188Y-94299482D01*
X162005498Y-94419180D01*
X162064463Y-94529494D01*
X162143815Y-94626185D01*
X162240506Y-94705537D01*
X162350820Y-94764502D01*
X162470518Y-94800812D01*
X162595000Y-94813072D01*
X163795000Y-94813072D01*
X163919482Y-94800812D01*
X164039180Y-94764502D01*
X164149494Y-94705537D01*
X164246185Y-94626185D01*
X164256185Y-94614000D01*
X167651765Y-94614000D01*
X168312259Y-95274495D01*
X168312264Y-95274499D01*
X169177382Y-96139618D01*
X169100518Y-96147188D01*
X168980820Y-96183498D01*
X168870506Y-96242463D01*
X168773815Y-96321815D01*
X168694463Y-96418506D01*
X168635498Y-96528820D01*
X168599188Y-96648518D01*
X168586928Y-96773000D01*
X168586928Y-99273000D01*
X168599188Y-99397482D01*
X168635498Y-99517180D01*
X168694463Y-99627494D01*
X168773815Y-99724185D01*
X168870506Y-99803537D01*
X168980820Y-99862502D01*
X169100518Y-99898812D01*
X169225000Y-99911072D01*
X171225000Y-99911072D01*
X171349482Y-99898812D01*
X171469180Y-99862502D01*
X171579494Y-99803537D01*
X171676185Y-99724185D01*
X171755537Y-99627494D01*
X171814502Y-99517180D01*
X171850812Y-99397482D01*
X171863072Y-99273000D01*
X171863072Y-96916001D01*
X173867957Y-96916001D01*
X173888061Y-96920000D01*
X173986934Y-96920000D01*
X173990000Y-96920302D01*
X173993066Y-96920000D01*
X174091939Y-96920000D01*
X174112043Y-96916001D01*
X177386928Y-96916001D01*
X177386928Y-99273000D01*
X177399188Y-99397482D01*
X177435498Y-99517180D01*
X177494463Y-99627494D01*
X177573815Y-99724185D01*
X177670506Y-99803537D01*
X177780820Y-99862502D01*
X177900518Y-99898812D01*
X178025000Y-99911072D01*
X180025000Y-99911072D01*
X180149482Y-99898812D01*
X180269180Y-99862502D01*
X180379494Y-99803537D01*
X180476185Y-99724185D01*
X180555537Y-99627494D01*
X180614502Y-99517180D01*
X180650812Y-99397482D01*
X180663072Y-99273000D01*
X180663072Y-96916001D01*
X185062559Y-96916001D01*
X185106595Y-96998387D01*
X185217038Y-97132962D01*
X185351613Y-97243405D01*
X185505149Y-97325472D01*
X185671745Y-97376008D01*
X185844999Y-97393072D01*
X187535001Y-97393072D01*
X187708255Y-97376008D01*
X187874851Y-97325472D01*
X188028387Y-97243405D01*
X188162962Y-97132962D01*
X188273405Y-96998387D01*
X188355472Y-96844851D01*
X188406008Y-96678255D01*
X188423072Y-96505001D01*
X188423072Y-95264999D01*
X188406008Y-95091745D01*
X188355472Y-94925149D01*
X188273405Y-94771613D01*
X188162962Y-94637038D01*
X188028387Y-94526595D01*
X187918886Y-94468066D01*
X187984345Y-94414345D01*
X188172417Y-94185179D01*
X188312166Y-93923725D01*
X188398224Y-93640032D01*
X188427282Y-93345000D01*
X188398224Y-93049968D01*
X188312166Y-92766275D01*
X188172417Y-92504821D01*
X187984345Y-92275655D01*
X187755179Y-92087583D01*
X187731638Y-92075000D01*
X187755179Y-92062417D01*
X187984345Y-91874345D01*
X188172417Y-91645179D01*
X188312166Y-91383725D01*
X188398224Y-91100032D01*
X188427282Y-90805000D01*
X188398224Y-90509968D01*
X188312166Y-90226275D01*
X188172417Y-89964821D01*
X187984345Y-89735655D01*
X187755179Y-89547583D01*
X187726848Y-89532440D01*
X187867433Y-89439708D01*
X188078306Y-89231326D01*
X188244474Y-88985809D01*
X188359551Y-88712591D01*
X188376302Y-88625031D01*
X188255246Y-88392000D01*
X186817000Y-88392000D01*
X186817000Y-88412000D01*
X186563000Y-88412000D01*
X186563000Y-88392000D01*
X186543000Y-88392000D01*
X186543000Y-88138000D01*
X186563000Y-88138000D01*
X186563000Y-86914624D01*
X186817000Y-86914624D01*
X186817000Y-88138000D01*
X188255246Y-88138000D01*
X188376302Y-87904969D01*
X188359551Y-87817409D01*
X188244474Y-87544191D01*
X188078306Y-87298674D01*
X187867433Y-87090292D01*
X187619958Y-86927053D01*
X187345392Y-86815231D01*
X187054286Y-86759123D01*
X186817000Y-86914624D01*
X186563000Y-86914624D01*
X186325714Y-86759123D01*
X186034608Y-86815231D01*
X185760042Y-86927053D01*
X185547000Y-87067579D01*
X185547000Y-83754630D01*
X194485106Y-92692736D01*
X194481928Y-92724999D01*
X194481928Y-93965001D01*
X194498992Y-94138255D01*
X194549528Y-94304851D01*
X194631595Y-94458387D01*
X194742038Y-94592962D01*
X194876613Y-94703405D01*
X195030149Y-94785472D01*
X195196745Y-94836008D01*
X195369999Y-94853072D01*
X197060001Y-94853072D01*
X197233255Y-94836008D01*
X197399851Y-94785472D01*
X197553387Y-94703405D01*
X197687962Y-94592962D01*
X197798405Y-94458387D01*
X197880472Y-94304851D01*
X197931008Y-94138255D01*
X197948072Y-93965001D01*
X197948072Y-92724999D01*
X197931008Y-92551745D01*
X197880472Y-92385149D01*
X197798405Y-92231613D01*
X197687962Y-92097038D01*
X197553387Y-91986595D01*
X197443886Y-91928066D01*
X197509345Y-91874345D01*
X197697417Y-91645179D01*
X197837166Y-91383725D01*
X197923224Y-91100032D01*
X197952282Y-90805000D01*
X197923224Y-90509968D01*
X197837166Y-90226275D01*
X197697417Y-89964821D01*
X197509345Y-89735655D01*
X197280179Y-89547583D01*
X197251848Y-89532440D01*
X197392433Y-89439708D01*
X197603306Y-89231326D01*
X197769474Y-88985809D01*
X197884551Y-88712591D01*
X197901302Y-88625031D01*
X197780246Y-88392000D01*
X196342000Y-88392000D01*
X196342000Y-88412000D01*
X196088000Y-88412000D01*
X196088000Y-88392000D01*
X194649754Y-88392000D01*
X194528698Y-88625031D01*
X194545449Y-88712591D01*
X194660526Y-88985809D01*
X194826694Y-89231326D01*
X195037567Y-89439708D01*
X195178152Y-89532440D01*
X195149821Y-89547583D01*
X194920655Y-89735655D01*
X194815642Y-89863613D01*
X192856998Y-87904969D01*
X194528698Y-87904969D01*
X194649754Y-88138000D01*
X196088000Y-88138000D01*
X196088000Y-86914624D01*
X196342000Y-86914624D01*
X196342000Y-88138000D01*
X197780246Y-88138000D01*
X197901302Y-87904969D01*
X197884551Y-87817409D01*
X197769474Y-87544191D01*
X197603306Y-87298674D01*
X197392433Y-87090292D01*
X197144958Y-86927053D01*
X196870392Y-86815231D01*
X196579286Y-86759123D01*
X196342000Y-86914624D01*
X196088000Y-86914624D01*
X195850714Y-86759123D01*
X195559608Y-86815231D01*
X195285042Y-86927053D01*
X195037567Y-87090292D01*
X194826694Y-87298674D01*
X194660526Y-87544191D01*
X194545449Y-87817409D01*
X194528698Y-87904969D01*
X192856998Y-87904969D01*
X183508696Y-78556668D01*
X183542185Y-78529185D01*
X183621537Y-78432494D01*
X183680502Y-78322180D01*
X183716812Y-78202482D01*
X183724705Y-78122336D01*
X188664721Y-83062352D01*
X188688578Y-83091422D01*
X188804608Y-83186645D01*
X188936985Y-83257402D01*
X189080622Y-83300974D01*
X189192574Y-83312000D01*
X189192576Y-83312000D01*
X189229999Y-83315686D01*
X189267422Y-83312000D01*
X192220920Y-83312000D01*
X192226082Y-83324463D01*
X192405013Y-83592252D01*
X192632748Y-83819987D01*
X192900537Y-83998918D01*
X193198088Y-84122168D01*
X193513967Y-84185000D01*
X193836033Y-84185000D01*
X194151912Y-84122168D01*
X194449463Y-83998918D01*
X194717252Y-83819987D01*
X194944987Y-83592252D01*
X195123918Y-83324463D01*
X195247168Y-83026912D01*
X195310000Y-82711033D01*
X195310000Y-82388967D01*
X195247168Y-82073088D01*
X195123918Y-81775537D01*
X194944987Y-81507748D01*
X194717252Y-81280013D01*
X194717233Y-81280000D01*
X194717252Y-81279987D01*
X194944987Y-81052252D01*
X195123918Y-80784463D01*
X195247168Y-80486912D01*
X195310000Y-80171033D01*
X195310000Y-79848967D01*
X195247168Y-79533088D01*
X195123918Y-79235537D01*
X194944987Y-78967748D01*
X194717252Y-78740013D01*
X194717233Y-78740000D01*
X194717252Y-78739987D01*
X194944987Y-78512252D01*
X195123918Y-78244463D01*
X195247168Y-77946912D01*
X195310000Y-77631033D01*
X195310000Y-77308967D01*
X195247168Y-76993088D01*
X195123918Y-76695537D01*
X194944987Y-76427748D01*
X194717252Y-76200013D01*
X194717233Y-76200000D01*
X194717252Y-76199987D01*
X194944987Y-75972252D01*
X195123918Y-75704463D01*
X195247168Y-75406912D01*
X195310000Y-75091033D01*
X195310000Y-74768967D01*
X195247168Y-74453088D01*
X195123918Y-74155537D01*
X194944987Y-73887748D01*
X194717252Y-73660013D01*
X194717233Y-73660000D01*
X194717252Y-73659987D01*
X194944987Y-73432252D01*
X195123918Y-73164463D01*
X195247168Y-72866912D01*
X195310000Y-72551033D01*
X195310000Y-72228967D01*
X195247168Y-71913088D01*
X195123918Y-71615537D01*
X194944987Y-71347748D01*
X194717252Y-71120013D01*
X194717233Y-71120000D01*
X194717252Y-71119987D01*
X194944987Y-70892252D01*
X195123918Y-70624463D01*
X195247168Y-70326912D01*
X195310000Y-70011033D01*
X195310000Y-69688967D01*
X195247168Y-69373088D01*
X195123918Y-69075537D01*
X194944987Y-68807748D01*
X194717252Y-68580013D01*
X194717233Y-68580000D01*
X194717252Y-68579987D01*
X194944987Y-68352252D01*
X195123918Y-68084463D01*
X195247168Y-67786912D01*
X195310000Y-67471033D01*
X195310000Y-67148967D01*
X195247168Y-66833088D01*
X195123918Y-66535537D01*
X194944987Y-66267748D01*
X194717252Y-66040013D01*
X194717233Y-66040000D01*
X194717252Y-66039987D01*
X194944987Y-65812252D01*
X195123918Y-65544463D01*
X195247168Y-65246912D01*
X195310000Y-64931033D01*
X195310000Y-64608967D01*
X195247168Y-64293088D01*
X195123918Y-63995537D01*
X194944987Y-63727748D01*
X194717252Y-63500013D01*
X194717233Y-63500000D01*
X194717252Y-63499987D01*
X194944987Y-63272252D01*
X195123918Y-63004463D01*
X195247168Y-62706912D01*
X195310000Y-62391033D01*
X195310000Y-62068967D01*
X195247168Y-61753088D01*
X195123918Y-61455537D01*
X194944987Y-61187748D01*
X194717252Y-60960013D01*
X194717233Y-60960000D01*
X194717252Y-60959987D01*
X194944987Y-60732252D01*
X195123918Y-60464463D01*
X195247168Y-60166912D01*
X195310000Y-59851033D01*
X195310000Y-59528967D01*
X195247168Y-59213088D01*
X195123918Y-58915537D01*
X194944987Y-58647748D01*
X194717252Y-58420013D01*
X194449463Y-58241082D01*
X194151912Y-58117832D01*
X193836033Y-58055000D01*
X193513967Y-58055000D01*
X193198088Y-58117832D01*
X192900537Y-58241082D01*
X192632748Y-58420013D01*
X192405013Y-58647748D01*
X192226082Y-58915537D01*
X192220920Y-58928000D01*
X191807422Y-58928000D01*
X191769999Y-58924314D01*
X191732576Y-58928000D01*
X191732574Y-58928000D01*
X191620622Y-58939026D01*
X191476985Y-58982598D01*
X191344608Y-59053355D01*
X191228578Y-59148578D01*
X191204721Y-59177648D01*
X184003649Y-66378721D01*
X183974579Y-66402578D01*
X183950722Y-66431648D01*
X183950721Y-66431649D01*
X183879355Y-66518608D01*
X183827678Y-66615291D01*
X183808599Y-66650985D01*
X183789202Y-66714928D01*
X183769000Y-66714928D01*
X183769000Y-66035660D01*
X183773300Y-65992000D01*
X183769000Y-65948340D01*
X183769000Y-65948333D01*
X183756136Y-65817726D01*
X183729072Y-65728506D01*
X183729072Y-65178000D01*
X183716812Y-65053518D01*
X183680502Y-64933820D01*
X183621537Y-64823506D01*
X183542185Y-64726815D01*
X183445494Y-64647463D01*
X183335180Y-64588498D01*
X183215482Y-64552188D01*
X183091000Y-64539928D01*
X182917702Y-64539928D01*
X185932353Y-61525278D01*
X185961422Y-61501422D01*
X185991876Y-61464314D01*
X186056645Y-61385393D01*
X186108723Y-61287961D01*
X186127402Y-61253015D01*
X186157350Y-61154291D01*
X186194463Y-61138918D01*
X186462252Y-60959987D01*
X186596826Y-60825413D01*
X187004192Y-60825413D01*
X187099956Y-61089814D01*
X187389571Y-61230704D01*
X187701108Y-61312384D01*
X188022595Y-61331718D01*
X188341675Y-61287961D01*
X188646088Y-61182795D01*
X188820044Y-61089814D01*
X188915808Y-60825413D01*
X187960000Y-59869605D01*
X187004192Y-60825413D01*
X186596826Y-60825413D01*
X186689987Y-60732252D01*
X186762720Y-60623400D01*
X186824587Y-60645808D01*
X187780395Y-59690000D01*
X188139605Y-59690000D01*
X189095413Y-60645808D01*
X189359814Y-60550044D01*
X189500704Y-60260429D01*
X189582384Y-59948892D01*
X189601718Y-59627405D01*
X189557961Y-59308325D01*
X189452795Y-59003912D01*
X189359814Y-58829956D01*
X189095413Y-58734192D01*
X188139605Y-59690000D01*
X187780395Y-59690000D01*
X186824587Y-58734192D01*
X186762720Y-58756600D01*
X186689987Y-58647748D01*
X186596826Y-58554587D01*
X187004192Y-58554587D01*
X187960000Y-59510395D01*
X188915808Y-58554587D01*
X188820044Y-58290186D01*
X188530429Y-58149296D01*
X188218892Y-58067616D01*
X187897405Y-58048282D01*
X187578325Y-58092039D01*
X187273912Y-58197205D01*
X187099956Y-58290186D01*
X187004192Y-58554587D01*
X186596826Y-58554587D01*
X186462252Y-58420013D01*
X186194463Y-58241082D01*
X185896912Y-58117832D01*
X185581033Y-58055000D01*
X185258967Y-58055000D01*
X184943088Y-58117832D01*
X184645537Y-58241082D01*
X184377748Y-58420013D01*
X184150013Y-58647748D01*
X184150000Y-58647767D01*
X184149987Y-58647748D01*
X183922252Y-58420013D01*
X183654463Y-58241082D01*
X183356912Y-58117832D01*
X183041033Y-58055000D01*
X182718967Y-58055000D01*
X182403088Y-58117832D01*
X182105537Y-58241082D01*
X181837748Y-58420013D01*
X181610013Y-58647748D01*
X181610000Y-58647767D01*
X181609987Y-58647748D01*
X181382252Y-58420013D01*
X181114463Y-58241082D01*
X180816912Y-58117832D01*
X180501033Y-58055000D01*
X180178967Y-58055000D01*
X179863088Y-58117832D01*
X179565537Y-58241082D01*
X179297748Y-58420013D01*
X179070013Y-58647748D01*
X179070000Y-58647767D01*
X179069987Y-58647748D01*
X178842252Y-58420013D01*
X178574463Y-58241082D01*
X178276912Y-58117832D01*
X177961033Y-58055000D01*
X177638967Y-58055000D01*
X177323088Y-58117832D01*
X177025537Y-58241082D01*
X176757748Y-58420013D01*
X176530013Y-58647748D01*
X176530000Y-58647767D01*
X176529987Y-58647748D01*
X176302252Y-58420013D01*
X176034463Y-58241082D01*
X175736912Y-58117832D01*
X175421033Y-58055000D01*
X175098967Y-58055000D01*
X174783088Y-58117832D01*
X174485537Y-58241082D01*
X174217748Y-58420013D01*
X173990013Y-58647748D01*
X173990000Y-58647767D01*
X173989987Y-58647748D01*
X173762252Y-58420013D01*
X173494463Y-58241082D01*
X173196912Y-58117832D01*
X172881033Y-58055000D01*
X172558967Y-58055000D01*
X172243088Y-58117832D01*
X171945537Y-58241082D01*
X171677748Y-58420013D01*
X171450013Y-58647748D01*
X171271082Y-58915537D01*
X171147832Y-59213088D01*
X171085000Y-59528967D01*
X171085000Y-59851033D01*
X171147832Y-60166912D01*
X171152994Y-60179375D01*
X170499370Y-60833000D01*
X170453920Y-60833000D01*
X170445472Y-60805149D01*
X170363405Y-60651613D01*
X170252962Y-60517038D01*
X170118387Y-60406595D01*
X169964851Y-60324528D01*
X169798255Y-60273992D01*
X169625001Y-60256928D01*
X168924999Y-60256928D01*
X168770484Y-60272146D01*
X169729198Y-59313433D01*
X169992743Y-59261011D01*
X170272095Y-59145299D01*
X170523505Y-58977312D01*
X170737312Y-58763505D01*
X170905299Y-58512095D01*
X171021011Y-58232743D01*
X171080000Y-57936184D01*
X171080000Y-57633816D01*
X171021011Y-57337257D01*
X170905299Y-57057905D01*
X170737312Y-56806495D01*
X170523505Y-56592688D01*
X170272095Y-56424701D01*
X169992743Y-56308989D01*
X169696184Y-56250000D01*
X169393816Y-56250000D01*
X169097257Y-56308989D01*
X168817905Y-56424701D01*
X168566495Y-56592688D01*
X168500056Y-56659127D01*
X168494502Y-56640820D01*
X168435537Y-56530506D01*
X168356185Y-56433815D01*
X168259494Y-56354463D01*
X168149180Y-56295498D01*
X168029482Y-56259188D01*
X167905000Y-56246928D01*
X167290750Y-56250000D01*
X167132000Y-56408750D01*
X167132000Y-57658000D01*
X167152000Y-57658000D01*
X167152000Y-57912000D01*
X167132000Y-57912000D01*
X167132000Y-59161250D01*
X167290750Y-59320000D01*
X167565993Y-59321377D01*
X166762649Y-60124721D01*
X166733579Y-60148578D01*
X166709722Y-60177648D01*
X166709721Y-60177649D01*
X166638355Y-60264608D01*
X166610426Y-60316860D01*
X166585149Y-60324528D01*
X166431613Y-60406595D01*
X166297038Y-60517038D01*
X166186595Y-60651613D01*
X166104528Y-60805149D01*
X166053992Y-60971745D01*
X166036928Y-61144999D01*
X166036928Y-62045001D01*
X166053992Y-62218255D01*
X166104528Y-62384851D01*
X166186595Y-62538387D01*
X166297038Y-62672962D01*
X166431613Y-62783405D01*
X166585149Y-62865472D01*
X166751745Y-62916008D01*
X166924999Y-62933072D01*
X167625001Y-62933072D01*
X167798255Y-62916008D01*
X167964851Y-62865472D01*
X168118387Y-62783405D01*
X168252962Y-62672962D01*
X168275000Y-62646109D01*
X168297038Y-62672962D01*
X168431613Y-62783405D01*
X168585149Y-62865472D01*
X168751745Y-62916008D01*
X168924999Y-62933072D01*
X169625001Y-62933072D01*
X169798255Y-62916008D01*
X169964851Y-62865472D01*
X170118387Y-62783405D01*
X170252962Y-62672962D01*
X170363405Y-62538387D01*
X170445472Y-62384851D01*
X170453920Y-62357000D01*
X170777577Y-62357000D01*
X170815000Y-62360686D01*
X170852423Y-62357000D01*
X170852426Y-62357000D01*
X170964378Y-62345974D01*
X171108015Y-62302402D01*
X171240392Y-62231645D01*
X171356422Y-62136422D01*
X171380284Y-62107346D01*
X172230625Y-61257006D01*
X172243088Y-61262168D01*
X172296830Y-61272858D01*
X175566971Y-64543000D01*
X175488998Y-64543000D01*
X175488998Y-64683166D01*
X175445494Y-64647463D01*
X175422333Y-64635083D01*
X175330250Y-64543000D01*
X175216663Y-64552546D01*
X175215482Y-64552188D01*
X175091000Y-64539928D01*
X174541000Y-64539928D01*
X174416518Y-64552188D01*
X174296820Y-64588498D01*
X174186506Y-64647463D01*
X174089815Y-64726815D01*
X174010463Y-64823506D01*
X173951498Y-64933820D01*
X173915188Y-65053518D01*
X173902928Y-65178000D01*
X173902928Y-65597510D01*
X173882248Y-65622709D01*
X173799698Y-65777148D01*
X173748864Y-65944726D01*
X173731700Y-66119000D01*
X173736001Y-66162670D01*
X173736001Y-66714928D01*
X172366000Y-66714928D01*
X172241518Y-66727188D01*
X172121820Y-66763498D01*
X172011506Y-66822463D01*
X171914815Y-66901815D01*
X171865247Y-66962214D01*
X170747797Y-65844764D01*
X170719957Y-65810841D01*
X170584589Y-65699747D01*
X170430149Y-65617197D01*
X170262572Y-65566364D01*
X170131965Y-65553500D01*
X170131958Y-65553500D01*
X170088298Y-65549200D01*
X170073389Y-65550668D01*
X170012962Y-65477038D01*
X170006406Y-65471658D01*
X170086185Y-65406185D01*
X170165537Y-65309494D01*
X170224502Y-65199180D01*
X170260812Y-65079482D01*
X170273072Y-64955000D01*
X170270000Y-64653250D01*
X170111250Y-64494500D01*
X169037000Y-64494500D01*
X169037000Y-64514500D01*
X168783000Y-64514500D01*
X168783000Y-64494500D01*
X167708750Y-64494500D01*
X167550000Y-64653250D01*
X167549602Y-64692367D01*
X166637235Y-63780000D01*
X167546928Y-63780000D01*
X167550000Y-64081750D01*
X167708750Y-64240500D01*
X168783000Y-64240500D01*
X168783000Y-63303750D01*
X169037000Y-63303750D01*
X169037000Y-64240500D01*
X170111250Y-64240500D01*
X170270000Y-64081750D01*
X170273072Y-63780000D01*
X170260812Y-63655518D01*
X170224502Y-63535820D01*
X170165537Y-63425506D01*
X170086185Y-63328815D01*
X169989494Y-63249463D01*
X169879180Y-63190498D01*
X169759482Y-63154188D01*
X169635000Y-63141928D01*
X169195750Y-63145000D01*
X169037000Y-63303750D01*
X168783000Y-63303750D01*
X168624250Y-63145000D01*
X168185000Y-63141928D01*
X168060518Y-63154188D01*
X167940820Y-63190498D01*
X167830506Y-63249463D01*
X167733815Y-63328815D01*
X167654463Y-63425506D01*
X167595498Y-63535820D01*
X167559188Y-63655518D01*
X167546928Y-63780000D01*
X166637235Y-63780000D01*
X164598867Y-61741632D01*
X164678224Y-61480031D01*
X164700000Y-61258935D01*
X164700000Y-60661064D01*
X164678224Y-60439968D01*
X164592166Y-60156275D01*
X164452417Y-59894821D01*
X164264345Y-59665655D01*
X164035178Y-59477583D01*
X163773724Y-59337834D01*
X163490031Y-59251776D01*
X163195000Y-59222718D01*
X162899968Y-59251776D01*
X162616275Y-59337834D01*
X162354821Y-59477583D01*
X162127615Y-59664047D01*
X162114502Y-59620820D01*
X162055537Y-59510506D01*
X161976185Y-59413815D01*
X161879494Y-59334463D01*
X161769180Y-59275498D01*
X161649482Y-59239188D01*
X161525000Y-59226928D01*
X160940750Y-59230000D01*
X160782000Y-59388750D01*
X160782000Y-60833000D01*
X160802000Y-60833000D01*
X160802000Y-61087000D01*
X160782000Y-61087000D01*
X160782000Y-62531250D01*
X160940750Y-62690000D01*
X161525000Y-62693072D01*
X161649482Y-62680812D01*
X161769180Y-62644502D01*
X161879494Y-62585537D01*
X161976185Y-62506185D01*
X162055537Y-62409494D01*
X162114502Y-62299180D01*
X162127615Y-62255953D01*
X162354822Y-62442417D01*
X162616276Y-62582166D01*
X162899969Y-62668224D01*
X163023118Y-62680353D01*
X167383001Y-67040236D01*
X167410841Y-67074159D01*
X167546209Y-67185253D01*
X167690796Y-67262536D01*
X167696595Y-67273386D01*
X167807038Y-67407962D01*
X167941614Y-67518405D01*
X168095150Y-67600472D01*
X168261746Y-67651008D01*
X168435000Y-67668072D01*
X169385000Y-67668072D01*
X169558254Y-67651008D01*
X169724850Y-67600472D01*
X169878386Y-67518405D01*
X169894084Y-67505522D01*
X170160861Y-67772298D01*
X170155226Y-67776063D01*
X170011063Y-67920226D01*
X169897795Y-68089744D01*
X169829203Y-68255338D01*
X169759482Y-68234188D01*
X169635000Y-68221928D01*
X169195750Y-68225000D01*
X169037000Y-68383750D01*
X169037000Y-69320500D01*
X169057000Y-69320500D01*
X169057000Y-69574500D01*
X169037000Y-69574500D01*
X169037000Y-69594500D01*
X168783000Y-69594500D01*
X168783000Y-69574500D01*
X167708750Y-69574500D01*
X167550000Y-69733250D01*
X167546928Y-70035000D01*
X167559188Y-70159482D01*
X167595498Y-70279180D01*
X167654463Y-70389494D01*
X167733815Y-70486185D01*
X167813594Y-70551658D01*
X167807038Y-70557038D01*
X167696595Y-70691614D01*
X167614528Y-70845150D01*
X167563992Y-71011746D01*
X167546928Y-71185000D01*
X167546928Y-71860000D01*
X167563992Y-72033254D01*
X167614528Y-72199850D01*
X167696595Y-72353386D01*
X167807038Y-72487962D01*
X167941614Y-72598405D01*
X168095150Y-72680472D01*
X168261746Y-72731008D01*
X168435000Y-72748072D01*
X169385000Y-72748072D01*
X169558254Y-72731008D01*
X169724850Y-72680472D01*
X169878386Y-72598405D01*
X170012962Y-72487962D01*
X170123405Y-72353386D01*
X170161294Y-72282500D01*
X171727928Y-72282500D01*
X171727928Y-72703000D01*
X171740188Y-72827482D01*
X171740345Y-72828000D01*
X171740188Y-72828518D01*
X171727928Y-72953000D01*
X171727928Y-73268000D01*
X171342412Y-73268000D01*
X171305089Y-73264324D01*
X171267766Y-73268000D01*
X171267756Y-73268000D01*
X171156103Y-73278997D01*
X171012842Y-73322454D01*
X170880813Y-73393026D01*
X170765088Y-73487999D01*
X170741290Y-73516997D01*
X168818288Y-75440000D01*
X164473178Y-75440000D01*
X164348475Y-75253368D01*
X164141632Y-75046525D01*
X163967240Y-74930000D01*
X164141632Y-74813475D01*
X164348475Y-74606632D01*
X164510990Y-74363411D01*
X164622932Y-74093158D01*
X164680000Y-73806260D01*
X164680000Y-73513740D01*
X164622932Y-73226842D01*
X164510990Y-72956589D01*
X164348475Y-72713368D01*
X164141632Y-72506525D01*
X163898411Y-72344010D01*
X163628158Y-72232068D01*
X163341260Y-72175000D01*
X163048740Y-72175000D01*
X162828592Y-72218790D01*
X161853804Y-71244003D01*
X161830001Y-71214999D01*
X161714276Y-71120026D01*
X161582247Y-71049454D01*
X161438986Y-71005997D01*
X161327333Y-70995000D01*
X161327322Y-70995000D01*
X161290000Y-70991324D01*
X161252678Y-70995000D01*
X160057322Y-70995000D01*
X160019999Y-70991324D01*
X159982676Y-70995000D01*
X159982667Y-70995000D01*
X159871014Y-71005997D01*
X159727753Y-71049454D01*
X159595724Y-71120026D01*
X159479999Y-71214999D01*
X159456201Y-71243997D01*
X158238998Y-72461201D01*
X158210000Y-72484999D01*
X158186202Y-72513997D01*
X158186201Y-72513998D01*
X158115026Y-72600724D01*
X158044454Y-72732754D01*
X158014180Y-72832558D01*
X158000998Y-72876014D01*
X157993191Y-72955279D01*
X157986324Y-73025000D01*
X156235000Y-73025000D01*
X156235000Y-68860000D01*
X167546928Y-68860000D01*
X167550000Y-69161750D01*
X167708750Y-69320500D01*
X168783000Y-69320500D01*
X168783000Y-68383750D01*
X168624250Y-68225000D01*
X168185000Y-68221928D01*
X168060518Y-68234188D01*
X167940820Y-68270498D01*
X167830506Y-68329463D01*
X167733815Y-68408815D01*
X167654463Y-68505506D01*
X167595498Y-68615820D01*
X167559188Y-68735518D01*
X167546928Y-68860000D01*
X156235000Y-68860000D01*
X156235000Y-62055000D01*
X159146928Y-62055000D01*
X159159188Y-62179482D01*
X159195498Y-62299180D01*
X159254463Y-62409494D01*
X159333815Y-62506185D01*
X159430506Y-62585537D01*
X159540820Y-62644502D01*
X159660518Y-62680812D01*
X159785000Y-62693072D01*
X160369250Y-62690000D01*
X160528000Y-62531250D01*
X160528000Y-61087000D01*
X159308750Y-61087000D01*
X159150000Y-61245750D01*
X159146928Y-62055000D01*
X156235000Y-62055000D01*
X156235000Y-59865000D01*
X159146928Y-59865000D01*
X159150000Y-60674250D01*
X159308750Y-60833000D01*
X160528000Y-60833000D01*
X160528000Y-59388750D01*
X160369250Y-59230000D01*
X159785000Y-59226928D01*
X159660518Y-59239188D01*
X159540820Y-59275498D01*
X159430506Y-59334463D01*
X159333815Y-59413815D01*
X159254463Y-59510506D01*
X159195498Y-59620820D01*
X159159188Y-59740518D01*
X159146928Y-59865000D01*
X156235000Y-59865000D01*
X156235000Y-58685000D01*
X165466928Y-58685000D01*
X165479188Y-58809482D01*
X165515498Y-58929180D01*
X165574463Y-59039494D01*
X165653815Y-59136185D01*
X165750506Y-59215537D01*
X165860820Y-59274502D01*
X165980518Y-59310812D01*
X166105000Y-59323072D01*
X166719250Y-59320000D01*
X166878000Y-59161250D01*
X166878000Y-57912000D01*
X165628750Y-57912000D01*
X165470000Y-58070750D01*
X165466928Y-58685000D01*
X156235000Y-58685000D01*
X156235000Y-56885000D01*
X165466928Y-56885000D01*
X165470000Y-57499250D01*
X165628750Y-57658000D01*
X166878000Y-57658000D01*
X166878000Y-56408750D01*
X166719250Y-56250000D01*
X166105000Y-56246928D01*
X165980518Y-56259188D01*
X165860820Y-56295498D01*
X165750506Y-56354463D01*
X165653815Y-56433815D01*
X165574463Y-56530506D01*
X165515498Y-56640820D01*
X165479188Y-56760518D01*
X165466928Y-56885000D01*
X156235000Y-56885000D01*
X156235000Y-54000000D01*
X200635001Y-54000000D01*
X200635000Y-100305000D01*
%TA.AperFunction,Conductor*%
D26*
G36*
X200635000Y-100305000D02*
G01*
X156235000Y-100305000D01*
X156235000Y-73025000D01*
X157986324Y-73025000D01*
X157990001Y-73062332D01*
X157990000Y-80607678D01*
X157986324Y-80645000D01*
X157990000Y-80682322D01*
X157990000Y-80682332D01*
X158000997Y-80793985D01*
X158034157Y-80903301D01*
X158044454Y-80937246D01*
X158115026Y-81069276D01*
X158141129Y-81101082D01*
X158209999Y-81185001D01*
X158239003Y-81208804D01*
X159260001Y-82229803D01*
X159260000Y-89895473D01*
X159230149Y-89904528D01*
X159076613Y-89986595D01*
X158942038Y-90097038D01*
X158831595Y-90231613D01*
X158749528Y-90385149D01*
X158698992Y-90551745D01*
X158681928Y-90724999D01*
X158681928Y-91425001D01*
X158698992Y-91598255D01*
X158749528Y-91764851D01*
X158831595Y-91918387D01*
X158942038Y-92052962D01*
X158968891Y-92075000D01*
X158942038Y-92097038D01*
X158831595Y-92231613D01*
X158749528Y-92385149D01*
X158698992Y-92551745D01*
X158681928Y-92724999D01*
X158681928Y-93425001D01*
X158698992Y-93598255D01*
X158749528Y-93764851D01*
X158831595Y-93918387D01*
X158942038Y-94052962D01*
X159076613Y-94163405D01*
X159230149Y-94245472D01*
X159396745Y-94296008D01*
X159569999Y-94313072D01*
X160470001Y-94313072D01*
X160643255Y-94296008D01*
X160809851Y-94245472D01*
X160963387Y-94163405D01*
X161097962Y-94052962D01*
X161208405Y-93918387D01*
X161251907Y-93837000D01*
X161956928Y-93837000D01*
X161956928Y-94175000D01*
X161969188Y-94299482D01*
X162005498Y-94419180D01*
X162064463Y-94529494D01*
X162143815Y-94626185D01*
X162240506Y-94705537D01*
X162350820Y-94764502D01*
X162470518Y-94800812D01*
X162595000Y-94813072D01*
X163795000Y-94813072D01*
X163919482Y-94800812D01*
X164039180Y-94764502D01*
X164149494Y-94705537D01*
X164246185Y-94626185D01*
X164256185Y-94614000D01*
X167651765Y-94614000D01*
X168312259Y-95274495D01*
X168312264Y-95274499D01*
X169177382Y-96139618D01*
X169100518Y-96147188D01*
X168980820Y-96183498D01*
X168870506Y-96242463D01*
X168773815Y-96321815D01*
X168694463Y-96418506D01*
X168635498Y-96528820D01*
X168599188Y-96648518D01*
X168586928Y-96773000D01*
X168586928Y-99273000D01*
X168599188Y-99397482D01*
X168635498Y-99517180D01*
X168694463Y-99627494D01*
X168773815Y-99724185D01*
X168870506Y-99803537D01*
X168980820Y-99862502D01*
X169100518Y-99898812D01*
X169225000Y-99911072D01*
X171225000Y-99911072D01*
X171349482Y-99898812D01*
X171469180Y-99862502D01*
X171579494Y-99803537D01*
X171676185Y-99724185D01*
X171755537Y-99627494D01*
X171814502Y-99517180D01*
X171850812Y-99397482D01*
X171863072Y-99273000D01*
X171863072Y-96916001D01*
X173867957Y-96916001D01*
X173888061Y-96920000D01*
X173986934Y-96920000D01*
X173990000Y-96920302D01*
X173993066Y-96920000D01*
X174091939Y-96920000D01*
X174112043Y-96916001D01*
X177386928Y-96916001D01*
X177386928Y-99273000D01*
X177399188Y-99397482D01*
X177435498Y-99517180D01*
X177494463Y-99627494D01*
X177573815Y-99724185D01*
X177670506Y-99803537D01*
X177780820Y-99862502D01*
X177900518Y-99898812D01*
X178025000Y-99911072D01*
X180025000Y-99911072D01*
X180149482Y-99898812D01*
X180269180Y-99862502D01*
X180379494Y-99803537D01*
X180476185Y-99724185D01*
X180555537Y-99627494D01*
X180614502Y-99517180D01*
X180650812Y-99397482D01*
X180663072Y-99273000D01*
X180663072Y-96916001D01*
X185062559Y-96916001D01*
X185106595Y-96998387D01*
X185217038Y-97132962D01*
X185351613Y-97243405D01*
X185505149Y-97325472D01*
X185671745Y-97376008D01*
X185844999Y-97393072D01*
X187535001Y-97393072D01*
X187708255Y-97376008D01*
X187874851Y-97325472D01*
X188028387Y-97243405D01*
X188162962Y-97132962D01*
X188273405Y-96998387D01*
X188355472Y-96844851D01*
X188406008Y-96678255D01*
X188423072Y-96505001D01*
X188423072Y-95264999D01*
X188406008Y-95091745D01*
X188355472Y-94925149D01*
X188273405Y-94771613D01*
X188162962Y-94637038D01*
X188028387Y-94526595D01*
X187918886Y-94468066D01*
X187984345Y-94414345D01*
X188172417Y-94185179D01*
X188312166Y-93923725D01*
X188398224Y-93640032D01*
X188427282Y-93345000D01*
X188398224Y-93049968D01*
X188312166Y-92766275D01*
X188172417Y-92504821D01*
X187984345Y-92275655D01*
X187755179Y-92087583D01*
X187731638Y-92075000D01*
X187755179Y-92062417D01*
X187984345Y-91874345D01*
X188172417Y-91645179D01*
X188312166Y-91383725D01*
X188398224Y-91100032D01*
X188427282Y-90805000D01*
X188398224Y-90509968D01*
X188312166Y-90226275D01*
X188172417Y-89964821D01*
X187984345Y-89735655D01*
X187755179Y-89547583D01*
X187726848Y-89532440D01*
X187867433Y-89439708D01*
X188078306Y-89231326D01*
X188244474Y-88985809D01*
X188359551Y-88712591D01*
X188376302Y-88625031D01*
X188255246Y-88392000D01*
X186817000Y-88392000D01*
X186817000Y-88412000D01*
X186563000Y-88412000D01*
X186563000Y-88392000D01*
X186543000Y-88392000D01*
X186543000Y-88138000D01*
X186563000Y-88138000D01*
X186563000Y-86914624D01*
X186817000Y-86914624D01*
X186817000Y-88138000D01*
X188255246Y-88138000D01*
X188376302Y-87904969D01*
X188359551Y-87817409D01*
X188244474Y-87544191D01*
X188078306Y-87298674D01*
X187867433Y-87090292D01*
X187619958Y-86927053D01*
X187345392Y-86815231D01*
X187054286Y-86759123D01*
X186817000Y-86914624D01*
X186563000Y-86914624D01*
X186325714Y-86759123D01*
X186034608Y-86815231D01*
X185760042Y-86927053D01*
X185547000Y-87067579D01*
X185547000Y-83754630D01*
X194485106Y-92692736D01*
X194481928Y-92724999D01*
X194481928Y-93965001D01*
X194498992Y-94138255D01*
X194549528Y-94304851D01*
X194631595Y-94458387D01*
X194742038Y-94592962D01*
X194876613Y-94703405D01*
X195030149Y-94785472D01*
X195196745Y-94836008D01*
X195369999Y-94853072D01*
X197060001Y-94853072D01*
X197233255Y-94836008D01*
X197399851Y-94785472D01*
X197553387Y-94703405D01*
X197687962Y-94592962D01*
X197798405Y-94458387D01*
X197880472Y-94304851D01*
X197931008Y-94138255D01*
X197948072Y-93965001D01*
X197948072Y-92724999D01*
X197931008Y-92551745D01*
X197880472Y-92385149D01*
X197798405Y-92231613D01*
X197687962Y-92097038D01*
X197553387Y-91986595D01*
X197443886Y-91928066D01*
X197509345Y-91874345D01*
X197697417Y-91645179D01*
X197837166Y-91383725D01*
X197923224Y-91100032D01*
X197952282Y-90805000D01*
X197923224Y-90509968D01*
X197837166Y-90226275D01*
X197697417Y-89964821D01*
X197509345Y-89735655D01*
X197280179Y-89547583D01*
X197251848Y-89532440D01*
X197392433Y-89439708D01*
X197603306Y-89231326D01*
X197769474Y-88985809D01*
X197884551Y-88712591D01*
X197901302Y-88625031D01*
X197780246Y-88392000D01*
X196342000Y-88392000D01*
X196342000Y-88412000D01*
X196088000Y-88412000D01*
X196088000Y-88392000D01*
X194649754Y-88392000D01*
X194528698Y-88625031D01*
X194545449Y-88712591D01*
X194660526Y-88985809D01*
X194826694Y-89231326D01*
X195037567Y-89439708D01*
X195178152Y-89532440D01*
X195149821Y-89547583D01*
X194920655Y-89735655D01*
X194815642Y-89863613D01*
X192856998Y-87904969D01*
X194528698Y-87904969D01*
X194649754Y-88138000D01*
X196088000Y-88138000D01*
X196088000Y-86914624D01*
X196342000Y-86914624D01*
X196342000Y-88138000D01*
X197780246Y-88138000D01*
X197901302Y-87904969D01*
X197884551Y-87817409D01*
X197769474Y-87544191D01*
X197603306Y-87298674D01*
X197392433Y-87090292D01*
X197144958Y-86927053D01*
X196870392Y-86815231D01*
X196579286Y-86759123D01*
X196342000Y-86914624D01*
X196088000Y-86914624D01*
X195850714Y-86759123D01*
X195559608Y-86815231D01*
X195285042Y-86927053D01*
X195037567Y-87090292D01*
X194826694Y-87298674D01*
X194660526Y-87544191D01*
X194545449Y-87817409D01*
X194528698Y-87904969D01*
X192856998Y-87904969D01*
X183508696Y-78556668D01*
X183542185Y-78529185D01*
X183621537Y-78432494D01*
X183680502Y-78322180D01*
X183716812Y-78202482D01*
X183724705Y-78122336D01*
X188664721Y-83062352D01*
X188688578Y-83091422D01*
X188804608Y-83186645D01*
X188936985Y-83257402D01*
X189080622Y-83300974D01*
X189192574Y-83312000D01*
X189192576Y-83312000D01*
X189229999Y-83315686D01*
X189267422Y-83312000D01*
X192220920Y-83312000D01*
X192226082Y-83324463D01*
X192405013Y-83592252D01*
X192632748Y-83819987D01*
X192900537Y-83998918D01*
X193198088Y-84122168D01*
X193513967Y-84185000D01*
X193836033Y-84185000D01*
X194151912Y-84122168D01*
X194449463Y-83998918D01*
X194717252Y-83819987D01*
X194944987Y-83592252D01*
X195123918Y-83324463D01*
X195247168Y-83026912D01*
X195310000Y-82711033D01*
X195310000Y-82388967D01*
X195247168Y-82073088D01*
X195123918Y-81775537D01*
X194944987Y-81507748D01*
X194717252Y-81280013D01*
X194717233Y-81280000D01*
X194717252Y-81279987D01*
X194944987Y-81052252D01*
X195123918Y-80784463D01*
X195247168Y-80486912D01*
X195310000Y-80171033D01*
X195310000Y-79848967D01*
X195247168Y-79533088D01*
X195123918Y-79235537D01*
X194944987Y-78967748D01*
X194717252Y-78740013D01*
X194717233Y-78740000D01*
X194717252Y-78739987D01*
X194944987Y-78512252D01*
X195123918Y-78244463D01*
X195247168Y-77946912D01*
X195310000Y-77631033D01*
X195310000Y-77308967D01*
X195247168Y-76993088D01*
X195123918Y-76695537D01*
X194944987Y-76427748D01*
X194717252Y-76200013D01*
X194717233Y-76200000D01*
X194717252Y-76199987D01*
X194944987Y-75972252D01*
X195123918Y-75704463D01*
X195247168Y-75406912D01*
X195310000Y-75091033D01*
X195310000Y-74768967D01*
X195247168Y-74453088D01*
X195123918Y-74155537D01*
X194944987Y-73887748D01*
X194717252Y-73660013D01*
X194717233Y-73660000D01*
X194717252Y-73659987D01*
X194944987Y-73432252D01*
X195123918Y-73164463D01*
X195247168Y-72866912D01*
X195310000Y-72551033D01*
X195310000Y-72228967D01*
X195247168Y-71913088D01*
X195123918Y-71615537D01*
X194944987Y-71347748D01*
X194717252Y-71120013D01*
X194717233Y-71120000D01*
X194717252Y-71119987D01*
X194944987Y-70892252D01*
X195123918Y-70624463D01*
X195247168Y-70326912D01*
X195310000Y-70011033D01*
X195310000Y-69688967D01*
X195247168Y-69373088D01*
X195123918Y-69075537D01*
X194944987Y-68807748D01*
X194717252Y-68580013D01*
X194717233Y-68580000D01*
X194717252Y-68579987D01*
X194944987Y-68352252D01*
X195123918Y-68084463D01*
X195247168Y-67786912D01*
X195310000Y-67471033D01*
X195310000Y-67148967D01*
X195247168Y-66833088D01*
X195123918Y-66535537D01*
X194944987Y-66267748D01*
X194717252Y-66040013D01*
X194717233Y-66040000D01*
X194717252Y-66039987D01*
X194944987Y-65812252D01*
X195123918Y-65544463D01*
X195247168Y-65246912D01*
X195310000Y-64931033D01*
X195310000Y-64608967D01*
X195247168Y-64293088D01*
X195123918Y-63995537D01*
X194944987Y-63727748D01*
X194717252Y-63500013D01*
X194717233Y-63500000D01*
X194717252Y-63499987D01*
X194944987Y-63272252D01*
X195123918Y-63004463D01*
X195247168Y-62706912D01*
X195310000Y-62391033D01*
X195310000Y-62068967D01*
X195247168Y-61753088D01*
X195123918Y-61455537D01*
X194944987Y-61187748D01*
X194717252Y-60960013D01*
X194717233Y-60960000D01*
X194717252Y-60959987D01*
X194944987Y-60732252D01*
X195123918Y-60464463D01*
X195247168Y-60166912D01*
X195310000Y-59851033D01*
X195310000Y-59528967D01*
X195247168Y-59213088D01*
X195123918Y-58915537D01*
X194944987Y-58647748D01*
X194717252Y-58420013D01*
X194449463Y-58241082D01*
X194151912Y-58117832D01*
X193836033Y-58055000D01*
X193513967Y-58055000D01*
X193198088Y-58117832D01*
X192900537Y-58241082D01*
X192632748Y-58420013D01*
X192405013Y-58647748D01*
X192226082Y-58915537D01*
X192220920Y-58928000D01*
X191807422Y-58928000D01*
X191769999Y-58924314D01*
X191732576Y-58928000D01*
X191732574Y-58928000D01*
X191620622Y-58939026D01*
X191476985Y-58982598D01*
X191344608Y-59053355D01*
X191228578Y-59148578D01*
X191204721Y-59177648D01*
X184003649Y-66378721D01*
X183974579Y-66402578D01*
X183950722Y-66431648D01*
X183950721Y-66431649D01*
X183879355Y-66518608D01*
X183827678Y-66615291D01*
X183808599Y-66650985D01*
X183789202Y-66714928D01*
X183769000Y-66714928D01*
X183769000Y-66035660D01*
X183773300Y-65992000D01*
X183769000Y-65948340D01*
X183769000Y-65948333D01*
X183756136Y-65817726D01*
X183729072Y-65728506D01*
X183729072Y-65178000D01*
X183716812Y-65053518D01*
X183680502Y-64933820D01*
X183621537Y-64823506D01*
X183542185Y-64726815D01*
X183445494Y-64647463D01*
X183335180Y-64588498D01*
X183215482Y-64552188D01*
X183091000Y-64539928D01*
X182917702Y-64539928D01*
X185932353Y-61525278D01*
X185961422Y-61501422D01*
X185991876Y-61464314D01*
X186056645Y-61385393D01*
X186108723Y-61287961D01*
X186127402Y-61253015D01*
X186157350Y-61154291D01*
X186194463Y-61138918D01*
X186462252Y-60959987D01*
X186596826Y-60825413D01*
X187004192Y-60825413D01*
X187099956Y-61089814D01*
X187389571Y-61230704D01*
X187701108Y-61312384D01*
X188022595Y-61331718D01*
X188341675Y-61287961D01*
X188646088Y-61182795D01*
X188820044Y-61089814D01*
X188915808Y-60825413D01*
X187960000Y-59869605D01*
X187004192Y-60825413D01*
X186596826Y-60825413D01*
X186689987Y-60732252D01*
X186762720Y-60623400D01*
X186824587Y-60645808D01*
X187780395Y-59690000D01*
X188139605Y-59690000D01*
X189095413Y-60645808D01*
X189359814Y-60550044D01*
X189500704Y-60260429D01*
X189582384Y-59948892D01*
X189601718Y-59627405D01*
X189557961Y-59308325D01*
X189452795Y-59003912D01*
X189359814Y-58829956D01*
X189095413Y-58734192D01*
X188139605Y-59690000D01*
X187780395Y-59690000D01*
X186824587Y-58734192D01*
X186762720Y-58756600D01*
X186689987Y-58647748D01*
X186596826Y-58554587D01*
X187004192Y-58554587D01*
X187960000Y-59510395D01*
X188915808Y-58554587D01*
X188820044Y-58290186D01*
X188530429Y-58149296D01*
X188218892Y-58067616D01*
X187897405Y-58048282D01*
X187578325Y-58092039D01*
X187273912Y-58197205D01*
X187099956Y-58290186D01*
X187004192Y-58554587D01*
X186596826Y-58554587D01*
X186462252Y-58420013D01*
X186194463Y-58241082D01*
X185896912Y-58117832D01*
X185581033Y-58055000D01*
X185258967Y-58055000D01*
X184943088Y-58117832D01*
X184645537Y-58241082D01*
X184377748Y-58420013D01*
X184150013Y-58647748D01*
X184150000Y-58647767D01*
X184149987Y-58647748D01*
X183922252Y-58420013D01*
X183654463Y-58241082D01*
X183356912Y-58117832D01*
X183041033Y-58055000D01*
X182718967Y-58055000D01*
X182403088Y-58117832D01*
X182105537Y-58241082D01*
X181837748Y-58420013D01*
X181610013Y-58647748D01*
X181610000Y-58647767D01*
X181609987Y-58647748D01*
X181382252Y-58420013D01*
X181114463Y-58241082D01*
X180816912Y-58117832D01*
X180501033Y-58055000D01*
X180178967Y-58055000D01*
X179863088Y-58117832D01*
X179565537Y-58241082D01*
X179297748Y-58420013D01*
X179070013Y-58647748D01*
X179070000Y-58647767D01*
X179069987Y-58647748D01*
X178842252Y-58420013D01*
X178574463Y-58241082D01*
X178276912Y-58117832D01*
X177961033Y-58055000D01*
X177638967Y-58055000D01*
X177323088Y-58117832D01*
X177025537Y-58241082D01*
X176757748Y-58420013D01*
X176530013Y-58647748D01*
X176530000Y-58647767D01*
X176529987Y-58647748D01*
X176302252Y-58420013D01*
X176034463Y-58241082D01*
X175736912Y-58117832D01*
X175421033Y-58055000D01*
X175098967Y-58055000D01*
X174783088Y-58117832D01*
X174485537Y-58241082D01*
X174217748Y-58420013D01*
X173990013Y-58647748D01*
X173990000Y-58647767D01*
X173989987Y-58647748D01*
X173762252Y-58420013D01*
X173494463Y-58241082D01*
X173196912Y-58117832D01*
X172881033Y-58055000D01*
X172558967Y-58055000D01*
X172243088Y-58117832D01*
X171945537Y-58241082D01*
X171677748Y-58420013D01*
X171450013Y-58647748D01*
X171271082Y-58915537D01*
X171147832Y-59213088D01*
X171085000Y-59528967D01*
X171085000Y-59851033D01*
X171147832Y-60166912D01*
X171152994Y-60179375D01*
X170499370Y-60833000D01*
X170453920Y-60833000D01*
X170445472Y-60805149D01*
X170363405Y-60651613D01*
X170252962Y-60517038D01*
X170118387Y-60406595D01*
X169964851Y-60324528D01*
X169798255Y-60273992D01*
X169625001Y-60256928D01*
X168924999Y-60256928D01*
X168770484Y-60272146D01*
X169729198Y-59313433D01*
X169992743Y-59261011D01*
X170272095Y-59145299D01*
X170523505Y-58977312D01*
X170737312Y-58763505D01*
X170905299Y-58512095D01*
X171021011Y-58232743D01*
X171080000Y-57936184D01*
X171080000Y-57633816D01*
X171021011Y-57337257D01*
X170905299Y-57057905D01*
X170737312Y-56806495D01*
X170523505Y-56592688D01*
X170272095Y-56424701D01*
X169992743Y-56308989D01*
X169696184Y-56250000D01*
X169393816Y-56250000D01*
X169097257Y-56308989D01*
X168817905Y-56424701D01*
X168566495Y-56592688D01*
X168500056Y-56659127D01*
X168494502Y-56640820D01*
X168435537Y-56530506D01*
X168356185Y-56433815D01*
X168259494Y-56354463D01*
X168149180Y-56295498D01*
X168029482Y-56259188D01*
X167905000Y-56246928D01*
X167290750Y-56250000D01*
X167132000Y-56408750D01*
X167132000Y-57658000D01*
X167152000Y-57658000D01*
X167152000Y-57912000D01*
X167132000Y-57912000D01*
X167132000Y-59161250D01*
X167290750Y-59320000D01*
X167565993Y-59321377D01*
X166762649Y-60124721D01*
X166733579Y-60148578D01*
X166709722Y-60177648D01*
X166709721Y-60177649D01*
X166638355Y-60264608D01*
X166610426Y-60316860D01*
X166585149Y-60324528D01*
X166431613Y-60406595D01*
X166297038Y-60517038D01*
X166186595Y-60651613D01*
X166104528Y-60805149D01*
X166053992Y-60971745D01*
X166036928Y-61144999D01*
X166036928Y-62045001D01*
X166053992Y-62218255D01*
X166104528Y-62384851D01*
X166186595Y-62538387D01*
X166297038Y-62672962D01*
X166431613Y-62783405D01*
X166585149Y-62865472D01*
X166751745Y-62916008D01*
X166924999Y-62933072D01*
X167625001Y-62933072D01*
X167798255Y-62916008D01*
X167964851Y-62865472D01*
X168118387Y-62783405D01*
X168252962Y-62672962D01*
X168275000Y-62646109D01*
X168297038Y-62672962D01*
X168431613Y-62783405D01*
X168585149Y-62865472D01*
X168751745Y-62916008D01*
X168924999Y-62933072D01*
X169625001Y-62933072D01*
X169798255Y-62916008D01*
X169964851Y-62865472D01*
X170118387Y-62783405D01*
X170252962Y-62672962D01*
X170363405Y-62538387D01*
X170445472Y-62384851D01*
X170453920Y-62357000D01*
X170777577Y-62357000D01*
X170815000Y-62360686D01*
X170852423Y-62357000D01*
X170852426Y-62357000D01*
X170964378Y-62345974D01*
X171108015Y-62302402D01*
X171240392Y-62231645D01*
X171356422Y-62136422D01*
X171380284Y-62107346D01*
X172230625Y-61257006D01*
X172243088Y-61262168D01*
X172296830Y-61272858D01*
X175566971Y-64543000D01*
X175488998Y-64543000D01*
X175488998Y-64683166D01*
X175445494Y-64647463D01*
X175422333Y-64635083D01*
X175330250Y-64543000D01*
X175216663Y-64552546D01*
X175215482Y-64552188D01*
X175091000Y-64539928D01*
X174541000Y-64539928D01*
X174416518Y-64552188D01*
X174296820Y-64588498D01*
X174186506Y-64647463D01*
X174089815Y-64726815D01*
X174010463Y-64823506D01*
X173951498Y-64933820D01*
X173915188Y-65053518D01*
X173902928Y-65178000D01*
X173902928Y-65597510D01*
X173882248Y-65622709D01*
X173799698Y-65777148D01*
X173748864Y-65944726D01*
X173731700Y-66119000D01*
X173736001Y-66162670D01*
X173736001Y-66714928D01*
X172366000Y-66714928D01*
X172241518Y-66727188D01*
X172121820Y-66763498D01*
X172011506Y-66822463D01*
X171914815Y-66901815D01*
X171865247Y-66962214D01*
X170747797Y-65844764D01*
X170719957Y-65810841D01*
X170584589Y-65699747D01*
X170430149Y-65617197D01*
X170262572Y-65566364D01*
X170131965Y-65553500D01*
X170131958Y-65553500D01*
X170088298Y-65549200D01*
X170073389Y-65550668D01*
X170012962Y-65477038D01*
X170006406Y-65471658D01*
X170086185Y-65406185D01*
X170165537Y-65309494D01*
X170224502Y-65199180D01*
X170260812Y-65079482D01*
X170273072Y-64955000D01*
X170270000Y-64653250D01*
X170111250Y-64494500D01*
X169037000Y-64494500D01*
X169037000Y-64514500D01*
X168783000Y-64514500D01*
X168783000Y-64494500D01*
X167708750Y-64494500D01*
X167550000Y-64653250D01*
X167549602Y-64692367D01*
X166637235Y-63780000D01*
X167546928Y-63780000D01*
X167550000Y-64081750D01*
X167708750Y-64240500D01*
X168783000Y-64240500D01*
X168783000Y-63303750D01*
X169037000Y-63303750D01*
X169037000Y-64240500D01*
X170111250Y-64240500D01*
X170270000Y-64081750D01*
X170273072Y-63780000D01*
X170260812Y-63655518D01*
X170224502Y-63535820D01*
X170165537Y-63425506D01*
X170086185Y-63328815D01*
X169989494Y-63249463D01*
X169879180Y-63190498D01*
X169759482Y-63154188D01*
X169635000Y-63141928D01*
X169195750Y-63145000D01*
X169037000Y-63303750D01*
X168783000Y-63303750D01*
X168624250Y-63145000D01*
X168185000Y-63141928D01*
X168060518Y-63154188D01*
X167940820Y-63190498D01*
X167830506Y-63249463D01*
X167733815Y-63328815D01*
X167654463Y-63425506D01*
X167595498Y-63535820D01*
X167559188Y-63655518D01*
X167546928Y-63780000D01*
X166637235Y-63780000D01*
X164598867Y-61741632D01*
X164678224Y-61480031D01*
X164700000Y-61258935D01*
X164700000Y-60661064D01*
X164678224Y-60439968D01*
X164592166Y-60156275D01*
X164452417Y-59894821D01*
X164264345Y-59665655D01*
X164035178Y-59477583D01*
X163773724Y-59337834D01*
X163490031Y-59251776D01*
X163195000Y-59222718D01*
X162899968Y-59251776D01*
X162616275Y-59337834D01*
X162354821Y-59477583D01*
X162127615Y-59664047D01*
X162114502Y-59620820D01*
X162055537Y-59510506D01*
X161976185Y-59413815D01*
X161879494Y-59334463D01*
X161769180Y-59275498D01*
X161649482Y-59239188D01*
X161525000Y-59226928D01*
X160940750Y-59230000D01*
X160782000Y-59388750D01*
X160782000Y-60833000D01*
X160802000Y-60833000D01*
X160802000Y-61087000D01*
X160782000Y-61087000D01*
X160782000Y-62531250D01*
X160940750Y-62690000D01*
X161525000Y-62693072D01*
X161649482Y-62680812D01*
X161769180Y-62644502D01*
X161879494Y-62585537D01*
X161976185Y-62506185D01*
X162055537Y-62409494D01*
X162114502Y-62299180D01*
X162127615Y-62255953D01*
X162354822Y-62442417D01*
X162616276Y-62582166D01*
X162899969Y-62668224D01*
X163023118Y-62680353D01*
X167383001Y-67040236D01*
X167410841Y-67074159D01*
X167546209Y-67185253D01*
X167690796Y-67262536D01*
X167696595Y-67273386D01*
X167807038Y-67407962D01*
X167941614Y-67518405D01*
X168095150Y-67600472D01*
X168261746Y-67651008D01*
X168435000Y-67668072D01*
X169385000Y-67668072D01*
X169558254Y-67651008D01*
X169724850Y-67600472D01*
X169878386Y-67518405D01*
X169894084Y-67505522D01*
X170160861Y-67772298D01*
X170155226Y-67776063D01*
X170011063Y-67920226D01*
X169897795Y-68089744D01*
X169829203Y-68255338D01*
X169759482Y-68234188D01*
X169635000Y-68221928D01*
X169195750Y-68225000D01*
X169037000Y-68383750D01*
X169037000Y-69320500D01*
X169057000Y-69320500D01*
X169057000Y-69574500D01*
X169037000Y-69574500D01*
X169037000Y-69594500D01*
X168783000Y-69594500D01*
X168783000Y-69574500D01*
X167708750Y-69574500D01*
X167550000Y-69733250D01*
X167546928Y-70035000D01*
X167559188Y-70159482D01*
X167595498Y-70279180D01*
X167654463Y-70389494D01*
X167733815Y-70486185D01*
X167813594Y-70551658D01*
X167807038Y-70557038D01*
X167696595Y-70691614D01*
X167614528Y-70845150D01*
X167563992Y-71011746D01*
X167546928Y-71185000D01*
X167546928Y-71860000D01*
X167563992Y-72033254D01*
X167614528Y-72199850D01*
X167696595Y-72353386D01*
X167807038Y-72487962D01*
X167941614Y-72598405D01*
X168095150Y-72680472D01*
X168261746Y-72731008D01*
X168435000Y-72748072D01*
X169385000Y-72748072D01*
X169558254Y-72731008D01*
X169724850Y-72680472D01*
X169878386Y-72598405D01*
X170012962Y-72487962D01*
X170123405Y-72353386D01*
X170161294Y-72282500D01*
X171727928Y-72282500D01*
X171727928Y-72703000D01*
X171740188Y-72827482D01*
X171740345Y-72828000D01*
X171740188Y-72828518D01*
X171727928Y-72953000D01*
X171727928Y-73268000D01*
X171342412Y-73268000D01*
X171305089Y-73264324D01*
X171267766Y-73268000D01*
X171267756Y-73268000D01*
X171156103Y-73278997D01*
X171012842Y-73322454D01*
X170880813Y-73393026D01*
X170765088Y-73487999D01*
X170741290Y-73516997D01*
X168818288Y-75440000D01*
X164473178Y-75440000D01*
X164348475Y-75253368D01*
X164141632Y-75046525D01*
X163967240Y-74930000D01*
X164141632Y-74813475D01*
X164348475Y-74606632D01*
X164510990Y-74363411D01*
X164622932Y-74093158D01*
X164680000Y-73806260D01*
X164680000Y-73513740D01*
X164622932Y-73226842D01*
X164510990Y-72956589D01*
X164348475Y-72713368D01*
X164141632Y-72506525D01*
X163898411Y-72344010D01*
X163628158Y-72232068D01*
X163341260Y-72175000D01*
X163048740Y-72175000D01*
X162828592Y-72218790D01*
X161853804Y-71244003D01*
X161830001Y-71214999D01*
X161714276Y-71120026D01*
X161582247Y-71049454D01*
X161438986Y-71005997D01*
X161327333Y-70995000D01*
X161327322Y-70995000D01*
X161290000Y-70991324D01*
X161252678Y-70995000D01*
X160057322Y-70995000D01*
X160019999Y-70991324D01*
X159982676Y-70995000D01*
X159982667Y-70995000D01*
X159871014Y-71005997D01*
X159727753Y-71049454D01*
X159595724Y-71120026D01*
X159479999Y-71214999D01*
X159456201Y-71243997D01*
X158238998Y-72461201D01*
X158210000Y-72484999D01*
X158186202Y-72513997D01*
X158186201Y-72513998D01*
X158115026Y-72600724D01*
X158044454Y-72732754D01*
X158014180Y-72832558D01*
X158000998Y-72876014D01*
X157993191Y-72955279D01*
X157986324Y-73025000D01*
X156235000Y-73025000D01*
X156235000Y-68860000D01*
X167546928Y-68860000D01*
X167550000Y-69161750D01*
X167708750Y-69320500D01*
X168783000Y-69320500D01*
X168783000Y-68383750D01*
X168624250Y-68225000D01*
X168185000Y-68221928D01*
X168060518Y-68234188D01*
X167940820Y-68270498D01*
X167830506Y-68329463D01*
X167733815Y-68408815D01*
X167654463Y-68505506D01*
X167595498Y-68615820D01*
X167559188Y-68735518D01*
X167546928Y-68860000D01*
X156235000Y-68860000D01*
X156235000Y-62055000D01*
X159146928Y-62055000D01*
X159159188Y-62179482D01*
X159195498Y-62299180D01*
X159254463Y-62409494D01*
X159333815Y-62506185D01*
X159430506Y-62585537D01*
X159540820Y-62644502D01*
X159660518Y-62680812D01*
X159785000Y-62693072D01*
X160369250Y-62690000D01*
X160528000Y-62531250D01*
X160528000Y-61087000D01*
X159308750Y-61087000D01*
X159150000Y-61245750D01*
X159146928Y-62055000D01*
X156235000Y-62055000D01*
X156235000Y-59865000D01*
X159146928Y-59865000D01*
X159150000Y-60674250D01*
X159308750Y-60833000D01*
X160528000Y-60833000D01*
X160528000Y-59388750D01*
X160369250Y-59230000D01*
X159785000Y-59226928D01*
X159660518Y-59239188D01*
X159540820Y-59275498D01*
X159430506Y-59334463D01*
X159333815Y-59413815D01*
X159254463Y-59510506D01*
X159195498Y-59620820D01*
X159159188Y-59740518D01*
X159146928Y-59865000D01*
X156235000Y-59865000D01*
X156235000Y-58685000D01*
X165466928Y-58685000D01*
X165479188Y-58809482D01*
X165515498Y-58929180D01*
X165574463Y-59039494D01*
X165653815Y-59136185D01*
X165750506Y-59215537D01*
X165860820Y-59274502D01*
X165980518Y-59310812D01*
X166105000Y-59323072D01*
X166719250Y-59320000D01*
X166878000Y-59161250D01*
X166878000Y-57912000D01*
X165628750Y-57912000D01*
X165470000Y-58070750D01*
X165466928Y-58685000D01*
X156235000Y-58685000D01*
X156235000Y-56885000D01*
X165466928Y-56885000D01*
X165470000Y-57499250D01*
X165628750Y-57658000D01*
X166878000Y-57658000D01*
X166878000Y-56408750D01*
X166719250Y-56250000D01*
X166105000Y-56246928D01*
X165980518Y-56259188D01*
X165860820Y-56295498D01*
X165750506Y-56354463D01*
X165653815Y-56433815D01*
X165574463Y-56530506D01*
X165515498Y-56640820D01*
X165479188Y-56760518D01*
X165466928Y-56885000D01*
X156235000Y-56885000D01*
X156235000Y-54000000D01*
X200635001Y-54000000D01*
X200635000Y-100305000D01*
G37*
%TD.AperFunction*%
D23*
X182753000Y-83500630D02*
X182753001Y-90132567D01*
X182749314Y-90170000D01*
X182764027Y-90319378D01*
X182807599Y-90463015D01*
X182878355Y-90595392D01*
X182927784Y-90655621D01*
X182973579Y-90711422D01*
X183002649Y-90735279D01*
X185059877Y-92792507D01*
X184981776Y-93049968D01*
X184952718Y-93345000D01*
X184981776Y-93640032D01*
X185067834Y-93923725D01*
X185207583Y-94185179D01*
X185395655Y-94414345D01*
X185461114Y-94468066D01*
X185351613Y-94526595D01*
X185217038Y-94637038D01*
X185106595Y-94771613D01*
X185024528Y-94925149D01*
X184973992Y-95091745D01*
X184969436Y-95138001D01*
X177910000Y-95138001D01*
X177910000Y-95016137D01*
X177868304Y-94806517D01*
X177786515Y-94609060D01*
X177667775Y-94431353D01*
X177516647Y-94280225D01*
X177338940Y-94161485D01*
X177141483Y-94079696D01*
X177041582Y-94059824D01*
X177066944Y-94011197D01*
X177102040Y-93891138D01*
X177113039Y-93766538D01*
X177110000Y-92808750D01*
X176951250Y-92650000D01*
X176348000Y-92650000D01*
X176348000Y-92670000D01*
X176313072Y-92670000D01*
X176313072Y-91273000D01*
X176300812Y-91148518D01*
X176264502Y-91028820D01*
X176205537Y-90918506D01*
X176126185Y-90821815D01*
X176102000Y-90801967D01*
X176102000Y-90796750D01*
X176348000Y-90796750D01*
X176348000Y-92396000D01*
X176951250Y-92396000D01*
X177110000Y-92237250D01*
X177113039Y-91279462D01*
X177112469Y-91273000D01*
X177386928Y-91273000D01*
X177386928Y-93773000D01*
X177399188Y-93897482D01*
X177435498Y-94017180D01*
X177494463Y-94127494D01*
X177573815Y-94224185D01*
X177670506Y-94303537D01*
X177780820Y-94362502D01*
X177900518Y-94398812D01*
X178025000Y-94411072D01*
X180025000Y-94411072D01*
X180149482Y-94398812D01*
X180269180Y-94362502D01*
X180379494Y-94303537D01*
X180476185Y-94224185D01*
X180555537Y-94127494D01*
X180614502Y-94017180D01*
X180650812Y-93897482D01*
X180663072Y-93773000D01*
X180663072Y-91273000D01*
X180650812Y-91148518D01*
X180614502Y-91028820D01*
X180555537Y-90918506D01*
X180476185Y-90821815D01*
X180379494Y-90742463D01*
X180269180Y-90683498D01*
X180149482Y-90647188D01*
X180025000Y-90634928D01*
X178025000Y-90634928D01*
X177900518Y-90647188D01*
X177780820Y-90683498D01*
X177670506Y-90742463D01*
X177573815Y-90821815D01*
X177494463Y-90918506D01*
X177435498Y-91028820D01*
X177399188Y-91148518D01*
X177386928Y-91273000D01*
X177112469Y-91273000D01*
X177102040Y-91154862D01*
X177066944Y-91034803D01*
X177009100Y-90923897D01*
X176930731Y-90826407D01*
X176834848Y-90746080D01*
X176725137Y-90686001D01*
X176605813Y-90648481D01*
X176506750Y-90638000D01*
X176348000Y-90796750D01*
X176102000Y-90796750D01*
X175943250Y-90638000D01*
X175844187Y-90648481D01*
X175824329Y-90654725D01*
X175799482Y-90647188D01*
X175675000Y-90634928D01*
X175387000Y-90634928D01*
X175387000Y-90207422D01*
X175390686Y-90169999D01*
X175386515Y-90127649D01*
X175375974Y-90020622D01*
X175332402Y-89876985D01*
X175261645Y-89744608D01*
X175193851Y-89662000D01*
X180975000Y-89662000D01*
X180999776Y-89659560D01*
X181023601Y-89652333D01*
X181045557Y-89640597D01*
X181064803Y-89624803D01*
X181080597Y-89605557D01*
X181092333Y-89583601D01*
X181099560Y-89559776D01*
X181102000Y-89535000D01*
X181102000Y-81849630D01*
X182753000Y-83500630D01*
%TA.AperFunction,Conductor*%
D26*
G36*
X182753000Y-83500630D02*
G01*
X182753001Y-90132567D01*
X182749314Y-90170000D01*
X182764027Y-90319378D01*
X182807599Y-90463015D01*
X182878355Y-90595392D01*
X182927784Y-90655621D01*
X182973579Y-90711422D01*
X183002649Y-90735279D01*
X185059877Y-92792507D01*
X184981776Y-93049968D01*
X184952718Y-93345000D01*
X184981776Y-93640032D01*
X185067834Y-93923725D01*
X185207583Y-94185179D01*
X185395655Y-94414345D01*
X185461114Y-94468066D01*
X185351613Y-94526595D01*
X185217038Y-94637038D01*
X185106595Y-94771613D01*
X185024528Y-94925149D01*
X184973992Y-95091745D01*
X184969436Y-95138001D01*
X177910000Y-95138001D01*
X177910000Y-95016137D01*
X177868304Y-94806517D01*
X177786515Y-94609060D01*
X177667775Y-94431353D01*
X177516647Y-94280225D01*
X177338940Y-94161485D01*
X177141483Y-94079696D01*
X177041582Y-94059824D01*
X177066944Y-94011197D01*
X177102040Y-93891138D01*
X177113039Y-93766538D01*
X177110000Y-92808750D01*
X176951250Y-92650000D01*
X176348000Y-92650000D01*
X176348000Y-92670000D01*
X176313072Y-92670000D01*
X176313072Y-91273000D01*
X176300812Y-91148518D01*
X176264502Y-91028820D01*
X176205537Y-90918506D01*
X176126185Y-90821815D01*
X176102000Y-90801967D01*
X176102000Y-90796750D01*
X176348000Y-90796750D01*
X176348000Y-92396000D01*
X176951250Y-92396000D01*
X177110000Y-92237250D01*
X177113039Y-91279462D01*
X177112469Y-91273000D01*
X177386928Y-91273000D01*
X177386928Y-93773000D01*
X177399188Y-93897482D01*
X177435498Y-94017180D01*
X177494463Y-94127494D01*
X177573815Y-94224185D01*
X177670506Y-94303537D01*
X177780820Y-94362502D01*
X177900518Y-94398812D01*
X178025000Y-94411072D01*
X180025000Y-94411072D01*
X180149482Y-94398812D01*
X180269180Y-94362502D01*
X180379494Y-94303537D01*
X180476185Y-94224185D01*
X180555537Y-94127494D01*
X180614502Y-94017180D01*
X180650812Y-93897482D01*
X180663072Y-93773000D01*
X180663072Y-91273000D01*
X180650812Y-91148518D01*
X180614502Y-91028820D01*
X180555537Y-90918506D01*
X180476185Y-90821815D01*
X180379494Y-90742463D01*
X180269180Y-90683498D01*
X180149482Y-90647188D01*
X180025000Y-90634928D01*
X178025000Y-90634928D01*
X177900518Y-90647188D01*
X177780820Y-90683498D01*
X177670506Y-90742463D01*
X177573815Y-90821815D01*
X177494463Y-90918506D01*
X177435498Y-91028820D01*
X177399188Y-91148518D01*
X177386928Y-91273000D01*
X177112469Y-91273000D01*
X177102040Y-91154862D01*
X177066944Y-91034803D01*
X177009100Y-90923897D01*
X176930731Y-90826407D01*
X176834848Y-90746080D01*
X176725137Y-90686001D01*
X176605813Y-90648481D01*
X176506750Y-90638000D01*
X176348000Y-90796750D01*
X176102000Y-90796750D01*
X175943250Y-90638000D01*
X175844187Y-90648481D01*
X175824329Y-90654725D01*
X175799482Y-90647188D01*
X175675000Y-90634928D01*
X175387000Y-90634928D01*
X175387000Y-90207422D01*
X175390686Y-90169999D01*
X175386515Y-90127649D01*
X175375974Y-90020622D01*
X175332402Y-89876985D01*
X175261645Y-89744608D01*
X175193851Y-89662000D01*
X180975000Y-89662000D01*
X180999776Y-89659560D01*
X181023601Y-89652333D01*
X181045557Y-89640597D01*
X181064803Y-89624803D01*
X181080597Y-89605557D01*
X181092333Y-89583601D01*
X181099560Y-89559776D01*
X181102000Y-89535000D01*
X181102000Y-81849630D01*
X182753000Y-83500630D01*
G37*
%TD.AperFunction*%
D23*
X190936716Y-80522346D02*
X190960578Y-80551422D01*
X191020512Y-80600608D01*
X191076607Y-80646645D01*
X191147364Y-80684465D01*
X191208985Y-80717402D01*
X191352622Y-80760974D01*
X191464574Y-80772000D01*
X191464577Y-80772000D01*
X191502000Y-80775686D01*
X191539423Y-80772000D01*
X192220920Y-80772000D01*
X192226082Y-80784463D01*
X192405013Y-81052252D01*
X192632748Y-81279987D01*
X192632767Y-81280000D01*
X192632748Y-81280013D01*
X192405013Y-81507748D01*
X192226082Y-81775537D01*
X192220920Y-81788000D01*
X189545631Y-81788000D01*
X184573284Y-76815654D01*
X184549422Y-76786578D01*
X184433392Y-76691355D01*
X184301015Y-76620598D01*
X184157378Y-76577026D01*
X184045426Y-76566000D01*
X184045423Y-76566000D01*
X184008000Y-76562314D01*
X183970577Y-76566000D01*
X183727890Y-76566000D01*
X183725028Y-76536936D01*
X183769213Y-76541064D01*
X184230250Y-76538000D01*
X184389000Y-76379250D01*
X184389000Y-75755000D01*
X184643000Y-75755000D01*
X184643000Y-76379250D01*
X184801750Y-76538000D01*
X185262787Y-76541064D01*
X185387329Y-76529430D01*
X185507208Y-76493724D01*
X185617818Y-76435316D01*
X185714908Y-76356451D01*
X185794746Y-76260161D01*
X185854265Y-76150145D01*
X185891177Y-76030631D01*
X185901000Y-75913750D01*
X185742250Y-75755000D01*
X184643000Y-75755000D01*
X184389000Y-75755000D01*
X184369000Y-75755000D01*
X184369000Y-75741072D01*
X185266000Y-75741072D01*
X185390482Y-75728812D01*
X185510180Y-75692502D01*
X185620494Y-75633537D01*
X185717185Y-75554185D01*
X185796537Y-75457494D01*
X185808917Y-75434333D01*
X185828810Y-75414440D01*
X190936716Y-80522346D01*
%TA.AperFunction,Conductor*%
D26*
G36*
X190936716Y-80522346D02*
G01*
X190960578Y-80551422D01*
X191020512Y-80600608D01*
X191076607Y-80646645D01*
X191147364Y-80684465D01*
X191208985Y-80717402D01*
X191352622Y-80760974D01*
X191464574Y-80772000D01*
X191464577Y-80772000D01*
X191502000Y-80775686D01*
X191539423Y-80772000D01*
X192220920Y-80772000D01*
X192226082Y-80784463D01*
X192405013Y-81052252D01*
X192632748Y-81279987D01*
X192632767Y-81280000D01*
X192632748Y-81280013D01*
X192405013Y-81507748D01*
X192226082Y-81775537D01*
X192220920Y-81788000D01*
X189545631Y-81788000D01*
X184573284Y-76815654D01*
X184549422Y-76786578D01*
X184433392Y-76691355D01*
X184301015Y-76620598D01*
X184157378Y-76577026D01*
X184045426Y-76566000D01*
X184045423Y-76566000D01*
X184008000Y-76562314D01*
X183970577Y-76566000D01*
X183727890Y-76566000D01*
X183725028Y-76536936D01*
X183769213Y-76541064D01*
X184230250Y-76538000D01*
X184389000Y-76379250D01*
X184389000Y-75755000D01*
X184643000Y-75755000D01*
X184643000Y-76379250D01*
X184801750Y-76538000D01*
X185262787Y-76541064D01*
X185387329Y-76529430D01*
X185507208Y-76493724D01*
X185617818Y-76435316D01*
X185714908Y-76356451D01*
X185794746Y-76260161D01*
X185854265Y-76150145D01*
X185891177Y-76030631D01*
X185901000Y-75913750D01*
X185742250Y-75755000D01*
X184643000Y-75755000D01*
X184389000Y-75755000D01*
X184369000Y-75755000D01*
X184369000Y-75741072D01*
X185266000Y-75741072D01*
X185390482Y-75728812D01*
X185510180Y-75692502D01*
X185620494Y-75633537D01*
X185717185Y-75554185D01*
X185796537Y-75457494D01*
X185808917Y-75434333D01*
X185828810Y-75414440D01*
X190936716Y-80522346D01*
G37*
%TD.AperFunction*%
D23*
X172241518Y-76528812D02*
X172366000Y-76541072D01*
X173866000Y-76541072D01*
X173906962Y-76537038D01*
X173902928Y-76578000D01*
X173902928Y-77978000D01*
X172720000Y-77978000D01*
X172695224Y-77980440D01*
X172671399Y-77987667D01*
X172649443Y-77999403D01*
X172630197Y-78015197D01*
X172614403Y-78034443D01*
X172602667Y-78056399D01*
X172595440Y-78080224D01*
X172593000Y-78105000D01*
X172593000Y-79248000D01*
X169479630Y-79248000D01*
X172208756Y-76518874D01*
X172241518Y-76528812D01*
%TA.AperFunction,Conductor*%
D26*
G36*
X172241518Y-76528812D02*
G01*
X172366000Y-76541072D01*
X173866000Y-76541072D01*
X173906962Y-76537038D01*
X173902928Y-76578000D01*
X173902928Y-77978000D01*
X172720000Y-77978000D01*
X172695224Y-77980440D01*
X172671399Y-77987667D01*
X172649443Y-77999403D01*
X172630197Y-78015197D01*
X172614403Y-78034443D01*
X172602667Y-78056399D01*
X172595440Y-78080224D01*
X172593000Y-78105000D01*
X172593000Y-79248000D01*
X169479630Y-79248000D01*
X172208756Y-76518874D01*
X172241518Y-76528812D01*
G37*
%TD.AperFunction*%
D23*
X175689815Y-67129185D02*
X175786506Y-67208537D01*
X175809667Y-67220917D01*
X175901750Y-67313000D01*
X176015337Y-67303454D01*
X176016518Y-67303812D01*
X176141000Y-67316072D01*
X176691000Y-67316072D01*
X176815482Y-67303812D01*
X176816000Y-67303655D01*
X176816518Y-67303812D01*
X176941000Y-67316072D01*
X177491000Y-67316072D01*
X177615482Y-67303812D01*
X177616000Y-67303655D01*
X177616518Y-67303812D01*
X177741000Y-67316072D01*
X178291000Y-67316072D01*
X178415482Y-67303812D01*
X178416000Y-67303655D01*
X178416518Y-67303812D01*
X178541000Y-67316072D01*
X179091000Y-67316072D01*
X179215482Y-67303812D01*
X179216000Y-67303655D01*
X179216518Y-67303812D01*
X179341000Y-67316072D01*
X179891000Y-67316072D01*
X180015482Y-67303812D01*
X180016000Y-67303655D01*
X180016518Y-67303812D01*
X180141000Y-67316072D01*
X180691000Y-67316072D01*
X180815482Y-67303812D01*
X180816000Y-67303655D01*
X180816518Y-67303812D01*
X180941000Y-67316072D01*
X181491000Y-67316072D01*
X181615482Y-67303812D01*
X181616663Y-67303454D01*
X181730250Y-67313000D01*
X181822333Y-67220917D01*
X181845494Y-67208537D01*
X181888998Y-67172834D01*
X181888998Y-67313000D01*
X181991001Y-67313000D01*
X181991000Y-74397532D01*
X181962795Y-74439744D01*
X181884774Y-74628102D01*
X181845000Y-74828061D01*
X181845000Y-75031939D01*
X181884774Y-75231898D01*
X181962795Y-75420256D01*
X182076063Y-75589774D01*
X182220226Y-75733937D01*
X182389744Y-75847205D01*
X182578102Y-75925226D01*
X182652015Y-75939928D01*
X182541000Y-75939928D01*
X182416518Y-75952188D01*
X182416000Y-75952345D01*
X182415482Y-75952188D01*
X182291000Y-75939928D01*
X181741000Y-75939928D01*
X181616518Y-75952188D01*
X181616000Y-75952345D01*
X181615482Y-75952188D01*
X181491000Y-75939928D01*
X180941000Y-75939928D01*
X180816518Y-75952188D01*
X180816000Y-75952345D01*
X180815482Y-75952188D01*
X180691000Y-75939928D01*
X180141000Y-75939928D01*
X180016518Y-75952188D01*
X180016000Y-75952345D01*
X180015482Y-75952188D01*
X179891000Y-75939928D01*
X179341000Y-75939928D01*
X179216518Y-75952188D01*
X179216000Y-75952345D01*
X179215482Y-75952188D01*
X179091000Y-75939928D01*
X178541000Y-75939928D01*
X178416518Y-75952188D01*
X178416000Y-75952345D01*
X178415482Y-75952188D01*
X178291000Y-75939928D01*
X177741000Y-75939928D01*
X177616518Y-75952188D01*
X177615337Y-75952546D01*
X177501750Y-75943000D01*
X177409667Y-76035083D01*
X177386506Y-76047463D01*
X177343002Y-76083166D01*
X177343002Y-75943000D01*
X177295216Y-75943000D01*
X177293051Y-75921015D01*
X177292136Y-75911724D01*
X177250881Y-75775724D01*
X177241303Y-75744149D01*
X177158753Y-75589709D01*
X177047659Y-75454341D01*
X177013731Y-75426497D01*
X176900131Y-75312896D01*
X176890226Y-75263102D01*
X176812205Y-75074744D01*
X176698937Y-74905226D01*
X176554774Y-74761063D01*
X176385256Y-74647795D01*
X176196898Y-74569774D01*
X175996939Y-74530000D01*
X175793061Y-74530000D01*
X175593102Y-74569774D01*
X175404744Y-74647795D01*
X175235226Y-74761063D01*
X175091063Y-74905226D01*
X174977795Y-75074744D01*
X174899774Y-75263102D01*
X174860000Y-75463061D01*
X174860000Y-75666939D01*
X174899774Y-75866898D01*
X174930024Y-75939928D01*
X174541000Y-75939928D01*
X174500038Y-75943962D01*
X174504072Y-75903000D01*
X174504072Y-75353000D01*
X174491812Y-75228518D01*
X174491655Y-75228000D01*
X174491812Y-75227482D01*
X174504072Y-75103000D01*
X174504072Y-74553000D01*
X174491812Y-74428518D01*
X174491655Y-74428000D01*
X174491812Y-74427482D01*
X174504072Y-74303000D01*
X174504072Y-73753000D01*
X174491812Y-73628518D01*
X174491655Y-73628000D01*
X174491812Y-73627482D01*
X174504072Y-73503000D01*
X174504072Y-73421223D01*
X174523061Y-73425000D01*
X174726939Y-73425000D01*
X174926898Y-73385226D01*
X175115256Y-73307205D01*
X175284774Y-73193937D01*
X175428937Y-73049774D01*
X175542205Y-72880256D01*
X175620226Y-72691898D01*
X175660000Y-72491939D01*
X175660000Y-72288061D01*
X175620226Y-72088102D01*
X175542205Y-71899744D01*
X175428937Y-71730226D01*
X175284774Y-71586063D01*
X175115256Y-71472795D01*
X174926898Y-71394774D01*
X174726939Y-71355000D01*
X174523061Y-71355000D01*
X174504072Y-71358777D01*
X174504072Y-71353000D01*
X174491812Y-71228518D01*
X174491454Y-71227337D01*
X174501000Y-71113750D01*
X174408917Y-71021667D01*
X174396537Y-70998506D01*
X174317185Y-70901815D01*
X174227241Y-70828000D01*
X174317185Y-70754185D01*
X174396537Y-70657494D01*
X174408917Y-70634333D01*
X174501000Y-70542250D01*
X174491454Y-70428663D01*
X174491812Y-70427482D01*
X174504072Y-70303000D01*
X174504072Y-69753000D01*
X174491812Y-69628518D01*
X174491655Y-69628000D01*
X174491812Y-69627482D01*
X174504072Y-69503000D01*
X174504072Y-69459223D01*
X174523061Y-69463000D01*
X174726939Y-69463000D01*
X174926898Y-69423226D01*
X175115256Y-69345205D01*
X175284774Y-69231937D01*
X175428937Y-69087774D01*
X175542205Y-68918256D01*
X175620226Y-68729898D01*
X175660000Y-68529939D01*
X175660000Y-68326061D01*
X175620226Y-68126102D01*
X175542205Y-67937744D01*
X175514000Y-67895532D01*
X175514000Y-67152316D01*
X175542185Y-67129185D01*
X175616000Y-67039241D01*
X175689815Y-67129185D01*
%TA.AperFunction,Conductor*%
D26*
G36*
X175689815Y-67129185D02*
G01*
X175786506Y-67208537D01*
X175809667Y-67220917D01*
X175901750Y-67313000D01*
X176015337Y-67303454D01*
X176016518Y-67303812D01*
X176141000Y-67316072D01*
X176691000Y-67316072D01*
X176815482Y-67303812D01*
X176816000Y-67303655D01*
X176816518Y-67303812D01*
X176941000Y-67316072D01*
X177491000Y-67316072D01*
X177615482Y-67303812D01*
X177616000Y-67303655D01*
X177616518Y-67303812D01*
X177741000Y-67316072D01*
X178291000Y-67316072D01*
X178415482Y-67303812D01*
X178416000Y-67303655D01*
X178416518Y-67303812D01*
X178541000Y-67316072D01*
X179091000Y-67316072D01*
X179215482Y-67303812D01*
X179216000Y-67303655D01*
X179216518Y-67303812D01*
X179341000Y-67316072D01*
X179891000Y-67316072D01*
X180015482Y-67303812D01*
X180016000Y-67303655D01*
X180016518Y-67303812D01*
X180141000Y-67316072D01*
X180691000Y-67316072D01*
X180815482Y-67303812D01*
X180816000Y-67303655D01*
X180816518Y-67303812D01*
X180941000Y-67316072D01*
X181491000Y-67316072D01*
X181615482Y-67303812D01*
X181616663Y-67303454D01*
X181730250Y-67313000D01*
X181822333Y-67220917D01*
X181845494Y-67208537D01*
X181888998Y-67172834D01*
X181888998Y-67313000D01*
X181991001Y-67313000D01*
X181991000Y-74397532D01*
X181962795Y-74439744D01*
X181884774Y-74628102D01*
X181845000Y-74828061D01*
X181845000Y-75031939D01*
X181884774Y-75231898D01*
X181962795Y-75420256D01*
X182076063Y-75589774D01*
X182220226Y-75733937D01*
X182389744Y-75847205D01*
X182578102Y-75925226D01*
X182652015Y-75939928D01*
X182541000Y-75939928D01*
X182416518Y-75952188D01*
X182416000Y-75952345D01*
X182415482Y-75952188D01*
X182291000Y-75939928D01*
X181741000Y-75939928D01*
X181616518Y-75952188D01*
X181616000Y-75952345D01*
X181615482Y-75952188D01*
X181491000Y-75939928D01*
X180941000Y-75939928D01*
X180816518Y-75952188D01*
X180816000Y-75952345D01*
X180815482Y-75952188D01*
X180691000Y-75939928D01*
X180141000Y-75939928D01*
X180016518Y-75952188D01*
X180016000Y-75952345D01*
X180015482Y-75952188D01*
X179891000Y-75939928D01*
X179341000Y-75939928D01*
X179216518Y-75952188D01*
X179216000Y-75952345D01*
X179215482Y-75952188D01*
X179091000Y-75939928D01*
X178541000Y-75939928D01*
X178416518Y-75952188D01*
X178416000Y-75952345D01*
X178415482Y-75952188D01*
X178291000Y-75939928D01*
X177741000Y-75939928D01*
X177616518Y-75952188D01*
X177615337Y-75952546D01*
X177501750Y-75943000D01*
X177409667Y-76035083D01*
X177386506Y-76047463D01*
X177343002Y-76083166D01*
X177343002Y-75943000D01*
X177295216Y-75943000D01*
X177293051Y-75921015D01*
X177292136Y-75911724D01*
X177250881Y-75775724D01*
X177241303Y-75744149D01*
X177158753Y-75589709D01*
X177047659Y-75454341D01*
X177013731Y-75426497D01*
X176900131Y-75312896D01*
X176890226Y-75263102D01*
X176812205Y-75074744D01*
X176698937Y-74905226D01*
X176554774Y-74761063D01*
X176385256Y-74647795D01*
X176196898Y-74569774D01*
X175996939Y-74530000D01*
X175793061Y-74530000D01*
X175593102Y-74569774D01*
X175404744Y-74647795D01*
X175235226Y-74761063D01*
X175091063Y-74905226D01*
X174977795Y-75074744D01*
X174899774Y-75263102D01*
X174860000Y-75463061D01*
X174860000Y-75666939D01*
X174899774Y-75866898D01*
X174930024Y-75939928D01*
X174541000Y-75939928D01*
X174500038Y-75943962D01*
X174504072Y-75903000D01*
X174504072Y-75353000D01*
X174491812Y-75228518D01*
X174491655Y-75228000D01*
X174491812Y-75227482D01*
X174504072Y-75103000D01*
X174504072Y-74553000D01*
X174491812Y-74428518D01*
X174491655Y-74428000D01*
X174491812Y-74427482D01*
X174504072Y-74303000D01*
X174504072Y-73753000D01*
X174491812Y-73628518D01*
X174491655Y-73628000D01*
X174491812Y-73627482D01*
X174504072Y-73503000D01*
X174504072Y-73421223D01*
X174523061Y-73425000D01*
X174726939Y-73425000D01*
X174926898Y-73385226D01*
X175115256Y-73307205D01*
X175284774Y-73193937D01*
X175428937Y-73049774D01*
X175542205Y-72880256D01*
X175620226Y-72691898D01*
X175660000Y-72491939D01*
X175660000Y-72288061D01*
X175620226Y-72088102D01*
X175542205Y-71899744D01*
X175428937Y-71730226D01*
X175284774Y-71586063D01*
X175115256Y-71472795D01*
X174926898Y-71394774D01*
X174726939Y-71355000D01*
X174523061Y-71355000D01*
X174504072Y-71358777D01*
X174504072Y-71353000D01*
X174491812Y-71228518D01*
X174491454Y-71227337D01*
X174501000Y-71113750D01*
X174408917Y-71021667D01*
X174396537Y-70998506D01*
X174317185Y-70901815D01*
X174227241Y-70828000D01*
X174317185Y-70754185D01*
X174396537Y-70657494D01*
X174408917Y-70634333D01*
X174501000Y-70542250D01*
X174491454Y-70428663D01*
X174491812Y-70427482D01*
X174504072Y-70303000D01*
X174504072Y-69753000D01*
X174491812Y-69628518D01*
X174491655Y-69628000D01*
X174491812Y-69627482D01*
X174504072Y-69503000D01*
X174504072Y-69459223D01*
X174523061Y-69463000D01*
X174726939Y-69463000D01*
X174926898Y-69423226D01*
X175115256Y-69345205D01*
X175284774Y-69231937D01*
X175428937Y-69087774D01*
X175542205Y-68918256D01*
X175620226Y-68729898D01*
X175660000Y-68529939D01*
X175660000Y-68326061D01*
X175620226Y-68126102D01*
X175542205Y-67937744D01*
X175514000Y-67895532D01*
X175514000Y-67152316D01*
X175542185Y-67129185D01*
X175616000Y-67039241D01*
X175689815Y-67129185D01*
G37*
%TD.AperFunction*%
D23*
X183133552Y-75944119D02*
X183102360Y-75941047D01*
X183132785Y-75934995D01*
X183133552Y-75944119D01*
%TA.AperFunction,Conductor*%
D26*
G36*
X183133552Y-75944119D02*
G01*
X183102360Y-75941047D01*
X183132785Y-75934995D01*
X183133552Y-75944119D01*
G37*
%TD.AperFunction*%
D23*
X160848748Y-73645858D02*
X160834605Y-73660000D01*
X160848748Y-73674143D01*
X160669143Y-73853748D01*
X160655000Y-73839605D01*
X160640858Y-73853748D01*
X160461253Y-73674143D01*
X160475395Y-73660000D01*
X160461253Y-73645858D01*
X160640858Y-73466253D01*
X160655000Y-73480395D01*
X160669143Y-73466253D01*
X160848748Y-73645858D01*
%TA.AperFunction,Conductor*%
D26*
G36*
X160848748Y-73645858D02*
G01*
X160834605Y-73660000D01*
X160848748Y-73674143D01*
X160669143Y-73853748D01*
X160655000Y-73839605D01*
X160640858Y-73853748D01*
X160461253Y-73674143D01*
X160475395Y-73660000D01*
X160461253Y-73645858D01*
X160640858Y-73466253D01*
X160655000Y-73480395D01*
X160669143Y-73466253D01*
X160848748Y-73645858D01*
G37*
%TD.AperFunction*%
%TD*%
D23*
%TO.N,GND*%
X185209580Y-79248000D02*
X183840818Y-79248000D01*
X183053661Y-78460843D01*
X183091000Y-78460843D01*
X183165689Y-78453487D01*
X183237508Y-78431701D01*
X183303696Y-78396322D01*
X183361711Y-78348711D01*
X183409322Y-78290696D01*
X183444701Y-78224508D01*
X183466487Y-78152689D01*
X183473843Y-78078000D01*
X183473843Y-77836000D01*
X183797580Y-77836000D01*
X185209580Y-79248000D01*
%TA.AperFunction,Conductor*%
D26*
G36*
X185209580Y-79248000D02*
G01*
X183840818Y-79248000D01*
X183053661Y-78460843D01*
X183091000Y-78460843D01*
X183165689Y-78453487D01*
X183237508Y-78431701D01*
X183303696Y-78396322D01*
X183361711Y-78348711D01*
X183409322Y-78290696D01*
X183444701Y-78224508D01*
X183466487Y-78152689D01*
X183473843Y-78078000D01*
X183473843Y-77836000D01*
X183797580Y-77836000D01*
X185209580Y-79248000D01*
G37*
%TD.AperFunction*%
D23*
X175928423Y-64545242D02*
X175901750Y-64543000D01*
X175743000Y-64701750D01*
X175743000Y-65801000D01*
X175758157Y-65801000D01*
X175758157Y-66055000D01*
X175743000Y-66055000D01*
X175743000Y-67154250D01*
X175901750Y-67313000D01*
X176018631Y-67303177D01*
X176138145Y-67266265D01*
X176248161Y-67206746D01*
X176344451Y-67126908D01*
X176398115Y-67060843D01*
X176691000Y-67060843D01*
X176765689Y-67053487D01*
X176816000Y-67038225D01*
X176866311Y-67053487D01*
X176941000Y-67060843D01*
X177491000Y-67060843D01*
X177565689Y-67053487D01*
X177616000Y-67038225D01*
X177666311Y-67053487D01*
X177741000Y-67060843D01*
X178291000Y-67060843D01*
X178365689Y-67053487D01*
X178416000Y-67038225D01*
X178466311Y-67053487D01*
X178541000Y-67060843D01*
X179091000Y-67060843D01*
X179165689Y-67053487D01*
X179216000Y-67038225D01*
X179266311Y-67053487D01*
X179341000Y-67060843D01*
X179891000Y-67060843D01*
X179965689Y-67053487D01*
X180016000Y-67038225D01*
X180066311Y-67053487D01*
X180141000Y-67060843D01*
X180691000Y-67060843D01*
X180765689Y-67053487D01*
X180816000Y-67038225D01*
X180866311Y-67053487D01*
X180941000Y-67060843D01*
X181233885Y-67060843D01*
X181287549Y-67126908D01*
X181383839Y-67206746D01*
X181493855Y-67266265D01*
X181613369Y-67303177D01*
X181730250Y-67313000D01*
X181889000Y-67154250D01*
X181889000Y-66055000D01*
X181873843Y-66055000D01*
X181873843Y-65801000D01*
X181889000Y-65801000D01*
X181889000Y-65781000D01*
X182143000Y-65781000D01*
X182143000Y-65801000D01*
X182158157Y-65801000D01*
X182158157Y-66055000D01*
X182143000Y-66055000D01*
X182143000Y-67154250D01*
X182245001Y-67256251D01*
X182245000Y-74474582D01*
X182187887Y-74560058D01*
X182129013Y-74702191D01*
X182099000Y-74853078D01*
X182099000Y-75006922D01*
X182129013Y-75157809D01*
X182187887Y-75299942D01*
X182273358Y-75427859D01*
X182382141Y-75536642D01*
X182510058Y-75622113D01*
X182652191Y-75680987D01*
X182803078Y-75711000D01*
X182956922Y-75711000D01*
X183107809Y-75680987D01*
X183131000Y-75671381D01*
X183131000Y-75755002D01*
X183289748Y-75755002D01*
X183131000Y-75913750D01*
X183140823Y-76030631D01*
X183177735Y-76150145D01*
X183213994Y-76217166D01*
X183165689Y-76202513D01*
X183091000Y-76195157D01*
X182541000Y-76195157D01*
X182466311Y-76202513D01*
X182416000Y-76217775D01*
X182365689Y-76202513D01*
X182291000Y-76195157D01*
X181741000Y-76195157D01*
X181666311Y-76202513D01*
X181616000Y-76217775D01*
X181565689Y-76202513D01*
X181491000Y-76195157D01*
X180941000Y-76195157D01*
X180866311Y-76202513D01*
X180816000Y-76217775D01*
X180765689Y-76202513D01*
X180691000Y-76195157D01*
X180141000Y-76195157D01*
X180066311Y-76202513D01*
X180016000Y-76217775D01*
X179965689Y-76202513D01*
X179891000Y-76195157D01*
X179341000Y-76195157D01*
X179266311Y-76202513D01*
X179216000Y-76217775D01*
X179165689Y-76202513D01*
X179091000Y-76195157D01*
X178541000Y-76195157D01*
X178466311Y-76202513D01*
X178416000Y-76217775D01*
X178365689Y-76202513D01*
X178291000Y-76195157D01*
X177998115Y-76195157D01*
X177944451Y-76129092D01*
X177848161Y-76049254D01*
X177738145Y-75989735D01*
X177618631Y-75952823D01*
X177501750Y-75943000D01*
X177343000Y-76101750D01*
X177343000Y-77201000D01*
X177358157Y-77201000D01*
X177358157Y-77455000D01*
X177343000Y-77455000D01*
X177343000Y-77475000D01*
X177089000Y-77475000D01*
X177089000Y-77455000D01*
X177073843Y-77455000D01*
X177073843Y-77201000D01*
X177089000Y-77201000D01*
X177089000Y-76101750D01*
X177051976Y-76064726D01*
X177051000Y-76054818D01*
X177051000Y-76054808D01*
X177041812Y-75961518D01*
X177005502Y-75841820D01*
X176959095Y-75755000D01*
X176946537Y-75731505D01*
X176887068Y-75659043D01*
X176867185Y-75634815D01*
X176842955Y-75614930D01*
X176666043Y-75438018D01*
X176645987Y-75337191D01*
X176587113Y-75195058D01*
X176501642Y-75067141D01*
X176392859Y-74958358D01*
X176264942Y-74872887D01*
X176122809Y-74814013D01*
X175971922Y-74784000D01*
X175818078Y-74784000D01*
X175667191Y-74814013D01*
X175525058Y-74872887D01*
X175397141Y-74958358D01*
X175288358Y-75067141D01*
X175202887Y-75195058D01*
X175144013Y-75337191D01*
X175114000Y-75488078D01*
X175114000Y-75641922D01*
X175144013Y-75792809D01*
X175202887Y-75934942D01*
X175288358Y-76062859D01*
X175397141Y-76171642D01*
X175432334Y-76195157D01*
X175341000Y-76195157D01*
X175266311Y-76202513D01*
X175216000Y-76217775D01*
X175165689Y-76202513D01*
X175091000Y-76195157D01*
X174541000Y-76195157D01*
X174466311Y-76202513D01*
X174394492Y-76224299D01*
X174328304Y-76259678D01*
X174270289Y-76307289D01*
X174222678Y-76365304D01*
X174187299Y-76431492D01*
X174165513Y-76503311D01*
X174158157Y-76578000D01*
X174158157Y-77978000D01*
X172720000Y-77978000D01*
X172695224Y-77980440D01*
X172671399Y-77987667D01*
X172649443Y-77999403D01*
X172630197Y-78015197D01*
X172614403Y-78034443D01*
X172602667Y-78056399D01*
X172595440Y-78080224D01*
X172593000Y-78105000D01*
X172593000Y-79248000D01*
X171577000Y-79248000D01*
X171577000Y-76791420D01*
X172149895Y-76218525D01*
X172153304Y-76221322D01*
X172219492Y-76256701D01*
X172291311Y-76278487D01*
X172366000Y-76285843D01*
X173866000Y-76285843D01*
X173940689Y-76278487D01*
X174012508Y-76256701D01*
X174078696Y-76221322D01*
X174136711Y-76173711D01*
X174184322Y-76115696D01*
X174219701Y-76049508D01*
X174241487Y-75977689D01*
X174248843Y-75903000D01*
X174248843Y-75353000D01*
X174241487Y-75278311D01*
X174226225Y-75228000D01*
X174241487Y-75177689D01*
X174248843Y-75103000D01*
X174248843Y-74553000D01*
X174241487Y-74478311D01*
X174226225Y-74428000D01*
X174241487Y-74377689D01*
X174248843Y-74303000D01*
X174248843Y-73753000D01*
X174241487Y-73678311D01*
X174226225Y-73628000D01*
X174241487Y-73577689D01*
X174248843Y-73503000D01*
X174248843Y-73077960D01*
X174255058Y-73082113D01*
X174397191Y-73140987D01*
X174548078Y-73171000D01*
X174701922Y-73171000D01*
X174852809Y-73140987D01*
X174994942Y-73082113D01*
X175122859Y-72996642D01*
X175231642Y-72887859D01*
X175317113Y-72759942D01*
X175375987Y-72617809D01*
X175406000Y-72466922D01*
X175406000Y-72313078D01*
X175375987Y-72162191D01*
X175317113Y-72020058D01*
X175231642Y-71892141D01*
X175122859Y-71783358D01*
X174994942Y-71697887D01*
X174852809Y-71639013D01*
X174701922Y-71609000D01*
X174548078Y-71609000D01*
X174397191Y-71639013D01*
X174255058Y-71697887D01*
X174248843Y-71702040D01*
X174248843Y-71610115D01*
X174314908Y-71556451D01*
X174394746Y-71460161D01*
X174454265Y-71350145D01*
X174491177Y-71230631D01*
X174501000Y-71113750D01*
X174342250Y-70955000D01*
X173243000Y-70955000D01*
X173243000Y-70970157D01*
X172989000Y-70970157D01*
X172989000Y-70955000D01*
X171889750Y-70955000D01*
X171828250Y-71016500D01*
X171577000Y-71016500D01*
X171577000Y-70621039D01*
X171677809Y-70600987D01*
X171756954Y-70568204D01*
X171889750Y-70701000D01*
X172989000Y-70701000D01*
X172989000Y-70685843D01*
X173243000Y-70685843D01*
X173243000Y-70701000D01*
X174342250Y-70701000D01*
X174501000Y-70542250D01*
X174491177Y-70425369D01*
X174454265Y-70305855D01*
X174394746Y-70195839D01*
X174314908Y-70099549D01*
X174248843Y-70045885D01*
X174248843Y-69753000D01*
X174241487Y-69678311D01*
X174226225Y-69628000D01*
X174241487Y-69577689D01*
X174248843Y-69503000D01*
X174248843Y-69115960D01*
X174255058Y-69120113D01*
X174397191Y-69178987D01*
X174548078Y-69209000D01*
X174701922Y-69209000D01*
X174852809Y-69178987D01*
X174994942Y-69120113D01*
X175122859Y-69034642D01*
X175231642Y-68925859D01*
X175317113Y-68797942D01*
X175375987Y-68655809D01*
X175406000Y-68504922D01*
X175406000Y-68351078D01*
X175375987Y-68200191D01*
X175317113Y-68058058D01*
X175260000Y-67972582D01*
X175260000Y-67307096D01*
X175330250Y-67313000D01*
X175489000Y-67154250D01*
X175489000Y-66055000D01*
X175473843Y-66055000D01*
X175473843Y-65801000D01*
X175489000Y-65801000D01*
X175489000Y-64701750D01*
X175330250Y-64543000D01*
X175213369Y-64552823D01*
X175093855Y-64589735D01*
X174983839Y-64649254D01*
X174887549Y-64729092D01*
X174833885Y-64795157D01*
X174541000Y-64795157D01*
X174466311Y-64802513D01*
X174394492Y-64824299D01*
X174328304Y-64859678D01*
X174270289Y-64907289D01*
X174222678Y-64965304D01*
X174187299Y-65031492D01*
X174165513Y-65103311D01*
X174158157Y-65178000D01*
X174158157Y-65686896D01*
X174153932Y-65692044D01*
X174094463Y-65764507D01*
X174035498Y-65874821D01*
X173999189Y-65994519D01*
X173986929Y-66119000D01*
X173990001Y-66150191D01*
X173990001Y-66992471D01*
X173940689Y-66977513D01*
X173866000Y-66970157D01*
X172366000Y-66970157D01*
X172291311Y-66977513D01*
X172219492Y-66999299D01*
X172153304Y-67034678D01*
X172095289Y-67082289D01*
X172047678Y-67140304D01*
X172012299Y-67206492D01*
X171990513Y-67278311D01*
X171983157Y-67353000D01*
X171983157Y-67439334D01*
X171577000Y-67033177D01*
X171577000Y-64262000D01*
X175645181Y-64262000D01*
X175928423Y-64545242D01*
%TA.AperFunction,Conductor*%
D26*
G36*
X175928423Y-64545242D02*
G01*
X175901750Y-64543000D01*
X175743000Y-64701750D01*
X175743000Y-65801000D01*
X175758157Y-65801000D01*
X175758157Y-66055000D01*
X175743000Y-66055000D01*
X175743000Y-67154250D01*
X175901750Y-67313000D01*
X176018631Y-67303177D01*
X176138145Y-67266265D01*
X176248161Y-67206746D01*
X176344451Y-67126908D01*
X176398115Y-67060843D01*
X176691000Y-67060843D01*
X176765689Y-67053487D01*
X176816000Y-67038225D01*
X176866311Y-67053487D01*
X176941000Y-67060843D01*
X177491000Y-67060843D01*
X177565689Y-67053487D01*
X177616000Y-67038225D01*
X177666311Y-67053487D01*
X177741000Y-67060843D01*
X178291000Y-67060843D01*
X178365689Y-67053487D01*
X178416000Y-67038225D01*
X178466311Y-67053487D01*
X178541000Y-67060843D01*
X179091000Y-67060843D01*
X179165689Y-67053487D01*
X179216000Y-67038225D01*
X179266311Y-67053487D01*
X179341000Y-67060843D01*
X179891000Y-67060843D01*
X179965689Y-67053487D01*
X180016000Y-67038225D01*
X180066311Y-67053487D01*
X180141000Y-67060843D01*
X180691000Y-67060843D01*
X180765689Y-67053487D01*
X180816000Y-67038225D01*
X180866311Y-67053487D01*
X180941000Y-67060843D01*
X181233885Y-67060843D01*
X181287549Y-67126908D01*
X181383839Y-67206746D01*
X181493855Y-67266265D01*
X181613369Y-67303177D01*
X181730250Y-67313000D01*
X181889000Y-67154250D01*
X181889000Y-66055000D01*
X181873843Y-66055000D01*
X181873843Y-65801000D01*
X181889000Y-65801000D01*
X181889000Y-65781000D01*
X182143000Y-65781000D01*
X182143000Y-65801000D01*
X182158157Y-65801000D01*
X182158157Y-66055000D01*
X182143000Y-66055000D01*
X182143000Y-67154250D01*
X182245001Y-67256251D01*
X182245000Y-74474582D01*
X182187887Y-74560058D01*
X182129013Y-74702191D01*
X182099000Y-74853078D01*
X182099000Y-75006922D01*
X182129013Y-75157809D01*
X182187887Y-75299942D01*
X182273358Y-75427859D01*
X182382141Y-75536642D01*
X182510058Y-75622113D01*
X182652191Y-75680987D01*
X182803078Y-75711000D01*
X182956922Y-75711000D01*
X183107809Y-75680987D01*
X183131000Y-75671381D01*
X183131000Y-75755002D01*
X183289748Y-75755002D01*
X183131000Y-75913750D01*
X183140823Y-76030631D01*
X183177735Y-76150145D01*
X183213994Y-76217166D01*
X183165689Y-76202513D01*
X183091000Y-76195157D01*
X182541000Y-76195157D01*
X182466311Y-76202513D01*
X182416000Y-76217775D01*
X182365689Y-76202513D01*
X182291000Y-76195157D01*
X181741000Y-76195157D01*
X181666311Y-76202513D01*
X181616000Y-76217775D01*
X181565689Y-76202513D01*
X181491000Y-76195157D01*
X180941000Y-76195157D01*
X180866311Y-76202513D01*
X180816000Y-76217775D01*
X180765689Y-76202513D01*
X180691000Y-76195157D01*
X180141000Y-76195157D01*
X180066311Y-76202513D01*
X180016000Y-76217775D01*
X179965689Y-76202513D01*
X179891000Y-76195157D01*
X179341000Y-76195157D01*
X179266311Y-76202513D01*
X179216000Y-76217775D01*
X179165689Y-76202513D01*
X179091000Y-76195157D01*
X178541000Y-76195157D01*
X178466311Y-76202513D01*
X178416000Y-76217775D01*
X178365689Y-76202513D01*
X178291000Y-76195157D01*
X177998115Y-76195157D01*
X177944451Y-76129092D01*
X177848161Y-76049254D01*
X177738145Y-75989735D01*
X177618631Y-75952823D01*
X177501750Y-75943000D01*
X177343000Y-76101750D01*
X177343000Y-77201000D01*
X177358157Y-77201000D01*
X177358157Y-77455000D01*
X177343000Y-77455000D01*
X177343000Y-77475000D01*
X177089000Y-77475000D01*
X177089000Y-77455000D01*
X177073843Y-77455000D01*
X177073843Y-77201000D01*
X177089000Y-77201000D01*
X177089000Y-76101750D01*
X177051976Y-76064726D01*
X177051000Y-76054818D01*
X177051000Y-76054808D01*
X177041812Y-75961518D01*
X177005502Y-75841820D01*
X176959095Y-75755000D01*
X176946537Y-75731505D01*
X176887068Y-75659043D01*
X176867185Y-75634815D01*
X176842955Y-75614930D01*
X176666043Y-75438018D01*
X176645987Y-75337191D01*
X176587113Y-75195058D01*
X176501642Y-75067141D01*
X176392859Y-74958358D01*
X176264942Y-74872887D01*
X176122809Y-74814013D01*
X175971922Y-74784000D01*
X175818078Y-74784000D01*
X175667191Y-74814013D01*
X175525058Y-74872887D01*
X175397141Y-74958358D01*
X175288358Y-75067141D01*
X175202887Y-75195058D01*
X175144013Y-75337191D01*
X175114000Y-75488078D01*
X175114000Y-75641922D01*
X175144013Y-75792809D01*
X175202887Y-75934942D01*
X175288358Y-76062859D01*
X175397141Y-76171642D01*
X175432334Y-76195157D01*
X175341000Y-76195157D01*
X175266311Y-76202513D01*
X175216000Y-76217775D01*
X175165689Y-76202513D01*
X175091000Y-76195157D01*
X174541000Y-76195157D01*
X174466311Y-76202513D01*
X174394492Y-76224299D01*
X174328304Y-76259678D01*
X174270289Y-76307289D01*
X174222678Y-76365304D01*
X174187299Y-76431492D01*
X174165513Y-76503311D01*
X174158157Y-76578000D01*
X174158157Y-77978000D01*
X172720000Y-77978000D01*
X172695224Y-77980440D01*
X172671399Y-77987667D01*
X172649443Y-77999403D01*
X172630197Y-78015197D01*
X172614403Y-78034443D01*
X172602667Y-78056399D01*
X172595440Y-78080224D01*
X172593000Y-78105000D01*
X172593000Y-79248000D01*
X171577000Y-79248000D01*
X171577000Y-76791420D01*
X172149895Y-76218525D01*
X172153304Y-76221322D01*
X172219492Y-76256701D01*
X172291311Y-76278487D01*
X172366000Y-76285843D01*
X173866000Y-76285843D01*
X173940689Y-76278487D01*
X174012508Y-76256701D01*
X174078696Y-76221322D01*
X174136711Y-76173711D01*
X174184322Y-76115696D01*
X174219701Y-76049508D01*
X174241487Y-75977689D01*
X174248843Y-75903000D01*
X174248843Y-75353000D01*
X174241487Y-75278311D01*
X174226225Y-75228000D01*
X174241487Y-75177689D01*
X174248843Y-75103000D01*
X174248843Y-74553000D01*
X174241487Y-74478311D01*
X174226225Y-74428000D01*
X174241487Y-74377689D01*
X174248843Y-74303000D01*
X174248843Y-73753000D01*
X174241487Y-73678311D01*
X174226225Y-73628000D01*
X174241487Y-73577689D01*
X174248843Y-73503000D01*
X174248843Y-73077960D01*
X174255058Y-73082113D01*
X174397191Y-73140987D01*
X174548078Y-73171000D01*
X174701922Y-73171000D01*
X174852809Y-73140987D01*
X174994942Y-73082113D01*
X175122859Y-72996642D01*
X175231642Y-72887859D01*
X175317113Y-72759942D01*
X175375987Y-72617809D01*
X175406000Y-72466922D01*
X175406000Y-72313078D01*
X175375987Y-72162191D01*
X175317113Y-72020058D01*
X175231642Y-71892141D01*
X175122859Y-71783358D01*
X174994942Y-71697887D01*
X174852809Y-71639013D01*
X174701922Y-71609000D01*
X174548078Y-71609000D01*
X174397191Y-71639013D01*
X174255058Y-71697887D01*
X174248843Y-71702040D01*
X174248843Y-71610115D01*
X174314908Y-71556451D01*
X174394746Y-71460161D01*
X174454265Y-71350145D01*
X174491177Y-71230631D01*
X174501000Y-71113750D01*
X174342250Y-70955000D01*
X173243000Y-70955000D01*
X173243000Y-70970157D01*
X172989000Y-70970157D01*
X172989000Y-70955000D01*
X171889750Y-70955000D01*
X171828250Y-71016500D01*
X171577000Y-71016500D01*
X171577000Y-70621039D01*
X171677809Y-70600987D01*
X171756954Y-70568204D01*
X171889750Y-70701000D01*
X172989000Y-70701000D01*
X172989000Y-70685843D01*
X173243000Y-70685843D01*
X173243000Y-70701000D01*
X174342250Y-70701000D01*
X174501000Y-70542250D01*
X174491177Y-70425369D01*
X174454265Y-70305855D01*
X174394746Y-70195839D01*
X174314908Y-70099549D01*
X174248843Y-70045885D01*
X174248843Y-69753000D01*
X174241487Y-69678311D01*
X174226225Y-69628000D01*
X174241487Y-69577689D01*
X174248843Y-69503000D01*
X174248843Y-69115960D01*
X174255058Y-69120113D01*
X174397191Y-69178987D01*
X174548078Y-69209000D01*
X174701922Y-69209000D01*
X174852809Y-69178987D01*
X174994942Y-69120113D01*
X175122859Y-69034642D01*
X175231642Y-68925859D01*
X175317113Y-68797942D01*
X175375987Y-68655809D01*
X175406000Y-68504922D01*
X175406000Y-68351078D01*
X175375987Y-68200191D01*
X175317113Y-68058058D01*
X175260000Y-67972582D01*
X175260000Y-67307096D01*
X175330250Y-67313000D01*
X175489000Y-67154250D01*
X175489000Y-66055000D01*
X175473843Y-66055000D01*
X175473843Y-65801000D01*
X175489000Y-65801000D01*
X175489000Y-64701750D01*
X175330250Y-64543000D01*
X175213369Y-64552823D01*
X175093855Y-64589735D01*
X174983839Y-64649254D01*
X174887549Y-64729092D01*
X174833885Y-64795157D01*
X174541000Y-64795157D01*
X174466311Y-64802513D01*
X174394492Y-64824299D01*
X174328304Y-64859678D01*
X174270289Y-64907289D01*
X174222678Y-64965304D01*
X174187299Y-65031492D01*
X174165513Y-65103311D01*
X174158157Y-65178000D01*
X174158157Y-65686896D01*
X174153932Y-65692044D01*
X174094463Y-65764507D01*
X174035498Y-65874821D01*
X173999189Y-65994519D01*
X173986929Y-66119000D01*
X173990001Y-66150191D01*
X173990001Y-66992471D01*
X173940689Y-66977513D01*
X173866000Y-66970157D01*
X172366000Y-66970157D01*
X172291311Y-66977513D01*
X172219492Y-66999299D01*
X172153304Y-67034678D01*
X172095289Y-67082289D01*
X172047678Y-67140304D01*
X172012299Y-67206492D01*
X171990513Y-67278311D01*
X171983157Y-67353000D01*
X171983157Y-67439334D01*
X171577000Y-67033177D01*
X171577000Y-64262000D01*
X175645181Y-64262000D01*
X175928423Y-64545242D01*
G37*
%TD.AperFunction*%
D23*
X185928000Y-75154420D02*
X185928000Y-78529580D01*
X184384855Y-76986435D01*
X184368948Y-76967052D01*
X184291595Y-76903571D01*
X184203343Y-76856399D01*
X184107585Y-76827351D01*
X184032947Y-76820000D01*
X184032944Y-76820000D01*
X184008000Y-76817543D01*
X183983056Y-76820000D01*
X183473843Y-76820000D01*
X183473843Y-76578000D01*
X183466487Y-76503311D01*
X183451903Y-76455235D01*
X183524792Y-76493724D01*
X183644671Y-76529430D01*
X183769213Y-76541064D01*
X184230250Y-76538000D01*
X184389000Y-76379250D01*
X184389000Y-75755000D01*
X184643000Y-75755000D01*
X184643000Y-76379250D01*
X184801750Y-76538000D01*
X185262787Y-76541064D01*
X185387329Y-76529430D01*
X185507208Y-76493724D01*
X185617818Y-76435316D01*
X185714908Y-76356451D01*
X185794746Y-76260161D01*
X185854265Y-76150145D01*
X185891177Y-76030631D01*
X185901000Y-75913750D01*
X185742250Y-75755000D01*
X184643000Y-75755000D01*
X184389000Y-75755000D01*
X184369000Y-75755000D01*
X184369000Y-75501000D01*
X184389000Y-75501000D01*
X184389000Y-75485843D01*
X184643000Y-75485843D01*
X184643000Y-75501000D01*
X185742250Y-75501000D01*
X185901000Y-75342250D01*
X185891177Y-75225369D01*
X185854265Y-75105855D01*
X185824598Y-75051018D01*
X185928000Y-75154420D01*
%TA.AperFunction,Conductor*%
D26*
G36*
X185928000Y-75154420D02*
G01*
X185928000Y-78529580D01*
X184384855Y-76986435D01*
X184368948Y-76967052D01*
X184291595Y-76903571D01*
X184203343Y-76856399D01*
X184107585Y-76827351D01*
X184032947Y-76820000D01*
X184032944Y-76820000D01*
X184008000Y-76817543D01*
X183983056Y-76820000D01*
X183473843Y-76820000D01*
X183473843Y-76578000D01*
X183466487Y-76503311D01*
X183451903Y-76455235D01*
X183524792Y-76493724D01*
X183644671Y-76529430D01*
X183769213Y-76541064D01*
X184230250Y-76538000D01*
X184389000Y-76379250D01*
X184389000Y-75755000D01*
X184643000Y-75755000D01*
X184643000Y-76379250D01*
X184801750Y-76538000D01*
X185262787Y-76541064D01*
X185387329Y-76529430D01*
X185507208Y-76493724D01*
X185617818Y-76435316D01*
X185714908Y-76356451D01*
X185794746Y-76260161D01*
X185854265Y-76150145D01*
X185891177Y-76030631D01*
X185901000Y-75913750D01*
X185742250Y-75755000D01*
X184643000Y-75755000D01*
X184389000Y-75755000D01*
X184369000Y-75755000D01*
X184369000Y-75501000D01*
X184389000Y-75501000D01*
X184389000Y-75485843D01*
X184643000Y-75485843D01*
X184643000Y-75501000D01*
X185742250Y-75501000D01*
X185901000Y-75342250D01*
X185891177Y-75225369D01*
X185854265Y-75105855D01*
X185824598Y-75051018D01*
X185928000Y-75154420D01*
G37*
%TD.AperFunction*%
D23*
X171833521Y-72050759D02*
X171921425Y-72097745D01*
X171986650Y-72117530D01*
X171983157Y-72153000D01*
X171983157Y-72703000D01*
X171990513Y-72777689D01*
X172005775Y-72828000D01*
X171990513Y-72878311D01*
X171983157Y-72953000D01*
X171983157Y-73503000D01*
X171985028Y-73522000D01*
X171577000Y-73522000D01*
X171577000Y-72028500D01*
X171806398Y-72028500D01*
X171833521Y-72050759D01*
%TA.AperFunction,Conductor*%
D26*
G36*
X171833521Y-72050759D02*
G01*
X171921425Y-72097745D01*
X171986650Y-72117530D01*
X171983157Y-72153000D01*
X171983157Y-72703000D01*
X171990513Y-72777689D01*
X172005775Y-72828000D01*
X171990513Y-72878311D01*
X171983157Y-72953000D01*
X171983157Y-73503000D01*
X171985028Y-73522000D01*
X171577000Y-73522000D01*
X171577000Y-72028500D01*
X171806398Y-72028500D01*
X171833521Y-72050759D01*
G37*
%TD.AperFunction*%
D23*
X185928000Y-64813580D02*
X184174430Y-66567150D01*
X184155053Y-66583052D01*
X184139151Y-66602429D01*
X184139150Y-66602430D01*
X184091571Y-66660405D01*
X184065863Y-66708502D01*
X184044400Y-66748657D01*
X184029738Y-66796993D01*
X184015352Y-66844416D01*
X184005543Y-66944000D01*
X184008001Y-66968954D01*
X184008001Y-66970157D01*
X183766000Y-66970157D01*
X183691311Y-66977513D01*
X183619492Y-66999299D01*
X183553304Y-67034678D01*
X183515000Y-67066113D01*
X183515000Y-66023189D01*
X183518072Y-65992000D01*
X183515000Y-65960808D01*
X183505812Y-65867518D01*
X183473843Y-65762130D01*
X183473843Y-65178000D01*
X183466487Y-65103311D01*
X183444701Y-65031492D01*
X183409322Y-64965304D01*
X183361711Y-64907289D01*
X183303696Y-64859678D01*
X183237508Y-64824299D01*
X183165689Y-64802513D01*
X183091000Y-64795157D01*
X182798115Y-64795157D01*
X182744451Y-64729092D01*
X182648161Y-64649254D01*
X182538145Y-64589735D01*
X182515637Y-64582783D01*
X182836420Y-64262000D01*
X185928000Y-64262000D01*
X185928000Y-64813580D01*
%TA.AperFunction,Conductor*%
D26*
G36*
X185928000Y-64813580D02*
G01*
X184174430Y-66567150D01*
X184155053Y-66583052D01*
X184139151Y-66602429D01*
X184139150Y-66602430D01*
X184091571Y-66660405D01*
X184065863Y-66708502D01*
X184044400Y-66748657D01*
X184029738Y-66796993D01*
X184015352Y-66844416D01*
X184005543Y-66944000D01*
X184008001Y-66968954D01*
X184008001Y-66970157D01*
X183766000Y-66970157D01*
X183691311Y-66977513D01*
X183619492Y-66999299D01*
X183553304Y-67034678D01*
X183515000Y-67066113D01*
X183515000Y-66023189D01*
X183518072Y-65992000D01*
X183515000Y-65960808D01*
X183505812Y-65867518D01*
X183473843Y-65762130D01*
X183473843Y-65178000D01*
X183466487Y-65103311D01*
X183444701Y-65031492D01*
X183409322Y-64965304D01*
X183361711Y-64907289D01*
X183303696Y-64859678D01*
X183237508Y-64824299D01*
X183165689Y-64802513D01*
X183091000Y-64795157D01*
X182798115Y-64795157D01*
X182744451Y-64729092D01*
X182648161Y-64649254D01*
X182538145Y-64589735D01*
X182515637Y-64582783D01*
X182836420Y-64262000D01*
X185928000Y-64262000D01*
X185928000Y-64813580D01*
G37*
%TD.AperFunction*%
%TD*%
M02*
