%TF.GenerationSoftware,KiCad,Pcbnew,5.1.10*%
%TF.CreationDate,2021-10-29T02:28:02-05:00*%
%TF.ProjectId,evan_atmega32u4,6576616e-5f61-4746-9d65-676133327534,rev?*%
%TF.SameCoordinates,Original*%
%TF.FileFunction,Soldermask,Bot*%
%TF.FilePolarity,Negative*%
%FSLAX46Y46*%
G04 Gerber Fmt 4.6, Leading zero omitted, Abs format (unit mm)*
G04 Created by KiCad (PCBNEW 5.1.10) date 2021-10-29 02:28:02*
%MOMM*%
%LPD*%
G01*
G04 APERTURE LIST*
%ADD10C,1.500000*%
%ADD11C,1.800000*%
%ADD12R,1.800000X1.800000*%
%ADD13C,2.000000*%
%ADD14O,2.190000X1.740000*%
%ADD15C,0.900000*%
%ADD16O,1.740000X2.190000*%
%ADD17C,1.700000*%
G04 APERTURE END LIST*
D10*
%TO.C,Y1*%
X174825000Y-81915000D03*
X179705000Y-81915000D03*
%TD*%
D11*
%TO.C,D2*%
X169545000Y-57785000D03*
D12*
X167005000Y-57785000D03*
%TD*%
D13*
%TO.C,PB1*%
X187960000Y-59690000D03*
%TD*%
D14*
%TO.C,J5*%
X186690000Y-88265000D03*
X186690000Y-90805000D03*
X186690000Y-93345000D03*
G36*
G01*
X187535001Y-96755000D02*
X185844999Y-96755000D01*
G75*
G02*
X185595000Y-96505001I0J249999D01*
G01*
X185595000Y-95264999D01*
G75*
G02*
X185844999Y-95015000I249999J0D01*
G01*
X187535001Y-95015000D01*
G75*
G02*
X187785000Y-95264999I0J-249999D01*
G01*
X187785000Y-96505001D01*
G75*
G02*
X187535001Y-96755000I-249999J0D01*
G01*
G37*
%TD*%
D13*
%TO.C,PF7*%
X185420000Y-59690000D03*
%TD*%
%TO.C,PF6*%
X182880000Y-59690000D03*
%TD*%
%TO.C,PF5*%
X180340000Y-59690000D03*
%TD*%
%TO.C,PF4*%
X177800000Y-59690000D03*
%TD*%
%TO.C,PF1*%
X175260000Y-59690000D03*
%TD*%
%TO.C,PF0*%
X172720000Y-59690000D03*
%TD*%
%TO.C,PE2*%
X193675000Y-59690000D03*
%TD*%
%TO.C,PD7*%
X193675000Y-74930000D03*
%TD*%
%TO.C,PD6*%
X193675000Y-77470000D03*
%TD*%
%TO.C,PD5*%
X193675000Y-82550000D03*
%TD*%
%TO.C,PD4*%
X193675000Y-80010000D03*
%TD*%
%TO.C,PC7*%
X193675000Y-62230000D03*
%TD*%
%TO.C,PC6*%
X193675000Y-64770000D03*
%TD*%
%TO.C,PB6*%
X193675000Y-67310000D03*
%TD*%
%TO.C,PB5*%
X193675000Y-69850000D03*
%TD*%
%TO.C,PB4*%
X193675000Y-72390000D03*
%TD*%
D15*
%TO.C,J1*%
X176825000Y-95123000D03*
X172425000Y-95123000D03*
%TD*%
D14*
%TO.C,J4*%
X196215000Y-88265000D03*
X196215000Y-90805000D03*
G36*
G01*
X197060001Y-94215000D02*
X195369999Y-94215000D01*
G75*
G02*
X195120000Y-93965001I0J249999D01*
G01*
X195120000Y-92724999D01*
G75*
G02*
X195369999Y-92475000I249999J0D01*
G01*
X197060001Y-92475000D01*
G75*
G02*
X197310000Y-92724999I0J-249999D01*
G01*
X197310000Y-93965001D01*
G75*
G02*
X197060001Y-94215000I-249999J0D01*
G01*
G37*
%TD*%
D16*
%TO.C,J3*%
X163195000Y-60960000D03*
G36*
G01*
X159785000Y-61805001D02*
X159785000Y-60114999D01*
G75*
G02*
X160034999Y-59865000I249999J0D01*
G01*
X161275001Y-59865000D01*
G75*
G02*
X161525000Y-60114999I0J-249999D01*
G01*
X161525000Y-61805001D01*
G75*
G02*
X161275001Y-62055000I-249999J0D01*
G01*
X160034999Y-62055000D01*
G75*
G02*
X159785000Y-61805001I0J249999D01*
G01*
G37*
%TD*%
D17*
%TO.C,J2*%
X160655000Y-73660000D03*
X160655000Y-76200000D03*
X160655000Y-78740000D03*
X163195000Y-73660000D03*
X163195000Y-76200000D03*
G36*
G01*
X164045000Y-78140000D02*
X164045000Y-79340000D01*
G75*
G02*
X163795000Y-79590000I-250000J0D01*
G01*
X162595000Y-79590000D01*
G75*
G02*
X162345000Y-79340000I0J250000D01*
G01*
X162345000Y-78140000D01*
G75*
G02*
X162595000Y-77890000I250000J0D01*
G01*
X163795000Y-77890000D01*
G75*
G02*
X164045000Y-78140000I0J-250000D01*
G01*
G37*
%TD*%
M02*
