%TF.GenerationSoftware,KiCad,Pcbnew,5.1.10*%
%TF.CreationDate,2021-10-29T02:28:02-05:00*%
%TF.ProjectId,evan_atmega32u4,6576616e-5f61-4746-9d65-676133327534,rev?*%
%TF.SameCoordinates,Original*%
%TF.FileFunction,Legend,Top*%
%TF.FilePolarity,Positive*%
%FSLAX46Y46*%
G04 Gerber Fmt 4.6, Leading zero omitted, Abs format (unit mm)*
G04 Created by KiCad (PCBNEW 5.1.10) date 2021-10-29 02:28:02*
%MOMM*%
%LPD*%
G01*
G04 APERTURE LIST*
%ADD10C,0.150000*%
%ADD11C,0.120000*%
G04 APERTURE END LIST*
D10*
X182662285Y-98540500D02*
X183025142Y-98540500D01*
X182589714Y-98758214D02*
X182843714Y-97996214D01*
X183097714Y-98758214D01*
X183242857Y-97996214D02*
X183678285Y-97996214D01*
X183460571Y-98758214D02*
X183460571Y-97996214D01*
X183932285Y-98758214D02*
X183932285Y-98250214D01*
X183932285Y-98322785D02*
X183968571Y-98286500D01*
X184041142Y-98250214D01*
X184150000Y-98250214D01*
X184222571Y-98286500D01*
X184258857Y-98359071D01*
X184258857Y-98758214D01*
X184258857Y-98359071D02*
X184295142Y-98286500D01*
X184367714Y-98250214D01*
X184476571Y-98250214D01*
X184549142Y-98286500D01*
X184585428Y-98359071D01*
X184585428Y-98758214D01*
X185238571Y-98721928D02*
X185166000Y-98758214D01*
X185020857Y-98758214D01*
X184948285Y-98721928D01*
X184912000Y-98649357D01*
X184912000Y-98359071D01*
X184948285Y-98286500D01*
X185020857Y-98250214D01*
X185166000Y-98250214D01*
X185238571Y-98286500D01*
X185274857Y-98359071D01*
X185274857Y-98431642D01*
X184912000Y-98504214D01*
X185928000Y-98250214D02*
X185928000Y-98867071D01*
X185891714Y-98939642D01*
X185855428Y-98975928D01*
X185782857Y-99012214D01*
X185674000Y-99012214D01*
X185601428Y-98975928D01*
X185928000Y-98721928D02*
X185855428Y-98758214D01*
X185710285Y-98758214D01*
X185637714Y-98721928D01*
X185601428Y-98685642D01*
X185565142Y-98613071D01*
X185565142Y-98395357D01*
X185601428Y-98322785D01*
X185637714Y-98286500D01*
X185710285Y-98250214D01*
X185855428Y-98250214D01*
X185928000Y-98286500D01*
X186617428Y-98758214D02*
X186617428Y-98359071D01*
X186581142Y-98286500D01*
X186508571Y-98250214D01*
X186363428Y-98250214D01*
X186290857Y-98286500D01*
X186617428Y-98721928D02*
X186544857Y-98758214D01*
X186363428Y-98758214D01*
X186290857Y-98721928D01*
X186254571Y-98649357D01*
X186254571Y-98576785D01*
X186290857Y-98504214D01*
X186363428Y-98467928D01*
X186544857Y-98467928D01*
X186617428Y-98431642D01*
X186907714Y-97996214D02*
X187379428Y-97996214D01*
X187125428Y-98286500D01*
X187234285Y-98286500D01*
X187306857Y-98322785D01*
X187343142Y-98359071D01*
X187379428Y-98431642D01*
X187379428Y-98613071D01*
X187343142Y-98685642D01*
X187306857Y-98721928D01*
X187234285Y-98758214D01*
X187016571Y-98758214D01*
X186944000Y-98721928D01*
X186907714Y-98685642D01*
X187669714Y-98068785D02*
X187706000Y-98032500D01*
X187778571Y-97996214D01*
X187960000Y-97996214D01*
X188032571Y-98032500D01*
X188068857Y-98068785D01*
X188105142Y-98141357D01*
X188105142Y-98213928D01*
X188068857Y-98322785D01*
X187633428Y-98758214D01*
X188105142Y-98758214D01*
X188431714Y-97996214D02*
X188431714Y-98613071D01*
X188468000Y-98685642D01*
X188504285Y-98721928D01*
X188576857Y-98758214D01*
X188722000Y-98758214D01*
X188794571Y-98721928D01*
X188830857Y-98685642D01*
X188867142Y-98613071D01*
X188867142Y-97996214D01*
X189556571Y-98250214D02*
X189556571Y-98758214D01*
X189375142Y-97959928D02*
X189193714Y-98504214D01*
X189665428Y-98504214D01*
X190427428Y-97996214D02*
X190862857Y-97996214D01*
X190645142Y-98758214D02*
X190645142Y-97996214D01*
X191407142Y-98721928D02*
X191334571Y-98758214D01*
X191189428Y-98758214D01*
X191116857Y-98721928D01*
X191080571Y-98649357D01*
X191080571Y-98359071D01*
X191116857Y-98286500D01*
X191189428Y-98250214D01*
X191334571Y-98250214D01*
X191407142Y-98286500D01*
X191443428Y-98359071D01*
X191443428Y-98431642D01*
X191080571Y-98504214D01*
X191733714Y-98721928D02*
X191806285Y-98758214D01*
X191951428Y-98758214D01*
X192024000Y-98721928D01*
X192060285Y-98649357D01*
X192060285Y-98613071D01*
X192024000Y-98540500D01*
X191951428Y-98504214D01*
X191842571Y-98504214D01*
X191770000Y-98467928D01*
X191733714Y-98395357D01*
X191733714Y-98359071D01*
X191770000Y-98286500D01*
X191842571Y-98250214D01*
X191951428Y-98250214D01*
X192024000Y-98286500D01*
X192278000Y-98250214D02*
X192568285Y-98250214D01*
X192386857Y-97996214D02*
X192386857Y-98649357D01*
X192423142Y-98721928D01*
X192495714Y-98758214D01*
X192568285Y-98758214D01*
X193656857Y-98359071D02*
X193765714Y-98395357D01*
X193802000Y-98431642D01*
X193838285Y-98504214D01*
X193838285Y-98613071D01*
X193802000Y-98685642D01*
X193765714Y-98721928D01*
X193693142Y-98758214D01*
X193402857Y-98758214D01*
X193402857Y-97996214D01*
X193656857Y-97996214D01*
X193729428Y-98032500D01*
X193765714Y-98068785D01*
X193802000Y-98141357D01*
X193802000Y-98213928D01*
X193765714Y-98286500D01*
X193729428Y-98322785D01*
X193656857Y-98359071D01*
X193402857Y-98359071D01*
X194273714Y-98758214D02*
X194201142Y-98721928D01*
X194164857Y-98685642D01*
X194128571Y-98613071D01*
X194128571Y-98395357D01*
X194164857Y-98322785D01*
X194201142Y-98286500D01*
X194273714Y-98250214D01*
X194382571Y-98250214D01*
X194455142Y-98286500D01*
X194491428Y-98322785D01*
X194527714Y-98395357D01*
X194527714Y-98613071D01*
X194491428Y-98685642D01*
X194455142Y-98721928D01*
X194382571Y-98758214D01*
X194273714Y-98758214D01*
X195180857Y-98758214D02*
X195180857Y-98359071D01*
X195144571Y-98286500D01*
X195072000Y-98250214D01*
X194926857Y-98250214D01*
X194854285Y-98286500D01*
X195180857Y-98721928D02*
X195108285Y-98758214D01*
X194926857Y-98758214D01*
X194854285Y-98721928D01*
X194818000Y-98649357D01*
X194818000Y-98576785D01*
X194854285Y-98504214D01*
X194926857Y-98467928D01*
X195108285Y-98467928D01*
X195180857Y-98431642D01*
X195543714Y-98758214D02*
X195543714Y-98250214D01*
X195543714Y-98395357D02*
X195580000Y-98322785D01*
X195616285Y-98286500D01*
X195688857Y-98250214D01*
X195761428Y-98250214D01*
X196342000Y-98758214D02*
X196342000Y-97996214D01*
X196342000Y-98721928D02*
X196269428Y-98758214D01*
X196124285Y-98758214D01*
X196051714Y-98721928D01*
X196015428Y-98685642D01*
X195979142Y-98613071D01*
X195979142Y-98395357D01*
X196015428Y-98322785D01*
X196051714Y-98286500D01*
X196124285Y-98250214D01*
X196269428Y-98250214D01*
X196342000Y-98286500D01*
X197176571Y-97996214D02*
X197430571Y-98758214D01*
X197684571Y-97996214D01*
X198337714Y-98758214D02*
X197902285Y-98758214D01*
X198120000Y-98758214D02*
X198120000Y-97996214D01*
X198047428Y-98105071D01*
X197974857Y-98177642D01*
X197902285Y-98213928D01*
X181864000Y-99652071D02*
X182118000Y-99652071D01*
X182226857Y-100051214D02*
X181864000Y-100051214D01*
X181864000Y-99289214D01*
X182226857Y-99289214D01*
X182480857Y-99543214D02*
X182662285Y-100051214D01*
X182843714Y-99543214D01*
X183460571Y-100051214D02*
X183460571Y-99652071D01*
X183424285Y-99579500D01*
X183351714Y-99543214D01*
X183206571Y-99543214D01*
X183134000Y-99579500D01*
X183460571Y-100014928D02*
X183388000Y-100051214D01*
X183206571Y-100051214D01*
X183134000Y-100014928D01*
X183097714Y-99942357D01*
X183097714Y-99869785D01*
X183134000Y-99797214D01*
X183206571Y-99760928D01*
X183388000Y-99760928D01*
X183460571Y-99724642D01*
X183823428Y-99543214D02*
X183823428Y-100051214D01*
X183823428Y-99615785D02*
X183859714Y-99579500D01*
X183932285Y-99543214D01*
X184041142Y-99543214D01*
X184113714Y-99579500D01*
X184150000Y-99652071D01*
X184150000Y-100051214D01*
X185020857Y-99289214D02*
X185202285Y-100051214D01*
X185347428Y-99506928D01*
X185492571Y-100051214D01*
X185674000Y-99289214D01*
X185964285Y-100051214D02*
X185964285Y-99543214D01*
X185964285Y-99289214D02*
X185928000Y-99325500D01*
X185964285Y-99361785D01*
X186000571Y-99325500D01*
X185964285Y-99289214D01*
X185964285Y-99361785D01*
X186653714Y-100051214D02*
X186653714Y-99289214D01*
X186653714Y-100014928D02*
X186581142Y-100051214D01*
X186436000Y-100051214D01*
X186363428Y-100014928D01*
X186327142Y-99978642D01*
X186290857Y-99906071D01*
X186290857Y-99688357D01*
X186327142Y-99615785D01*
X186363428Y-99579500D01*
X186436000Y-99543214D01*
X186581142Y-99543214D01*
X186653714Y-99579500D01*
X187125428Y-100051214D02*
X187052857Y-100014928D01*
X187016571Y-99942357D01*
X187016571Y-99289214D01*
X187524571Y-100051214D02*
X187452000Y-100014928D01*
X187415714Y-99978642D01*
X187379428Y-99906071D01*
X187379428Y-99688357D01*
X187415714Y-99615785D01*
X187452000Y-99579500D01*
X187524571Y-99543214D01*
X187633428Y-99543214D01*
X187706000Y-99579500D01*
X187742285Y-99615785D01*
X187778571Y-99688357D01*
X187778571Y-99906071D01*
X187742285Y-99978642D01*
X187706000Y-100014928D01*
X187633428Y-100051214D01*
X187524571Y-100051214D01*
X188068857Y-100014928D02*
X188141428Y-100051214D01*
X188286571Y-100051214D01*
X188359142Y-100014928D01*
X188395428Y-99942357D01*
X188395428Y-99906071D01*
X188359142Y-99833500D01*
X188286571Y-99797214D01*
X188177714Y-99797214D01*
X188105142Y-99760928D01*
X188068857Y-99688357D01*
X188068857Y-99652071D01*
X188105142Y-99579500D01*
X188177714Y-99543214D01*
X188286571Y-99543214D01*
X188359142Y-99579500D01*
X188722000Y-100051214D02*
X188722000Y-99289214D01*
X188794571Y-99760928D02*
X189012285Y-100051214D01*
X189012285Y-99543214D02*
X188722000Y-99833500D01*
X189338857Y-100051214D02*
X189338857Y-99543214D01*
X189338857Y-99289214D02*
X189302571Y-99325500D01*
X189338857Y-99361785D01*
X189375142Y-99325500D01*
X189338857Y-99289214D01*
X189338857Y-99361785D01*
X190282285Y-99760928D02*
X190862857Y-99760928D01*
X191770000Y-99361785D02*
X191806285Y-99325500D01*
X191878857Y-99289214D01*
X192060285Y-99289214D01*
X192132857Y-99325500D01*
X192169142Y-99361785D01*
X192205428Y-99434357D01*
X192205428Y-99506928D01*
X192169142Y-99615785D01*
X191733714Y-100051214D01*
X192205428Y-100051214D01*
X192677142Y-99289214D02*
X192749714Y-99289214D01*
X192822285Y-99325500D01*
X192858571Y-99361785D01*
X192894857Y-99434357D01*
X192931142Y-99579500D01*
X192931142Y-99760928D01*
X192894857Y-99906071D01*
X192858571Y-99978642D01*
X192822285Y-100014928D01*
X192749714Y-100051214D01*
X192677142Y-100051214D01*
X192604571Y-100014928D01*
X192568285Y-99978642D01*
X192532000Y-99906071D01*
X192495714Y-99760928D01*
X192495714Y-99579500D01*
X192532000Y-99434357D01*
X192568285Y-99361785D01*
X192604571Y-99325500D01*
X192677142Y-99289214D01*
X193221428Y-99361785D02*
X193257714Y-99325500D01*
X193330285Y-99289214D01*
X193511714Y-99289214D01*
X193584285Y-99325500D01*
X193620571Y-99361785D01*
X193656857Y-99434357D01*
X193656857Y-99506928D01*
X193620571Y-99615785D01*
X193185142Y-100051214D01*
X193656857Y-100051214D01*
X194382571Y-100051214D02*
X193947142Y-100051214D01*
X194164857Y-100051214D02*
X194164857Y-99289214D01*
X194092285Y-99398071D01*
X194019714Y-99470642D01*
X193947142Y-99506928D01*
X194709142Y-99760928D02*
X195289714Y-99760928D01*
X196051714Y-100051214D02*
X195616285Y-100051214D01*
X195834000Y-100051214D02*
X195834000Y-99289214D01*
X195761428Y-99398071D01*
X195688857Y-99470642D01*
X195616285Y-99506928D01*
X196523428Y-99289214D02*
X196596000Y-99289214D01*
X196668571Y-99325500D01*
X196704857Y-99361785D01*
X196741142Y-99434357D01*
X196777428Y-99579500D01*
X196777428Y-99760928D01*
X196741142Y-99906071D01*
X196704857Y-99978642D01*
X196668571Y-100014928D01*
X196596000Y-100051214D01*
X196523428Y-100051214D01*
X196450857Y-100014928D01*
X196414571Y-99978642D01*
X196378285Y-99906071D01*
X196342000Y-99760928D01*
X196342000Y-99579500D01*
X196378285Y-99434357D01*
X196414571Y-99361785D01*
X196450857Y-99325500D01*
X196523428Y-99289214D01*
X197104000Y-99760928D02*
X197684571Y-99760928D01*
X198011142Y-99361785D02*
X198047428Y-99325500D01*
X198120000Y-99289214D01*
X198301428Y-99289214D01*
X198374000Y-99325500D01*
X198410285Y-99361785D01*
X198446571Y-99434357D01*
X198446571Y-99506928D01*
X198410285Y-99615785D01*
X197974857Y-100051214D01*
X198446571Y-100051214D01*
X198882000Y-99615785D02*
X198809428Y-99579500D01*
X198773142Y-99543214D01*
X198736857Y-99470642D01*
X198736857Y-99434357D01*
X198773142Y-99361785D01*
X198809428Y-99325500D01*
X198882000Y-99289214D01*
X199027142Y-99289214D01*
X199099714Y-99325500D01*
X199136000Y-99361785D01*
X199172285Y-99434357D01*
X199172285Y-99470642D01*
X199136000Y-99543214D01*
X199099714Y-99579500D01*
X199027142Y-99615785D01*
X198882000Y-99615785D01*
X198809428Y-99652071D01*
X198773142Y-99688357D01*
X198736857Y-99760928D01*
X198736857Y-99906071D01*
X198773142Y-99978642D01*
X198809428Y-100014928D01*
X198882000Y-100051214D01*
X199027142Y-100051214D01*
X199099714Y-100014928D01*
X199136000Y-99978642D01*
X199172285Y-99906071D01*
X199172285Y-99760928D01*
X199136000Y-99688357D01*
X199099714Y-99652071D01*
X199027142Y-99615785D01*
D11*
%TO.C,Y1*%
X174140000Y-79390000D02*
G75*
G03*
X174140000Y-84440000I0J-2525000D01*
G01*
X180390000Y-79390000D02*
G75*
G02*
X180390000Y-84440000I0J-2525000D01*
G01*
X180390000Y-84440000D02*
X174140000Y-84440000D01*
X180390000Y-79390000D02*
X174140000Y-79390000D01*
%TO.C,R4*%
X168047936Y-62330000D02*
X168502064Y-62330000D01*
X168047936Y-60860000D02*
X168502064Y-60860000D01*
%TO.C,D2*%
X166715000Y-58865000D02*
X166715000Y-59021000D01*
X166715000Y-56549000D02*
X166715000Y-56705000D01*
X169316130Y-58864837D02*
G75*
G02*
X167234039Y-58865000I-1041130J1079837D01*
G01*
X169316130Y-56705163D02*
G75*
G03*
X167234039Y-56705000I-1041130J-1079837D01*
G01*
X169947335Y-58863608D02*
G75*
G02*
X166715000Y-59020516I-1672335J1078608D01*
G01*
X169947335Y-56706392D02*
G75*
G03*
X166715000Y-56549484I-1672335J-1078608D01*
G01*
%TO.C,PB1*%
X189160000Y-59690000D02*
G75*
G03*
X189160000Y-59690000I-1200000J0D01*
G01*
%TO.C,J5*%
X184260000Y-87465000D02*
X183660000Y-87465000D01*
X184260000Y-89065000D02*
X184260000Y-87465000D01*
X183660000Y-89065000D02*
X184260000Y-89065000D01*
X184260000Y-90005000D02*
X183660000Y-90005000D01*
X184260000Y-91605000D02*
X184260000Y-90005000D01*
X183660000Y-91605000D02*
X184260000Y-91605000D01*
X184260000Y-92545000D02*
X183660000Y-92545000D01*
X184260000Y-94145000D02*
X184260000Y-92545000D01*
X183660000Y-94145000D02*
X184260000Y-94145000D01*
X184260000Y-95085000D02*
X183660000Y-95085000D01*
X184260000Y-96685000D02*
X184260000Y-95085000D01*
X183660000Y-96685000D02*
X184260000Y-96685000D01*
X189680000Y-88515000D02*
X188680000Y-88515000D01*
X189680000Y-95635000D02*
X188680000Y-95635000D01*
X188150000Y-88515000D02*
X188680000Y-88265000D01*
X188150000Y-95635000D02*
X188150000Y-88515000D01*
X188680000Y-95885000D02*
X188150000Y-95635000D01*
X188680000Y-88265000D02*
X189680000Y-88265000D01*
X188680000Y-95885000D02*
X188680000Y-88265000D01*
X189680000Y-95885000D02*
X188680000Y-95885000D01*
X184690000Y-97555000D02*
X188690000Y-97555000D01*
X183660000Y-86885000D02*
X183660000Y-97265000D01*
X189680000Y-86885000D02*
X183660000Y-86885000D01*
X189680000Y-97265000D02*
X189680000Y-86885000D01*
X183660000Y-97265000D02*
X189680000Y-97265000D01*
%TO.C,PF7*%
X186620000Y-59690000D02*
G75*
G03*
X186620000Y-59690000I-1200000J0D01*
G01*
%TO.C,PF6*%
X184080000Y-59690000D02*
G75*
G03*
X184080000Y-59690000I-1200000J0D01*
G01*
%TO.C,PF5*%
X181540000Y-59690000D02*
G75*
G03*
X181540000Y-59690000I-1200000J0D01*
G01*
%TO.C,PF4*%
X179000000Y-59690000D02*
G75*
G03*
X179000000Y-59690000I-1200000J0D01*
G01*
%TO.C,PF1*%
X176460000Y-59690000D02*
G75*
G03*
X176460000Y-59690000I-1200000J0D01*
G01*
%TO.C,PF0*%
X173920000Y-59690000D02*
G75*
G03*
X173920000Y-59690000I-1200000J0D01*
G01*
%TO.C,PE2*%
X194875000Y-59690000D02*
G75*
G03*
X194875000Y-59690000I-1200000J0D01*
G01*
%TO.C,PD7*%
X194875000Y-74930000D02*
G75*
G03*
X194875000Y-74930000I-1200000J0D01*
G01*
%TO.C,PD6*%
X194875000Y-77470000D02*
G75*
G03*
X194875000Y-77470000I-1200000J0D01*
G01*
%TO.C,PD5*%
X194875000Y-82550000D02*
G75*
G03*
X194875000Y-82550000I-1200000J0D01*
G01*
%TO.C,PD4*%
X194875000Y-80010000D02*
G75*
G03*
X194875000Y-80010000I-1200000J0D01*
G01*
%TO.C,PC7*%
X194875000Y-62230000D02*
G75*
G03*
X194875000Y-62230000I-1200000J0D01*
G01*
%TO.C,PC6*%
X194875000Y-64770000D02*
G75*
G03*
X194875000Y-64770000I-1200000J0D01*
G01*
%TO.C,PB6*%
X194875000Y-67310000D02*
G75*
G03*
X194875000Y-67310000I-1200000J0D01*
G01*
%TO.C,PB5*%
X194875000Y-69850000D02*
G75*
G03*
X194875000Y-69850000I-1200000J0D01*
G01*
%TO.C,PB4*%
X194875000Y-72390000D02*
G75*
G03*
X194875000Y-72390000I-1200000J0D01*
G01*
%TO.C,J1*%
X170665000Y-96573000D02*
X170665000Y-93973000D01*
X178585000Y-93973000D02*
X178585000Y-96573000D01*
X171425000Y-91663000D02*
X172575000Y-91663000D01*
X172575000Y-91663000D02*
X172575000Y-91073000D01*
X172575000Y-91073000D02*
X173275000Y-91073000D01*
X176675000Y-91663000D02*
X177825000Y-91663000D01*
X170665000Y-99473000D02*
X170665000Y-101133000D01*
X170665000Y-101133000D02*
X178585000Y-101133000D01*
X178585000Y-101133000D02*
X178585000Y-99473000D01*
D10*
%TO.C,U1*%
X173641000Y-66453000D02*
X173641000Y-67028000D01*
X183991000Y-66453000D02*
X183991000Y-67128000D01*
X183991000Y-76803000D02*
X183991000Y-76128000D01*
X173641000Y-76803000D02*
X173641000Y-76128000D01*
X173641000Y-66453000D02*
X174316000Y-66453000D01*
X173641000Y-76803000D02*
X174316000Y-76803000D01*
X183991000Y-76803000D02*
X183316000Y-76803000D01*
X183991000Y-66453000D02*
X183316000Y-66453000D01*
X173641000Y-67028000D02*
X172366000Y-67028000D01*
D11*
%TO.C,R3*%
X159285000Y-92302064D02*
X159285000Y-91847936D01*
X160755000Y-92302064D02*
X160755000Y-91847936D01*
%TO.C,R2*%
X168375000Y-86767936D02*
X168375000Y-87222064D01*
X166905000Y-86767936D02*
X166905000Y-87222064D01*
%TO.C,R1*%
X172185000Y-86767936D02*
X172185000Y-87222064D01*
X170715000Y-86767936D02*
X170715000Y-87222064D01*
%TO.C,J4*%
X193185000Y-94725000D02*
X199205000Y-94725000D01*
X199205000Y-94725000D02*
X199205000Y-86885000D01*
X199205000Y-86885000D02*
X193185000Y-86885000D01*
X193185000Y-86885000D02*
X193185000Y-94725000D01*
X194215000Y-95015000D02*
X198215000Y-95015000D01*
X199205000Y-93345000D02*
X198205000Y-93345000D01*
X198205000Y-93345000D02*
X198205000Y-88265000D01*
X198205000Y-88265000D02*
X199205000Y-88265000D01*
X198205000Y-93345000D02*
X197675000Y-93095000D01*
X197675000Y-93095000D02*
X197675000Y-88515000D01*
X197675000Y-88515000D02*
X198205000Y-88265000D01*
X199205000Y-93095000D02*
X198205000Y-93095000D01*
X199205000Y-88515000D02*
X198205000Y-88515000D01*
X193185000Y-94145000D02*
X193785000Y-94145000D01*
X193785000Y-94145000D02*
X193785000Y-92545000D01*
X193785000Y-92545000D02*
X193185000Y-92545000D01*
X193185000Y-91605000D02*
X193785000Y-91605000D01*
X193785000Y-91605000D02*
X193785000Y-90005000D01*
X193785000Y-90005000D02*
X193185000Y-90005000D01*
X193185000Y-89065000D02*
X193785000Y-89065000D01*
X193785000Y-89065000D02*
X193785000Y-87465000D01*
X193785000Y-87465000D02*
X193185000Y-87465000D01*
%TO.C,J3*%
X159275000Y-57930000D02*
X159275000Y-63950000D01*
X159275000Y-63950000D02*
X164575000Y-63950000D01*
X164575000Y-63950000D02*
X164575000Y-57930000D01*
X164575000Y-57930000D02*
X159275000Y-57930000D01*
X158985000Y-58960000D02*
X158985000Y-62960000D01*
X160655000Y-63950000D02*
X160655000Y-62950000D01*
X160655000Y-62950000D02*
X163195000Y-62950000D01*
X163195000Y-62950000D02*
X163195000Y-63950000D01*
X160655000Y-62950000D02*
X160905000Y-62420000D01*
X160905000Y-62420000D02*
X162945000Y-62420000D01*
X162945000Y-62420000D02*
X163195000Y-62950000D01*
X160905000Y-63950000D02*
X160905000Y-62950000D01*
X162945000Y-63950000D02*
X162945000Y-62950000D01*
X159855000Y-57930000D02*
X159855000Y-58530000D01*
X159855000Y-58530000D02*
X161455000Y-58530000D01*
X161455000Y-58530000D02*
X161455000Y-57930000D01*
X162395000Y-57930000D02*
X162395000Y-58530000D01*
X162395000Y-58530000D02*
X163995000Y-58530000D01*
X163995000Y-58530000D02*
X163995000Y-57930000D01*
%TO.C,J2*%
X166485000Y-83950000D02*
X157365000Y-83950000D01*
X157365000Y-83950000D02*
X157365000Y-68450000D01*
X157365000Y-68450000D02*
X166485000Y-68450000D01*
X166485000Y-68450000D02*
X166485000Y-83950000D01*
X166485000Y-78250000D02*
X165175000Y-78250000D01*
X165175000Y-78250000D02*
X165175000Y-82650000D01*
X165175000Y-82650000D02*
X158675000Y-82650000D01*
X158675000Y-82650000D02*
X158675000Y-69750000D01*
X158675000Y-69750000D02*
X165175000Y-69750000D01*
X165175000Y-69750000D02*
X165175000Y-74150000D01*
X165175000Y-74150000D02*
X165175000Y-74150000D01*
X165175000Y-74150000D02*
X166485000Y-74150000D01*
X166875000Y-78740000D02*
X167875000Y-79240000D01*
X167875000Y-79240000D02*
X167875000Y-78240000D01*
X167875000Y-78240000D02*
X166875000Y-78740000D01*
%TO.C,D1*%
X162195000Y-94325000D02*
X164195000Y-94325000D01*
X164195000Y-94325000D02*
X164195000Y-90425000D01*
X162195000Y-94325000D02*
X162195000Y-90425000D01*
%TO.C,C4*%
X169645000Y-65143748D02*
X169645000Y-65666252D01*
X168175000Y-65143748D02*
X168175000Y-65666252D01*
%TO.C,C3*%
X168175000Y-70746252D02*
X168175000Y-70223748D01*
X169645000Y-70746252D02*
X169645000Y-70223748D01*
%TO.C,C2*%
X174525000Y-87256252D02*
X174525000Y-86733748D01*
X175995000Y-87256252D02*
X175995000Y-86733748D01*
%TO.C,C1*%
X179805000Y-86733748D02*
X179805000Y-87256252D01*
X178335000Y-86733748D02*
X178335000Y-87256252D01*
%TO.C,Y1*%
D10*
X184308809Y-81891190D02*
X184308809Y-82367380D01*
X183975476Y-81367380D02*
X184308809Y-81891190D01*
X184642142Y-81367380D01*
X185499285Y-82367380D02*
X184927857Y-82367380D01*
X185213571Y-82367380D02*
X185213571Y-81367380D01*
X185118333Y-81510238D01*
X185023095Y-81605476D01*
X184927857Y-81653095D01*
%TO.C,R4*%
X171283333Y-62047380D02*
X170950000Y-61571190D01*
X170711904Y-62047380D02*
X170711904Y-61047380D01*
X171092857Y-61047380D01*
X171188095Y-61095000D01*
X171235714Y-61142619D01*
X171283333Y-61237857D01*
X171283333Y-61380714D01*
X171235714Y-61475952D01*
X171188095Y-61523571D01*
X171092857Y-61571190D01*
X170711904Y-61571190D01*
X172140476Y-61380714D02*
X172140476Y-62047380D01*
X171902380Y-60999761D02*
X171664285Y-61714047D01*
X172283333Y-61714047D01*
%TO.C,D2*%
X167089666Y-55062380D02*
X167089666Y-54062380D01*
X167476714Y-54062380D01*
X167573476Y-54110000D01*
X167621857Y-54157619D01*
X167670238Y-54252857D01*
X167670238Y-54395714D01*
X167621857Y-54490952D01*
X167573476Y-54538571D01*
X167476714Y-54586190D01*
X167089666Y-54586190D01*
X168444333Y-54538571D02*
X168105666Y-54538571D01*
X168105666Y-55062380D02*
X168105666Y-54062380D01*
X168589476Y-54062380D01*
X169170047Y-54062380D02*
X169266809Y-54062380D01*
X169363571Y-54110000D01*
X169411952Y-54157619D01*
X169460333Y-54252857D01*
X169508714Y-54443333D01*
X169508714Y-54681428D01*
X169460333Y-54871904D01*
X169411952Y-54967142D01*
X169363571Y-55014761D01*
X169266809Y-55062380D01*
X169170047Y-55062380D01*
X169073285Y-55014761D01*
X169024904Y-54967142D01*
X168976523Y-54871904D01*
X168928142Y-54681428D01*
X168928142Y-54443333D01*
X168976523Y-54252857D01*
X169024904Y-54157619D01*
X169073285Y-54110000D01*
X169170047Y-54062380D01*
%TO.C,PB1*%
X187460000Y-57276904D02*
X187412380Y-57372142D01*
X187412380Y-57515000D01*
X187460000Y-57657857D01*
X187555238Y-57753095D01*
X187650476Y-57800714D01*
X187840952Y-57848333D01*
X187983809Y-57848333D01*
X188174285Y-57800714D01*
X188269523Y-57753095D01*
X188364761Y-57657857D01*
X188412380Y-57515000D01*
X188412380Y-57419761D01*
X188364761Y-57276904D01*
X188317142Y-57229285D01*
X187983809Y-57229285D01*
X187983809Y-57419761D01*
X188412380Y-56800714D02*
X187412380Y-56800714D01*
X188412380Y-56229285D01*
X187412380Y-56229285D01*
X188412380Y-55753095D02*
X187412380Y-55753095D01*
X187412380Y-55515000D01*
X187460000Y-55372142D01*
X187555238Y-55276904D01*
X187650476Y-55229285D01*
X187840952Y-55181666D01*
X187983809Y-55181666D01*
X188174285Y-55229285D01*
X188269523Y-55276904D01*
X188364761Y-55372142D01*
X188412380Y-55515000D01*
X188412380Y-55753095D01*
%TO.C,J5*%
X181083857Y-93653428D02*
X181192714Y-93689714D01*
X181374142Y-93689714D01*
X181446714Y-93653428D01*
X181483000Y-93617142D01*
X181519285Y-93544571D01*
X181519285Y-93472000D01*
X181483000Y-93399428D01*
X181446714Y-93363142D01*
X181374142Y-93326857D01*
X181229000Y-93290571D01*
X181156428Y-93254285D01*
X181120142Y-93218000D01*
X181083857Y-93145428D01*
X181083857Y-93072857D01*
X181120142Y-93000285D01*
X181156428Y-92964000D01*
X181229000Y-92927714D01*
X181410428Y-92927714D01*
X181519285Y-92964000D01*
X182281285Y-93617142D02*
X182245000Y-93653428D01*
X182136142Y-93689714D01*
X182063571Y-93689714D01*
X181954714Y-93653428D01*
X181882142Y-93580857D01*
X181845857Y-93508285D01*
X181809571Y-93363142D01*
X181809571Y-93254285D01*
X181845857Y-93109142D01*
X181882142Y-93036571D01*
X181954714Y-92964000D01*
X182063571Y-92927714D01*
X182136142Y-92927714D01*
X182245000Y-92964000D01*
X182281285Y-93000285D01*
X182970714Y-93689714D02*
X182607857Y-93689714D01*
X182607857Y-92927714D01*
X181065714Y-91113428D02*
X181174571Y-91149714D01*
X181356000Y-91149714D01*
X181428571Y-91113428D01*
X181464857Y-91077142D01*
X181501142Y-91004571D01*
X181501142Y-90932000D01*
X181464857Y-90859428D01*
X181428571Y-90823142D01*
X181356000Y-90786857D01*
X181210857Y-90750571D01*
X181138285Y-90714285D01*
X181102000Y-90678000D01*
X181065714Y-90605428D01*
X181065714Y-90532857D01*
X181102000Y-90460285D01*
X181138285Y-90424000D01*
X181210857Y-90387714D01*
X181392285Y-90387714D01*
X181501142Y-90424000D01*
X181827714Y-91149714D02*
X181827714Y-90387714D01*
X182009142Y-90387714D01*
X182118000Y-90424000D01*
X182190571Y-90496571D01*
X182226857Y-90569142D01*
X182263142Y-90714285D01*
X182263142Y-90823142D01*
X182226857Y-90968285D01*
X182190571Y-91040857D01*
X182118000Y-91113428D01*
X182009142Y-91149714D01*
X181827714Y-91149714D01*
X182553428Y-90932000D02*
X182916285Y-90932000D01*
X182480857Y-91149714D02*
X182734857Y-90387714D01*
X182988857Y-91149714D01*
X181410428Y-87884000D02*
X181337857Y-87847714D01*
X181229000Y-87847714D01*
X181120142Y-87884000D01*
X181047571Y-87956571D01*
X181011285Y-88029142D01*
X180975000Y-88174285D01*
X180975000Y-88283142D01*
X181011285Y-88428285D01*
X181047571Y-88500857D01*
X181120142Y-88573428D01*
X181229000Y-88609714D01*
X181301571Y-88609714D01*
X181410428Y-88573428D01*
X181446714Y-88537142D01*
X181446714Y-88283142D01*
X181301571Y-88283142D01*
X181773285Y-88609714D02*
X181773285Y-87847714D01*
X182208714Y-88609714D01*
X182208714Y-87847714D01*
X182571571Y-88609714D02*
X182571571Y-87847714D01*
X182753000Y-87847714D01*
X182861857Y-87884000D01*
X182934428Y-87956571D01*
X182970714Y-88029142D01*
X183007000Y-88174285D01*
X183007000Y-88283142D01*
X182970714Y-88428285D01*
X182934428Y-88500857D01*
X182861857Y-88573428D01*
X182753000Y-88609714D01*
X182571571Y-88609714D01*
X181011285Y-95939428D02*
X181591857Y-95939428D01*
X181301571Y-96229714D02*
X181301571Y-95649142D01*
X182317571Y-95467714D02*
X181954714Y-95467714D01*
X181918428Y-95830571D01*
X181954714Y-95794285D01*
X182027285Y-95758000D01*
X182208714Y-95758000D01*
X182281285Y-95794285D01*
X182317571Y-95830571D01*
X182353857Y-95903142D01*
X182353857Y-96084571D01*
X182317571Y-96157142D01*
X182281285Y-96193428D01*
X182208714Y-96229714D01*
X182027285Y-96229714D01*
X181954714Y-96193428D01*
X181918428Y-96157142D01*
X182571571Y-95467714D02*
X182825571Y-96229714D01*
X183079571Y-95467714D01*
%TO.C,PF7*%
X185872380Y-57588666D02*
X184872380Y-57588666D01*
X184872380Y-57207714D01*
X184920000Y-57112476D01*
X184967619Y-57064857D01*
X185062857Y-57017238D01*
X185205714Y-57017238D01*
X185300952Y-57064857D01*
X185348571Y-57112476D01*
X185396190Y-57207714D01*
X185396190Y-57588666D01*
X185348571Y-56255333D02*
X185348571Y-56588666D01*
X185872380Y-56588666D02*
X184872380Y-56588666D01*
X184872380Y-56112476D01*
X184872380Y-55826761D02*
X184872380Y-55160095D01*
X185872380Y-55588666D01*
%TO.C,PF6*%
X183332380Y-57588666D02*
X182332380Y-57588666D01*
X182332380Y-57207714D01*
X182380000Y-57112476D01*
X182427619Y-57064857D01*
X182522857Y-57017238D01*
X182665714Y-57017238D01*
X182760952Y-57064857D01*
X182808571Y-57112476D01*
X182856190Y-57207714D01*
X182856190Y-57588666D01*
X182808571Y-56255333D02*
X182808571Y-56588666D01*
X183332380Y-56588666D02*
X182332380Y-56588666D01*
X182332380Y-56112476D01*
X182332380Y-55302952D02*
X182332380Y-55493428D01*
X182380000Y-55588666D01*
X182427619Y-55636285D01*
X182570476Y-55731523D01*
X182760952Y-55779142D01*
X183141904Y-55779142D01*
X183237142Y-55731523D01*
X183284761Y-55683904D01*
X183332380Y-55588666D01*
X183332380Y-55398190D01*
X183284761Y-55302952D01*
X183237142Y-55255333D01*
X183141904Y-55207714D01*
X182903809Y-55207714D01*
X182808571Y-55255333D01*
X182760952Y-55302952D01*
X182713333Y-55398190D01*
X182713333Y-55588666D01*
X182760952Y-55683904D01*
X182808571Y-55731523D01*
X182903809Y-55779142D01*
%TO.C,PF5*%
X180792380Y-57588666D02*
X179792380Y-57588666D01*
X179792380Y-57207714D01*
X179840000Y-57112476D01*
X179887619Y-57064857D01*
X179982857Y-57017238D01*
X180125714Y-57017238D01*
X180220952Y-57064857D01*
X180268571Y-57112476D01*
X180316190Y-57207714D01*
X180316190Y-57588666D01*
X180268571Y-56255333D02*
X180268571Y-56588666D01*
X180792380Y-56588666D02*
X179792380Y-56588666D01*
X179792380Y-56112476D01*
X179792380Y-55255333D02*
X179792380Y-55731523D01*
X180268571Y-55779142D01*
X180220952Y-55731523D01*
X180173333Y-55636285D01*
X180173333Y-55398190D01*
X180220952Y-55302952D01*
X180268571Y-55255333D01*
X180363809Y-55207714D01*
X180601904Y-55207714D01*
X180697142Y-55255333D01*
X180744761Y-55302952D01*
X180792380Y-55398190D01*
X180792380Y-55636285D01*
X180744761Y-55731523D01*
X180697142Y-55779142D01*
%TO.C,PF4*%
X178252380Y-57588666D02*
X177252380Y-57588666D01*
X177252380Y-57207714D01*
X177300000Y-57112476D01*
X177347619Y-57064857D01*
X177442857Y-57017238D01*
X177585714Y-57017238D01*
X177680952Y-57064857D01*
X177728571Y-57112476D01*
X177776190Y-57207714D01*
X177776190Y-57588666D01*
X177728571Y-56255333D02*
X177728571Y-56588666D01*
X178252380Y-56588666D02*
X177252380Y-56588666D01*
X177252380Y-56112476D01*
X177585714Y-55302952D02*
X178252380Y-55302952D01*
X177204761Y-55541047D02*
X177919047Y-55779142D01*
X177919047Y-55160095D01*
%TO.C,PF1*%
X175712380Y-57588666D02*
X174712380Y-57588666D01*
X174712380Y-57207714D01*
X174760000Y-57112476D01*
X174807619Y-57064857D01*
X174902857Y-57017238D01*
X175045714Y-57017238D01*
X175140952Y-57064857D01*
X175188571Y-57112476D01*
X175236190Y-57207714D01*
X175236190Y-57588666D01*
X175188571Y-56255333D02*
X175188571Y-56588666D01*
X175712380Y-56588666D02*
X174712380Y-56588666D01*
X174712380Y-56112476D01*
X175712380Y-55207714D02*
X175712380Y-55779142D01*
X175712380Y-55493428D02*
X174712380Y-55493428D01*
X174855238Y-55588666D01*
X174950476Y-55683904D01*
X174998095Y-55779142D01*
%TO.C,PF0*%
X173172380Y-57588666D02*
X172172380Y-57588666D01*
X172172380Y-57207714D01*
X172220000Y-57112476D01*
X172267619Y-57064857D01*
X172362857Y-57017238D01*
X172505714Y-57017238D01*
X172600952Y-57064857D01*
X172648571Y-57112476D01*
X172696190Y-57207714D01*
X172696190Y-57588666D01*
X172648571Y-56255333D02*
X172648571Y-56588666D01*
X173172380Y-56588666D02*
X172172380Y-56588666D01*
X172172380Y-56112476D01*
X172172380Y-55541047D02*
X172172380Y-55445809D01*
X172220000Y-55350571D01*
X172267619Y-55302952D01*
X172362857Y-55255333D01*
X172553333Y-55207714D01*
X172791428Y-55207714D01*
X172981904Y-55255333D01*
X173077142Y-55302952D01*
X173124761Y-55350571D01*
X173172380Y-55445809D01*
X173172380Y-55541047D01*
X173124761Y-55636285D01*
X173077142Y-55683904D01*
X172981904Y-55731523D01*
X172791428Y-55779142D01*
X172553333Y-55779142D01*
X172362857Y-55731523D01*
X172267619Y-55683904D01*
X172220000Y-55636285D01*
X172172380Y-55541047D01*
%TO.C,PE2*%
X196294523Y-60049380D02*
X196294523Y-59049380D01*
X196675476Y-59049380D01*
X196770714Y-59097000D01*
X196818333Y-59144619D01*
X196865952Y-59239857D01*
X196865952Y-59382714D01*
X196818333Y-59477952D01*
X196770714Y-59525571D01*
X196675476Y-59573190D01*
X196294523Y-59573190D01*
X197294523Y-59525571D02*
X197627857Y-59525571D01*
X197770714Y-60049380D02*
X197294523Y-60049380D01*
X197294523Y-59049380D01*
X197770714Y-59049380D01*
X198151666Y-59144619D02*
X198199285Y-59097000D01*
X198294523Y-59049380D01*
X198532619Y-59049380D01*
X198627857Y-59097000D01*
X198675476Y-59144619D01*
X198723095Y-59239857D01*
X198723095Y-59335095D01*
X198675476Y-59477952D01*
X198104047Y-60049380D01*
X198723095Y-60049380D01*
%TO.C,PD7*%
X196246904Y-75289380D02*
X196246904Y-74289380D01*
X196627857Y-74289380D01*
X196723095Y-74337000D01*
X196770714Y-74384619D01*
X196818333Y-74479857D01*
X196818333Y-74622714D01*
X196770714Y-74717952D01*
X196723095Y-74765571D01*
X196627857Y-74813190D01*
X196246904Y-74813190D01*
X197246904Y-75289380D02*
X197246904Y-74289380D01*
X197485000Y-74289380D01*
X197627857Y-74337000D01*
X197723095Y-74432238D01*
X197770714Y-74527476D01*
X197818333Y-74717952D01*
X197818333Y-74860809D01*
X197770714Y-75051285D01*
X197723095Y-75146523D01*
X197627857Y-75241761D01*
X197485000Y-75289380D01*
X197246904Y-75289380D01*
X198151666Y-74289380D02*
X198818333Y-74289380D01*
X198389761Y-75289380D01*
%TO.C,PD6*%
X196246904Y-77829380D02*
X196246904Y-76829380D01*
X196627857Y-76829380D01*
X196723095Y-76877000D01*
X196770714Y-76924619D01*
X196818333Y-77019857D01*
X196818333Y-77162714D01*
X196770714Y-77257952D01*
X196723095Y-77305571D01*
X196627857Y-77353190D01*
X196246904Y-77353190D01*
X197246904Y-77829380D02*
X197246904Y-76829380D01*
X197485000Y-76829380D01*
X197627857Y-76877000D01*
X197723095Y-76972238D01*
X197770714Y-77067476D01*
X197818333Y-77257952D01*
X197818333Y-77400809D01*
X197770714Y-77591285D01*
X197723095Y-77686523D01*
X197627857Y-77781761D01*
X197485000Y-77829380D01*
X197246904Y-77829380D01*
X198675476Y-76829380D02*
X198485000Y-76829380D01*
X198389761Y-76877000D01*
X198342142Y-76924619D01*
X198246904Y-77067476D01*
X198199285Y-77257952D01*
X198199285Y-77638904D01*
X198246904Y-77734142D01*
X198294523Y-77781761D01*
X198389761Y-77829380D01*
X198580238Y-77829380D01*
X198675476Y-77781761D01*
X198723095Y-77734142D01*
X198770714Y-77638904D01*
X198770714Y-77400809D01*
X198723095Y-77305571D01*
X198675476Y-77257952D01*
X198580238Y-77210333D01*
X198389761Y-77210333D01*
X198294523Y-77257952D01*
X198246904Y-77305571D01*
X198199285Y-77400809D01*
%TO.C,PD5*%
X196246904Y-82909380D02*
X196246904Y-81909380D01*
X196627857Y-81909380D01*
X196723095Y-81957000D01*
X196770714Y-82004619D01*
X196818333Y-82099857D01*
X196818333Y-82242714D01*
X196770714Y-82337952D01*
X196723095Y-82385571D01*
X196627857Y-82433190D01*
X196246904Y-82433190D01*
X197246904Y-82909380D02*
X197246904Y-81909380D01*
X197485000Y-81909380D01*
X197627857Y-81957000D01*
X197723095Y-82052238D01*
X197770714Y-82147476D01*
X197818333Y-82337952D01*
X197818333Y-82480809D01*
X197770714Y-82671285D01*
X197723095Y-82766523D01*
X197627857Y-82861761D01*
X197485000Y-82909380D01*
X197246904Y-82909380D01*
X198723095Y-81909380D02*
X198246904Y-81909380D01*
X198199285Y-82385571D01*
X198246904Y-82337952D01*
X198342142Y-82290333D01*
X198580238Y-82290333D01*
X198675476Y-82337952D01*
X198723095Y-82385571D01*
X198770714Y-82480809D01*
X198770714Y-82718904D01*
X198723095Y-82814142D01*
X198675476Y-82861761D01*
X198580238Y-82909380D01*
X198342142Y-82909380D01*
X198246904Y-82861761D01*
X198199285Y-82814142D01*
%TO.C,PD4*%
X196246904Y-80369380D02*
X196246904Y-79369380D01*
X196627857Y-79369380D01*
X196723095Y-79417000D01*
X196770714Y-79464619D01*
X196818333Y-79559857D01*
X196818333Y-79702714D01*
X196770714Y-79797952D01*
X196723095Y-79845571D01*
X196627857Y-79893190D01*
X196246904Y-79893190D01*
X197246904Y-80369380D02*
X197246904Y-79369380D01*
X197485000Y-79369380D01*
X197627857Y-79417000D01*
X197723095Y-79512238D01*
X197770714Y-79607476D01*
X197818333Y-79797952D01*
X197818333Y-79940809D01*
X197770714Y-80131285D01*
X197723095Y-80226523D01*
X197627857Y-80321761D01*
X197485000Y-80369380D01*
X197246904Y-80369380D01*
X198675476Y-79702714D02*
X198675476Y-80369380D01*
X198437380Y-79321761D02*
X198199285Y-80036047D01*
X198818333Y-80036047D01*
%TO.C,PC7*%
X196246904Y-62589380D02*
X196246904Y-61589380D01*
X196627857Y-61589380D01*
X196723095Y-61637000D01*
X196770714Y-61684619D01*
X196818333Y-61779857D01*
X196818333Y-61922714D01*
X196770714Y-62017952D01*
X196723095Y-62065571D01*
X196627857Y-62113190D01*
X196246904Y-62113190D01*
X197818333Y-62494142D02*
X197770714Y-62541761D01*
X197627857Y-62589380D01*
X197532619Y-62589380D01*
X197389761Y-62541761D01*
X197294523Y-62446523D01*
X197246904Y-62351285D01*
X197199285Y-62160809D01*
X197199285Y-62017952D01*
X197246904Y-61827476D01*
X197294523Y-61732238D01*
X197389761Y-61637000D01*
X197532619Y-61589380D01*
X197627857Y-61589380D01*
X197770714Y-61637000D01*
X197818333Y-61684619D01*
X198151666Y-61589380D02*
X198818333Y-61589380D01*
X198389761Y-62589380D01*
%TO.C,PC6*%
X196246904Y-65129380D02*
X196246904Y-64129380D01*
X196627857Y-64129380D01*
X196723095Y-64177000D01*
X196770714Y-64224619D01*
X196818333Y-64319857D01*
X196818333Y-64462714D01*
X196770714Y-64557952D01*
X196723095Y-64605571D01*
X196627857Y-64653190D01*
X196246904Y-64653190D01*
X197818333Y-65034142D02*
X197770714Y-65081761D01*
X197627857Y-65129380D01*
X197532619Y-65129380D01*
X197389761Y-65081761D01*
X197294523Y-64986523D01*
X197246904Y-64891285D01*
X197199285Y-64700809D01*
X197199285Y-64557952D01*
X197246904Y-64367476D01*
X197294523Y-64272238D01*
X197389761Y-64177000D01*
X197532619Y-64129380D01*
X197627857Y-64129380D01*
X197770714Y-64177000D01*
X197818333Y-64224619D01*
X198675476Y-64129380D02*
X198485000Y-64129380D01*
X198389761Y-64177000D01*
X198342142Y-64224619D01*
X198246904Y-64367476D01*
X198199285Y-64557952D01*
X198199285Y-64938904D01*
X198246904Y-65034142D01*
X198294523Y-65081761D01*
X198389761Y-65129380D01*
X198580238Y-65129380D01*
X198675476Y-65081761D01*
X198723095Y-65034142D01*
X198770714Y-64938904D01*
X198770714Y-64700809D01*
X198723095Y-64605571D01*
X198675476Y-64557952D01*
X198580238Y-64510333D01*
X198389761Y-64510333D01*
X198294523Y-64557952D01*
X198246904Y-64605571D01*
X198199285Y-64700809D01*
%TO.C,PB6*%
X196246904Y-67669380D02*
X196246904Y-66669380D01*
X196627857Y-66669380D01*
X196723095Y-66717000D01*
X196770714Y-66764619D01*
X196818333Y-66859857D01*
X196818333Y-67002714D01*
X196770714Y-67097952D01*
X196723095Y-67145571D01*
X196627857Y-67193190D01*
X196246904Y-67193190D01*
X197580238Y-67145571D02*
X197723095Y-67193190D01*
X197770714Y-67240809D01*
X197818333Y-67336047D01*
X197818333Y-67478904D01*
X197770714Y-67574142D01*
X197723095Y-67621761D01*
X197627857Y-67669380D01*
X197246904Y-67669380D01*
X197246904Y-66669380D01*
X197580238Y-66669380D01*
X197675476Y-66717000D01*
X197723095Y-66764619D01*
X197770714Y-66859857D01*
X197770714Y-66955095D01*
X197723095Y-67050333D01*
X197675476Y-67097952D01*
X197580238Y-67145571D01*
X197246904Y-67145571D01*
X198675476Y-66669380D02*
X198485000Y-66669380D01*
X198389761Y-66717000D01*
X198342142Y-66764619D01*
X198246904Y-66907476D01*
X198199285Y-67097952D01*
X198199285Y-67478904D01*
X198246904Y-67574142D01*
X198294523Y-67621761D01*
X198389761Y-67669380D01*
X198580238Y-67669380D01*
X198675476Y-67621761D01*
X198723095Y-67574142D01*
X198770714Y-67478904D01*
X198770714Y-67240809D01*
X198723095Y-67145571D01*
X198675476Y-67097952D01*
X198580238Y-67050333D01*
X198389761Y-67050333D01*
X198294523Y-67097952D01*
X198246904Y-67145571D01*
X198199285Y-67240809D01*
%TO.C,PB5*%
X196246904Y-70209380D02*
X196246904Y-69209380D01*
X196627857Y-69209380D01*
X196723095Y-69257000D01*
X196770714Y-69304619D01*
X196818333Y-69399857D01*
X196818333Y-69542714D01*
X196770714Y-69637952D01*
X196723095Y-69685571D01*
X196627857Y-69733190D01*
X196246904Y-69733190D01*
X197580238Y-69685571D02*
X197723095Y-69733190D01*
X197770714Y-69780809D01*
X197818333Y-69876047D01*
X197818333Y-70018904D01*
X197770714Y-70114142D01*
X197723095Y-70161761D01*
X197627857Y-70209380D01*
X197246904Y-70209380D01*
X197246904Y-69209380D01*
X197580238Y-69209380D01*
X197675476Y-69257000D01*
X197723095Y-69304619D01*
X197770714Y-69399857D01*
X197770714Y-69495095D01*
X197723095Y-69590333D01*
X197675476Y-69637952D01*
X197580238Y-69685571D01*
X197246904Y-69685571D01*
X198723095Y-69209380D02*
X198246904Y-69209380D01*
X198199285Y-69685571D01*
X198246904Y-69637952D01*
X198342142Y-69590333D01*
X198580238Y-69590333D01*
X198675476Y-69637952D01*
X198723095Y-69685571D01*
X198770714Y-69780809D01*
X198770714Y-70018904D01*
X198723095Y-70114142D01*
X198675476Y-70161761D01*
X198580238Y-70209380D01*
X198342142Y-70209380D01*
X198246904Y-70161761D01*
X198199285Y-70114142D01*
%TO.C,PB4*%
X196246904Y-72749380D02*
X196246904Y-71749380D01*
X196627857Y-71749380D01*
X196723095Y-71797000D01*
X196770714Y-71844619D01*
X196818333Y-71939857D01*
X196818333Y-72082714D01*
X196770714Y-72177952D01*
X196723095Y-72225571D01*
X196627857Y-72273190D01*
X196246904Y-72273190D01*
X197580238Y-72225571D02*
X197723095Y-72273190D01*
X197770714Y-72320809D01*
X197818333Y-72416047D01*
X197818333Y-72558904D01*
X197770714Y-72654142D01*
X197723095Y-72701761D01*
X197627857Y-72749380D01*
X197246904Y-72749380D01*
X197246904Y-71749380D01*
X197580238Y-71749380D01*
X197675476Y-71797000D01*
X197723095Y-71844619D01*
X197770714Y-71939857D01*
X197770714Y-72035095D01*
X197723095Y-72130333D01*
X197675476Y-72177952D01*
X197580238Y-72225571D01*
X197246904Y-72225571D01*
X198675476Y-72082714D02*
X198675476Y-72749380D01*
X198437380Y-71701761D02*
X198199285Y-72416047D01*
X198818333Y-72416047D01*
%TO.C,J1*%
X167433666Y-94702380D02*
X167433666Y-95416666D01*
X167386047Y-95559523D01*
X167290809Y-95654761D01*
X167147952Y-95702380D01*
X167052714Y-95702380D01*
X168433666Y-95702380D02*
X167862238Y-95702380D01*
X168147952Y-95702380D02*
X168147952Y-94702380D01*
X168052714Y-94845238D01*
X167957476Y-94940476D01*
X167862238Y-94988095D01*
%TO.C,U1*%
X178054095Y-62952380D02*
X178054095Y-63761904D01*
X178101714Y-63857142D01*
X178149333Y-63904761D01*
X178244571Y-63952380D01*
X178435047Y-63952380D01*
X178530285Y-63904761D01*
X178577904Y-63857142D01*
X178625523Y-63761904D01*
X178625523Y-62952380D01*
X179625523Y-63952380D02*
X179054095Y-63952380D01*
X179339809Y-63952380D02*
X179339809Y-62952380D01*
X179244571Y-63095238D01*
X179149333Y-63190476D01*
X179054095Y-63238095D01*
%TO.C,R3*%
X160472380Y-88431666D02*
X159996190Y-88765000D01*
X160472380Y-89003095D02*
X159472380Y-89003095D01*
X159472380Y-88622142D01*
X159520000Y-88526904D01*
X159567619Y-88479285D01*
X159662857Y-88431666D01*
X159805714Y-88431666D01*
X159900952Y-88479285D01*
X159948571Y-88526904D01*
X159996190Y-88622142D01*
X159996190Y-89003095D01*
X159472380Y-88098333D02*
X159472380Y-87479285D01*
X159853333Y-87812619D01*
X159853333Y-87669761D01*
X159900952Y-87574523D01*
X159948571Y-87526904D01*
X160043809Y-87479285D01*
X160281904Y-87479285D01*
X160377142Y-87526904D01*
X160424761Y-87574523D01*
X160472380Y-87669761D01*
X160472380Y-87955476D01*
X160424761Y-88050714D01*
X160377142Y-88098333D01*
%TO.C,R2*%
X166187380Y-87161666D02*
X165711190Y-87495000D01*
X166187380Y-87733095D02*
X165187380Y-87733095D01*
X165187380Y-87352142D01*
X165235000Y-87256904D01*
X165282619Y-87209285D01*
X165377857Y-87161666D01*
X165520714Y-87161666D01*
X165615952Y-87209285D01*
X165663571Y-87256904D01*
X165711190Y-87352142D01*
X165711190Y-87733095D01*
X165282619Y-86780714D02*
X165235000Y-86733095D01*
X165187380Y-86637857D01*
X165187380Y-86399761D01*
X165235000Y-86304523D01*
X165282619Y-86256904D01*
X165377857Y-86209285D01*
X165473095Y-86209285D01*
X165615952Y-86256904D01*
X166187380Y-86828333D01*
X166187380Y-86209285D01*
%TO.C,R1*%
X169997380Y-87161666D02*
X169521190Y-87495000D01*
X169997380Y-87733095D02*
X168997380Y-87733095D01*
X168997380Y-87352142D01*
X169045000Y-87256904D01*
X169092619Y-87209285D01*
X169187857Y-87161666D01*
X169330714Y-87161666D01*
X169425952Y-87209285D01*
X169473571Y-87256904D01*
X169521190Y-87352142D01*
X169521190Y-87733095D01*
X169997380Y-86209285D02*
X169997380Y-86780714D01*
X169997380Y-86495000D02*
X168997380Y-86495000D01*
X169140238Y-86590238D01*
X169235476Y-86685476D01*
X169283095Y-86780714D01*
%TO.C,J4*%
X190935428Y-88011000D02*
X190862857Y-87974714D01*
X190754000Y-87974714D01*
X190645142Y-88011000D01*
X190572571Y-88083571D01*
X190536285Y-88156142D01*
X190500000Y-88301285D01*
X190500000Y-88410142D01*
X190536285Y-88555285D01*
X190572571Y-88627857D01*
X190645142Y-88700428D01*
X190754000Y-88736714D01*
X190826571Y-88736714D01*
X190935428Y-88700428D01*
X190971714Y-88664142D01*
X190971714Y-88410142D01*
X190826571Y-88410142D01*
X191298285Y-88736714D02*
X191298285Y-87974714D01*
X191733714Y-88736714D01*
X191733714Y-87974714D01*
X192096571Y-88736714D02*
X192096571Y-87974714D01*
X192278000Y-87974714D01*
X192386857Y-88011000D01*
X192459428Y-88083571D01*
X192495714Y-88156142D01*
X192532000Y-88301285D01*
X192532000Y-88410142D01*
X192495714Y-88555285D01*
X192459428Y-88627857D01*
X192386857Y-88700428D01*
X192278000Y-88736714D01*
X192096571Y-88736714D01*
X190935428Y-90514714D02*
X191370857Y-90514714D01*
X191153142Y-91276714D02*
X191153142Y-90514714D01*
X191552285Y-90514714D02*
X192060285Y-91276714D01*
X192060285Y-90514714D02*
X191552285Y-91276714D01*
X191389000Y-93816714D02*
X191135000Y-93453857D01*
X190953571Y-93816714D02*
X190953571Y-93054714D01*
X191243857Y-93054714D01*
X191316428Y-93091000D01*
X191352714Y-93127285D01*
X191389000Y-93199857D01*
X191389000Y-93308714D01*
X191352714Y-93381285D01*
X191316428Y-93417571D01*
X191243857Y-93453857D01*
X190953571Y-93453857D01*
X191643000Y-93054714D02*
X192151000Y-93816714D01*
X192151000Y-93054714D02*
X191643000Y-93816714D01*
%TO.C,J3*%
X160074428Y-55499000D02*
X160001857Y-55462714D01*
X159893000Y-55462714D01*
X159784142Y-55499000D01*
X159711571Y-55571571D01*
X159675285Y-55644142D01*
X159639000Y-55789285D01*
X159639000Y-55898142D01*
X159675285Y-56043285D01*
X159711571Y-56115857D01*
X159784142Y-56188428D01*
X159893000Y-56224714D01*
X159965571Y-56224714D01*
X160074428Y-56188428D01*
X160110714Y-56152142D01*
X160110714Y-55898142D01*
X159965571Y-55898142D01*
X160437285Y-56224714D02*
X160437285Y-55462714D01*
X160872714Y-56224714D01*
X160872714Y-55462714D01*
X161235571Y-56224714D02*
X161235571Y-55462714D01*
X161417000Y-55462714D01*
X161525857Y-55499000D01*
X161598428Y-55571571D01*
X161634714Y-55644142D01*
X161671000Y-55789285D01*
X161671000Y-55898142D01*
X161634714Y-56043285D01*
X161598428Y-56115857D01*
X161525857Y-56188428D01*
X161417000Y-56224714D01*
X161235571Y-56224714D01*
X162215285Y-55934428D02*
X162795857Y-55934428D01*
X162505571Y-56224714D02*
X162505571Y-55644142D01*
X163521571Y-55462714D02*
X163158714Y-55462714D01*
X163122428Y-55825571D01*
X163158714Y-55789285D01*
X163231285Y-55753000D01*
X163412714Y-55753000D01*
X163485285Y-55789285D01*
X163521571Y-55825571D01*
X163557857Y-55898142D01*
X163557857Y-56079571D01*
X163521571Y-56152142D01*
X163485285Y-56188428D01*
X163412714Y-56224714D01*
X163231285Y-56224714D01*
X163158714Y-56188428D01*
X163122428Y-56152142D01*
X163775571Y-55462714D02*
X164029571Y-56224714D01*
X164283571Y-55462714D01*
%TO.C,D1*%
X163647380Y-88368095D02*
X162647380Y-88368095D01*
X162647380Y-88130000D01*
X162695000Y-87987142D01*
X162790238Y-87891904D01*
X162885476Y-87844285D01*
X163075952Y-87796666D01*
X163218809Y-87796666D01*
X163409285Y-87844285D01*
X163504523Y-87891904D01*
X163599761Y-87987142D01*
X163647380Y-88130000D01*
X163647380Y-88368095D01*
X163647380Y-86844285D02*
X163647380Y-87415714D01*
X163647380Y-87130000D02*
X162647380Y-87130000D01*
X162790238Y-87225238D01*
X162885476Y-87320476D01*
X162933095Y-87415714D01*
%TO.C,C4*%
X167362142Y-65571666D02*
X167409761Y-65619285D01*
X167457380Y-65762142D01*
X167457380Y-65857380D01*
X167409761Y-66000238D01*
X167314523Y-66095476D01*
X167219285Y-66143095D01*
X167028809Y-66190714D01*
X166885952Y-66190714D01*
X166695476Y-66143095D01*
X166600238Y-66095476D01*
X166505000Y-66000238D01*
X166457380Y-65857380D01*
X166457380Y-65762142D01*
X166505000Y-65619285D01*
X166552619Y-65571666D01*
X166790714Y-64714523D02*
X167457380Y-64714523D01*
X166409761Y-64952619D02*
X167124047Y-65190714D01*
X167124047Y-64571666D01*
%TO.C,C3*%
X169267142Y-73826666D02*
X169314761Y-73874285D01*
X169362380Y-74017142D01*
X169362380Y-74112380D01*
X169314761Y-74255238D01*
X169219523Y-74350476D01*
X169124285Y-74398095D01*
X168933809Y-74445714D01*
X168790952Y-74445714D01*
X168600476Y-74398095D01*
X168505238Y-74350476D01*
X168410000Y-74255238D01*
X168362380Y-74112380D01*
X168362380Y-74017142D01*
X168410000Y-73874285D01*
X168457619Y-73826666D01*
X168362380Y-73493333D02*
X168362380Y-72874285D01*
X168743333Y-73207619D01*
X168743333Y-73064761D01*
X168790952Y-72969523D01*
X168838571Y-72921904D01*
X168933809Y-72874285D01*
X169171904Y-72874285D01*
X169267142Y-72921904D01*
X169314761Y-72969523D01*
X169362380Y-73064761D01*
X169362380Y-73350476D01*
X169314761Y-73445714D01*
X169267142Y-73493333D01*
%TO.C,C2*%
X173712142Y-87161666D02*
X173759761Y-87209285D01*
X173807380Y-87352142D01*
X173807380Y-87447380D01*
X173759761Y-87590238D01*
X173664523Y-87685476D01*
X173569285Y-87733095D01*
X173378809Y-87780714D01*
X173235952Y-87780714D01*
X173045476Y-87733095D01*
X172950238Y-87685476D01*
X172855000Y-87590238D01*
X172807380Y-87447380D01*
X172807380Y-87352142D01*
X172855000Y-87209285D01*
X172902619Y-87161666D01*
X172902619Y-86780714D02*
X172855000Y-86733095D01*
X172807380Y-86637857D01*
X172807380Y-86399761D01*
X172855000Y-86304523D01*
X172902619Y-86256904D01*
X172997857Y-86209285D01*
X173093095Y-86209285D01*
X173235952Y-86256904D01*
X173807380Y-86828333D01*
X173807380Y-86209285D01*
%TO.C,C1*%
X177522142Y-87161666D02*
X177569761Y-87209285D01*
X177617380Y-87352142D01*
X177617380Y-87447380D01*
X177569761Y-87590238D01*
X177474523Y-87685476D01*
X177379285Y-87733095D01*
X177188809Y-87780714D01*
X177045952Y-87780714D01*
X176855476Y-87733095D01*
X176760238Y-87685476D01*
X176665000Y-87590238D01*
X176617380Y-87447380D01*
X176617380Y-87352142D01*
X176665000Y-87209285D01*
X176712619Y-87161666D01*
X177617380Y-86209285D02*
X177617380Y-86780714D01*
X177617380Y-86495000D02*
X176617380Y-86495000D01*
X176760238Y-86590238D01*
X176855476Y-86685476D01*
X176903095Y-86780714D01*
%TD*%
M02*
