M48
; DRILL file {KiCad 5.1.10} date Fri Oct 29 02:28:05 2021
; FORMAT={-:-/ absolute / inch / decimal}
; #@! TF.CreationDate,2021-10-29T02:28:05-05:00
; #@! TF.GenerationSoftware,Kicad,Pcbnew,5.1.10
FMAT,2
INCH
T1C0.0157
T2C0.0315
T3C0.0354
T4C0.0394
T5C0.0469
T6C0.0354
%
G90
G05
T1
X6.6Y-3.3
X6.725Y-2.7
X6.75Y-2.75
X6.75Y-3.3
X6.85Y-3.775
X6.875Y-2.694
X6.875Y-2.85
X6.925Y-2.975
X7.025Y-2.825
X7.175Y-3.675
X7.2Y-2.95
X7.375Y-3.075
T2
X6.8829Y-3.225
X7.075Y-3.225
T3
X6.575Y-2.275
X6.675Y-2.275
T4
X6.325Y-2.9
X6.325Y-3.0
X6.325Y-3.1
X6.425Y-2.9
X6.425Y-3.0
X6.425Y-3.1
X6.8Y-2.35
X6.9Y-2.35
X7.0Y-2.35
X7.1Y-2.35
X7.2Y-2.35
X7.3Y-2.35
X7.4Y-2.35
X7.625Y-2.35
X7.625Y-2.45
X7.625Y-2.55
X7.625Y-2.65
X7.625Y-2.75
X7.625Y-2.85
X7.625Y-2.95
X7.625Y-3.05
X7.625Y-3.15
X7.625Y-3.25
T5
X6.325Y-2.4
X6.425Y-2.4
X7.35Y-3.475
X7.35Y-3.575
X7.35Y-3.675
X7.35Y-3.775
X7.725Y-3.475
X7.725Y-3.575
X7.725Y-3.675
T6
X6.7884Y-3.745
X6.9616Y-3.745
T0
M30
